{
.appVersion = "1141";
DisplayStrings = (
"/qwaa-ethiopic",
"/qwa-ethiopic",
"/qi-ethiopic.cap",
"/qwaa-ethiopic.cap",
"/qwa-ethiopic.cap",
"/qwaa-ethiopic.cap",
"/tzoa-ethiopic.cap",

glyphs = (
{
glyphname = .notdef;
lastChange = "2018-11-05 04:35:17 +0000";
layers = (
{
layerId = "91004FFB-2E8A-4290-ADD0-E71DD0A9BF8D";
paths = (
{
closed = 1;
nodes = (
"256 0 LINE",
"1280 0 LINE",
"1280 1280 LINE",
"256 1280 LINE"
);
},
{
closed = 1;
nodes = (
"288 32 LINE",
"288 1248 LINE",
"1248 1248 LINE",
"1248 32 LINE"
);
}
);
width = 1536;
}
);
note = .notdef;
},
{
glyphname = exclam;
lastChange = "2018-11-05 04:35:17 +0000";
layers = (
{
layerId = "91004FFB-2E8A-4290-ADD0-E71DD0A9BF8D";
paths = (
{
closed = 1;
nodes = (
"231 364 LINE",
"347 364 LINE",
"399 1141 LINE",
"399 1466 LINE",
"176 1466 LINE",
"176 1141 LINE"
);
},
{
closed = 1;
nodes = (
"184 0 LINE",
"391 0 LINE",
"391 205 LINE",
"184 205 LINE"
);
}
);
width = 569;
}
);
note = exclam;
unicode = 0021;
},
{
glyphname = quotedbl;
lastChange = "2018-11-05 04:35:17 +0000";
layers = (
{
layerId = "91004FFB-2E8A-4290-ADD0-E71DD0A9BF8D";
paths = (
{
closed = 1;
nodes = (
"144 947 LINE",
"254 947 LINE",
"299 1226 LINE",
"299 1466 LINE",
"94 1466 LINE",
"94 1226 LINE"
);
},
{
closed = 1;
nodes = (
"475 947 LINE",
"583 947 LINE",
"631 1226 LINE",
"631 1466 LINE",
"426 1466 LINE",
"426 1226 LINE"
);
}
);
width = 727;
}
);
note = quotedbl;
unicode = 0022;
},
{
glyphname = numbersign;
lastChange = "2018-11-05 04:35:17 +0000";
layers = (
{
layerId = "91004FFB-2E8A-4290-ADD0-E71DD0A9BF8D";
paths = (
{
closed = 1;
nodes = (
"103 -25 LINE",
"253 -25 LINE",
"340 401 LINE",
"654 401 LINE",
"568 -25 LINE",
"718 -25 LINE",
"805 401 LINE",
"1113 401 LINE",
"1113 550 LINE",
"835 550 LINE",
"910 913 LINE",
"1113 913 LINE",
"1113 1062 LINE",
"940 1062 LINE",
"1027 1491 LINE",
"876 1491 LINE",
"789 1062 LINE",
"474 1062 LINE",
"561 1491 LINE",
"411 1491 LINE",
"324 1062 LINE",
"21 1062 LINE",
"21 913 LINE",
"294 913 LINE",
"220 550 LINE",
"21 550 LINE",
"21 401 LINE",
"190 401 LINE"
);
},
{
closed = 1;
nodes = (
"370 550 LINE",
"444 913 LINE",
"759 913 LINE",
"684 550 LINE"
);
}
);
width = 1139;
}
);
note = numbersign;
unicode = 0023;
},
{
glyphname = dollar;
lastChange = "2018-11-05 04:35:17 +0000";
layers = (
{
layerId = "91004FFB-2E8A-4290-ADD0-E71DD0A9BF8D";
paths = (
{
closed = 1;
nodes = (
"510 -211 LINE",
"616 -211 LINE",
"616 -29 LINE",
"742 -23 OFFCURVE",
"844.67 21.67 OFFCURVE",
"924 105 CURVE SMOOTH",
"1003.33 188.33 OFFCURVE",
"1043 292.33 OFFCURVE",
"1043 417 CURVE SMOOTH",
"1043 473.67 OFFCURVE",
"1033.5 526.33 OFFCURVE",
"1014.5 575 CURVE SMOOTH",
"995.5 623.67 OFFCURVE",
"968.33 665.67 OFFCURVE",
"933 701 CURVE SMOOTH",
"897.67 736.33 OFFCURVE",
"852 766.33 OFFCURVE",
"796 791 CURVE SMOOTH",
"766.67 803.67 OFFCURVE",
"706.67 821.33 OFFCURVE",
"616 844 CURVE",
"616 1363 LINE",
"674.67 1351 OFFCURVE",
"720.83 1326.17 OFFCURVE",
"754.5 1288.5 CURVE SMOOTH",
"788.17 1250.83 OFFCURVE",
"810.33 1196.67 OFFCURVE",
"821 1126 CURVE",
"1007 1154 LINE",
"991 1268 OFFCURVE",
"943.67 1357.67 OFFCURVE",
"865 1423 CURVE SMOOTH",
"803.67 1474.33 OFFCURVE",
"720.67 1505 OFFCURVE",
"616 1515 CURVE",
"616 1601 LINE",
"510 1601 LINE",
"510 1515 LINE",
"390.67 1503 OFFCURVE",
"300.67 1470.33 OFFCURVE",
"240 1417 CURVE SMOOTH",
"149.33 1337.67 OFFCURVE",
"104 1234 OFFCURVE",
"104 1106 CURVE SMOOTH",
"104 1034 OFFCURVE",
"119.5 969.67 OFFCURVE",
"150.5 913 CURVE SMOOTH",
"181.5 856.33 OFFCURVE",
"225.67 812 OFFCURVE",
"283 780 CURVE SMOOTH",
"360.33 736.67 OFFCURVE",
"436 708 OFFCURVE",
"510 694 CURVE",
"510 121 LINE",
"439.33 128.33 OFFCURVE",
"378.67 164 OFFCURVE",
"328 228 CURVE SMOOTH",
"292.67 273.33 OFFCURVE",
"268 344.33 OFFCURVE",
"254 441 CURVE",
"73 407 LINE",
"79.67 313.67 OFFCURVE",
"103.5 234.67 OFFCURVE",
"144.5 170 CURVE SMOOTH",
"185.5 105.33 OFFCURVE",
"234.17 58.5 OFFCURVE",
"290.5 29.5 CURVE SMOOTH",
"346.83 0.5 OFFCURVE",
"420 -19.67 OFFCURVE",
"510 -31 CURVE"
);
},
{
closed = 1;
nodes = (
"510 867 LINE",
"428 891.67 OFFCURVE",
"369.83 924.67 OFFCURVE",
"335.5 966 CURVE SMOOTH",
"301.17 1007.33 OFFCURVE",
"284 1058.67 OFFCURVE",
"284 1120 CURVE SMOOTH",
"284 1182 OFFCURVE",
"304.17 1235.67 OFFCURVE",
"344.5 1281 CURVE SMOOTH",
"384.83 1326.33 OFFCURVE",
"440 1354.33 OFFCURVE",
"510 1365 CURVE"
);
},
{
closed = 1;
nodes = (
"616 669 LINE",
"712.67 637.67 OFFCURVE",
"777.17 602.17 OFFCURVE",
"809.5 562.5 CURVE SMOOTH",
"841.83 522.83 OFFCURVE",
"858 470.33 OFFCURVE",
"858 405 CURVE SMOOTH",
"858 328.33 OFFCURVE",
"835.17 264 OFFCURVE",
"789.5 212 CURVE SMOOTH",
"743.83 160 OFFCURVE",
"686 129.67 OFFCURVE",
"616 121 CURVE"
);
}
);
width = 1139;
}
);
note = dollar;
unicode = 0024;
},
{
glyphname = percent;
lastChange = "2018-11-05 04:35:17 +0000";
layers = (
{
layerId = "91004FFB-2E8A-4290-ADD0-E71DD0A9BF8D";
paths = (
{
closed = 1;
nodes = (
"119 980.67 OFFCURVE",
"148.5 881 OFFCURVE",
"207.5 815 CURVE SMOOTH",
"266.5 749 OFFCURVE",
"340.33 716 OFFCURVE",
"429 716 CURVE SMOOTH",
"518.33 716 OFFCURVE",
"593.5 749.5 OFFCURVE",
"654.5 816.5 CURVE SMOOTH",
"715.5 883.5 OFFCURVE",
"746 979 OFFCURVE",
"746 1103 CURVE SMOOTH",
"746 1230.33 OFFCURVE",
"715.83 1326.83 OFFCURVE",
"655.5 1392.5 CURVE SMOOTH",
"595.17 1458.17 OFFCURVE",
"519 1491 OFFCURVE",
"427 1491 CURVE SMOOTH",
"327 1491 OFFCURVE",
"250.67 1454.33 OFFCURVE",
"198 1381 CURVE SMOOTH",
"145.33 1307.67 OFFCURVE",
"119 1218.67 OFFCURVE",
"119 1114 CURVE SMOOTH"
);
},
{
closed = 1;
nodes = (
"476.67 1367 OFFCURVE",
"514 1347.83 OFFCURVE",
"544 1309.5 CURVE SMOOTH",
"574 1271.17 OFFCURVE",
"589 1204.67 OFFCURVE",
"589 1110 CURVE SMOOTH",
"589 1007.33 OFFCURVE",
"574.17 936.67 OFFCURVE",
"544.5 898 CURVE SMOOTH",
"514.83 859.33 OFFCURVE",
"477.33 840 OFFCURVE",
"432 840 CURVE SMOOTH",
"388 840 OFFCURVE",
"351 859.17 OFFCURVE",
"321 897.5 CURVE SMOOTH",
"291 935.83 OFFCURVE",
"276 1002 OFFCURVE",
"276 1096 CURVE SMOOTH",
"276 1199.33 OFFCURVE",
"290.83 1270.33 OFFCURVE",
"320.5 1309 CURVE SMOOTH",
"350.17 1347.67 OFFCURVE",
"387.33 1367 OFFCURVE",
"432 1367 CURVE SMOOTH"
);
},
{
closed = 1;
nodes = (
"433 -54 LINE",
"582 -54 LINE",
"1381 1491 LINE",
"1235 1491 LINE"
);
},
{
closed = 1;
nodes = (
"1067 211.33 OFFCURVE",
"1096.5 111.83 OFFCURVE",
"1155.5 45.5 CURVE SMOOTH",
"1214.5 -20.83 OFFCURVE",
"1288.33 -54 OFFCURVE",
"1377 -54 CURVE SMOOTH",
"1467 -54 OFFCURVE",
"1542.5 -20.5 OFFCURVE",
"1603.5 46.5 CURVE SMOOTH",
"1664.5 113.5 OFFCURVE",
"1695 209 OFFCURVE",
"1695 333 CURVE SMOOTH",
"1695 460.33 OFFCURVE",
"1664.83 556.83 OFFCURVE",
"1604.5 622.5 CURVE SMOOTH",
"1544.17 688.17 OFFCURVE",
"1468 721 OFFCURVE",
"1376 721 CURVE SMOOTH",
"1275.33 721 OFFCURVE",
"1198.67 684.5 OFFCURVE",
"1146 611.5 CURVE SMOOTH",
"1093.33 538.5 OFFCURVE",
"1067 449.33 OFFCURVE",
"1067 344 CURVE SMOOTH"
);
},
{
closed = 1;
nodes = (
"1425.67 597 OFFCURVE",
"1463 577.83 OFFCURVE",
"1493 539.5 CURVE SMOOTH",
"1523 501.17 OFFCURVE",
"1538 434.67 OFFCURVE",
"1538 340 CURVE SMOOTH",
"1538 237.33 OFFCURVE",
"1523.17 166.67 OFFCURVE",
"1493.5 128 CURVE SMOOTH",
"1463.83 89.33 OFFCURVE",
"1426 70 OFFCURVE",
"1380 70 CURVE SMOOTH",
"1336 70 OFFCURVE",
"1299 89.33 OFFCURVE",
"1269 128 CURVE SMOOTH",
"1239 166.67 OFFCURVE",
"1224 232.67 OFFCURVE",
"1224 326 CURVE SMOOTH",
"1224 429.33 OFFCURVE",
"1238.83 500.33 OFFCURVE",
"1268.5 539 CURVE SMOOTH",
"1298.17 577.67 OFFCURVE",
"1335.67 597 OFFCURVE",
"1381 597 CURVE SMOOTH"
);
}
);
width = 1821;
}
);
note = percent;
unicode = 0025;
},
{
glyphname = ampersand;
lastChange = "2018-11-05 04:35:17 +0000";
layers = (
{
layerId = "91004FFB-2E8A-4290-ADD0-E71DD0A9BF8D";
paths = (
{
closed = 1;
nodes = (
"1050.33 81.67 OFFCURVE",
"1125.33 12.67 OFFCURVE",
"1198 -34 CURVE",
"1319 109 LINE",
"1233.67 169.67 OFFCURVE",
"1157.33 244.67 OFFCURVE",
"1090 334 CURVE",
"1144.67 416.67 OFFCURVE",
"1188 522 OFFCURVE",
"1220 650 CURVE",
"1033 690 LINE",
"1016.33 612.67 OFFCURVE",
"993 544.67 OFFCURVE",
"963 486 CURVE",
"700 821 LINE",
"884.67 919.67 OFFCURVE",
"977 1038.67 OFFCURVE",
"977 1178 CURVE SMOOTH",
"977 1264 OFFCURVE",
"945.17 1337.67 OFFCURVE",
"881.5 1399 CURVE SMOOTH",
"817.83 1460.33 OFFCURVE",
"736 1491 OFFCURVE",
"636 1491 CURVE SMOOTH",
"531.33 1491 OFFCURVE",
"444.5 1458.5 OFFCURVE",
"375.5 1393.5 CURVE SMOOTH",
"306.5 1328.5 OFFCURVE",
"272 1252 OFFCURVE",
"272 1164 CURVE SMOOTH",
"272 1120 OFFCURVE",
"283 1074.33 OFFCURVE",
"305 1027 CURVE SMOOTH",
"327 979.67 OFFCURVE",
"371 918 OFFCURVE",
"437 842 CURVE",
"321 786.67 OFFCURVE",
"233.83 722.5 OFFCURVE",
"175.5 649.5 CURVE SMOOTH",
"117.17 576.5 OFFCURVE",
"88 494.67 OFFCURVE",
"88 404 CURVE SMOOTH",
"88 302 OFFCURVE",
"123.67 209.67 OFFCURVE",
"195 127 CURVE SMOOTH",
"283 25.67 OFFCURVE",
"402 -25 OFFCURVE",
"552 -25 CURVE SMOOTH",
"633.33 -25 OFFCURVE",
"709 -8.5 OFFCURVE",
"779 24.5 CURVE SMOOTH",
"849 57.5 OFFCURVE",
"913.67 107 OFFCURVE",
"973 173 CURVE"
);
},
{
closed = 1;
nodes = (
"527 1030 LINE SMOOTH",
"503.67 1058 OFFCURVE",
"486.17 1084.5 OFFCURVE",
"474.5 1109.5 CURVE SMOOTH",
"462.83 1134.5 OFFCURVE",
"457 1158.33 OFFCURVE",
"457 1181 CURVE SMOOTH",
"457 1226.33 OFFCURVE",
"473.17 1264.67 OFFCURVE",
"505.5 1296 CURVE SMOOTH",
"537.83 1327.33 OFFCURVE",
"578.33 1343 OFFCURVE",
"627 1343 CURVE SMOOTH",
"674.33 1343 OFFCURVE",
"713.83 1327.17 OFFCURVE",
"745.5 1295.5 CURVE SMOOTH",
"777.17 1263.83 OFFCURVE",
"793 1223 OFFCURVE",
"793 1173 CURVE SMOOTH",
"793 1131 OFFCURVE",
"781.5 1092.67 OFFCURVE",
"758.5 1058 CURVE SMOOTH",
"735.5 1023.33 OFFCURVE",
"685 983 OFFCURVE",
"607 937 CURVE"
);
},
{
closed = 1;
nodes = (
"860 315 LINE",
"825.33 261.67 OFFCURVE",
"779.17 218.17 OFFCURVE",
"721.5 184.5 CURVE SMOOTH",
"663.83 150.83 OFFCURVE",
"608 134 OFFCURVE",
"554 134 CURVE SMOOTH",
"467.33 134 OFFCURVE",
"400.33 166 OFFCURVE",
"353 230 CURVE SMOOTH",
"305.67 294 OFFCURVE",
"282 355.67 OFFCURVE",
"282 415 CURVE SMOOTH",
"282 463.67 OFFCURVE",
"299 512.83 OFFCURVE",
"333 562.5 CURVE SMOOTH",
"367 612.17 OFFCURVE",
"432.67 666 OFFCURVE",
"530 724 CURVE"
);
}
);
width = 1366;
}
);
note = ampersand;
unicode = 0026;
},
{
glyphname = quotesingle;
lastChange = "2018-11-05 04:35:17 +0000";
layers = (
{
layerId = "91004FFB-2E8A-4290-ADD0-E71DD0A9BF8D";
paths = (
{
closed = 1;
nodes = (
"136 947 LINE",
"247 947 LINE",
"295 1221 LINE",
"295 1466 LINE",
"90 1466 LINE",
"90 1221 LINE"
);
}
);
width = 391;
}
);
note = quotesingle;
unicode = 0027;
},
{
glyphname = parenleft;
lastChange = "2018-11-05 04:35:17 +0000";
layers = (
{
layerId = "91004FFB-2E8A-4290-ADD0-E71DD0A9BF8D";
paths = (
{
closed = 1;
nodes = (
"608 -431 LINE",
"408.67 -111 OFFCURVE",
"309 209.33 OFFCURVE",
"309 530 CURVE SMOOTH",
"309 656 OFFCURVE",
"323.33 781.33 OFFCURVE",
"352 906 CURVE SMOOTH",
"375.33 1006 OFFCURVE",
"407.33 1102 OFFCURVE",
"448 1194 CURVE SMOOTH",
"474 1253.33 OFFCURVE",
"527.33 1352.33 OFFCURVE",
"608 1491 CURVE",
"479 1491 LINE",
"353.67 1323.67 OFFCURVE",
"261 1155.67 OFFCURVE",
"201 987 CURVE SMOOTH",
"149.67 841.67 OFFCURVE",
"124 689.67 OFFCURVE",
"124 531 CURVE SMOOTH",
"124 351 OFFCURVE",
"158.33 177 OFFCURVE",
"227 9 CURVE SMOOTH",
"295.67 -159 OFFCURVE",
"379.67 -305.67 OFFCURVE",
"479 -431 CURVE"
);
}
);
width = 682;
}
);
note = parenleft;
unicode = 0028;
},
{
glyphname = parenright;
lastChange = "2018-11-05 04:35:17 +0000";
layers = (
{
layerId = "91004FFB-2E8A-4290-ADD0-E71DD0A9BF8D";
paths = (
{
closed = 1;
nodes = (
"253 -431 LINE",
"351.67 -305.67 OFFCURVE",
"435.5 -159 OFFCURVE",
"504.5 9 CURVE SMOOTH",
"573.5 177 OFFCURVE",
"608 351 OFFCURVE",
"608 531 CURVE SMOOTH",
"608 689.67 OFFCURVE",
"582.33 841.67 OFFCURVE",
"531 987 CURVE SMOOTH",
"471 1155.67 OFFCURVE",
"378.33 1323.67 OFFCURVE",
"253 1491 CURVE",
"124 1491 LINE",
"205.33 1351 OFFCURVE",
"259 1251 OFFCURVE",
"285 1191 CURVE SMOOTH",
"325.67 1099 OFFCURVE",
"357.33 1003 OFFCURVE",
"380 903 CURVE SMOOTH",
"408.67 779.67 OFFCURVE",
"423 655.33 OFFCURVE",
"423 530 CURVE SMOOTH",
"423 209.33 OFFCURVE",
"323.33 -111 OFFCURVE",
"124 -431 CURVE"
);
}
);
width = 682;
}
);
note = parenright;
unicode = 0029;
},
{
glyphname = asterisk;
lastChange = "2018-11-05 04:35:17 +0000";
layers = (
{
layerId = "91004FFB-2E8A-4290-ADD0-E71DD0A9BF8D";
paths = (
{
closed = 1;
nodes = (
"64 1197 LINE",
"141.33 1176.33 OFFCURVE",
"223 1157.67 OFFCURVE",
"309 1141 CURVE",
"275.67 1110.33 OFFCURVE",
"220.33 1047.33 OFFCURVE",
"143 952 CURVE",
"261 867 LINE",
"298.33 916.33 OFFCURVE",
"341.67 988 OFFCURVE",
"391 1082 CURVE",
"443.67 991.33 OFFCURVE",
"489.33 919.67 OFFCURVE",
"528 867 CURVE",
"648 952 LINE",
"574 1042.67 OFFCURVE",
"516.67 1105.67 OFFCURVE",
"476 1141 CURVE",
"557.33 1150.33 OFFCURVE",
"640.33 1169 OFFCURVE",
"725 1197 CURVE",
"679 1339 LINE",
"590.33 1309.67 OFFCURVE",
"511.67 1277.67 OFFCURVE",
"443 1243 CURVE",
"456.33 1342.33 OFFCURVE",
"464 1425 OFFCURVE",
"466 1491 CURVE",
"321 1491 LINE",
"321.67 1445.67 OFFCURVE",
"328.33 1362.67 OFFCURVE",
"341 1242 CURVE",
"293 1269.33 OFFCURVE",
"216 1301.67 OFFCURVE",
"110 1339 CURVE"
);
}
);
width = 797;
}
);
note = asterisk;
unicode = 002A;
},
{
glyphname = plus;
lastChange = "2018-11-05 04:35:17 +0000";
layers = (
{
layerId = "91004FFB-2E8A-4290-ADD0-E71DD0A9BF8D";
paths = (
{
closed = 1;
nodes = (
"513 237 LINE",
"683 237 LINE",
"683 639 LINE",
"1082 639 LINE",
"1082 807 LINE",
"683 807 LINE",
"683 1206 LINE",
"513 1206 LINE",
"513 807 LINE",
"114 807 LINE",
"114 639 LINE",
"513 639 LINE"
);
}
);
width = 1196;
}
);
note = plus;
unicode = 002B;
},
{
glyphname = comma;
lastChange = "2018-11-05 04:35:17 +0000";
layers = (
{
layerId = "91004FFB-2E8A-4290-ADD0-E71DD0A9BF8D";
paths = (
{
closed = 1;
nodes = (
"182 0 LINE",
"284 0 LINE",
"282 -60.67 OFFCURVE",
"272 -107.17 OFFCURVE",
"254 -139.5 CURVE SMOOTH",
"236 -171.83 OFFCURVE",
"208 -196.33 OFFCURVE",
"170 -213 CURVE",
"220 -290 LINE",
"278 -264.67 OFFCURVE",
"320.33 -228.83 OFFCURVE",
"347 -182.5 CURVE SMOOTH",
"373.67 -136.17 OFFCURVE",
"387 -75.33 OFFCURVE",
"387 0 CURVE SMOOTH",
"387 205 LINE",
"182 205 LINE"
);
}
);
width = 569;
}
);
note = comma;
unicode = 002C;
},
{
glyphname = hyphen;
lastChange = "2018-11-05 04:35:17 +0000";
layers = (
{
layerId = "91004FFB-2E8A-4290-ADD0-E71DD0A9BF8D";
paths = (
{
closed = 1;
nodes = (
"65 440 LINE",
"618 440 LINE",
"618 621 LINE",
"65 621 LINE"
);
}
);
width = 682;
}
);
note = hyphen;
unicode = "002D,00AD";
},
{
glyphname = period;
lastChange = "2018-11-05 04:35:17 +0000";
layers = (
{
layerId = "91004FFB-2E8A-4290-ADD0-E71DD0A9BF8D";
paths = (
{
closed = 1;
nodes = (
"186 0 LINE",
"391 0 LINE",
"391 205 LINE",
"186 205 LINE"
);
}
);
width = 569;
}
);
note = period;
unicode = 002E;
},
{
glyphname = slash;
lastChange = "2018-11-05 04:35:17 +0000";
layers = (
{
layerId = "91004FFB-2E8A-4290-ADD0-E71DD0A9BF8D";
paths = (
{
closed = 1;
nodes = (
"0 -25 LINE",
"145 -25 LINE",
"569 1491 LINE",
"425 1491 LINE"
);
}
);
width = 569;
}
);
note = slash;
unicode = 002F;
},
{
glyphname = zero;
lastChange = "2018-11-05 04:35:17 +0000";
layers = (
{
layerId = "91004FFB-2E8A-4290-ADD0-E71DD0A9BF8D";
paths = (
{
closed = 1;
nodes = (
"85 447.67 OFFCURVE",
"133.33 249 OFFCURVE",
"230 127 CURVE SMOOTH",
"310.67 25.67 OFFCURVE",
"421.67 -25 OFFCURVE",
"563 -25 CURVE SMOOTH",
"670.33 -25 OFFCURVE",
"759.17 3.83 OFFCURVE",
"829.5 61.5 CURVE SMOOTH",
"899.83 119.17 OFFCURVE",
"952.67 200.83 OFFCURVE",
"988 306.5 CURVE SMOOTH",
"1023.33 412.17 OFFCURVE",
"1041 551 OFFCURVE",
"1041 723 CURVE SMOOTH",
"1041 868.33 OFFCURVE",
"1030 983.83 OFFCURVE",
"1008 1069.5 CURVE SMOOTH",
"986 1155.17 OFFCURVE",
"955.67 1227.83 OFFCURVE",
"917 1287.5 CURVE SMOOTH",
"878.33 1347.17 OFFCURVE",
"829.33 1392.83 OFFCURVE",
"770 1424.5 CURVE SMOOTH",
"710.67 1456.17 OFFCURVE",
"641.67 1472 OFFCURVE",
"563 1472 CURVE SMOOTH",
"456.33 1472 OFFCURVE",
"367.83 1443.33 OFFCURVE",
"297.5 1386 CURVE SMOOTH",
"227.17 1328.67 OFFCURVE",
"174.17 1247.17 OFFCURVE",
"138.5 1141.5 CURVE SMOOTH",
"102.83 1035.83 OFFCURVE",
"85 896.33 OFFCURVE",
"85 723 CURVE SMOOTH"
);
},
{
closed = 1;
nodes = (
"270 963.67 OFFCURVE",
"301 1128.67 OFFCURVE",
"363 1218 CURVE SMOOTH",
"412.33 1288 OFFCURVE",
"478.33 1323 OFFCURVE",
"561 1323 CURVE SMOOTH",
"645 1323 OFFCURVE",
"715.17 1283.33 OFFCURVE",
"771.5 1204 CURVE SMOOTH",
"827.83 1124.67 OFFCURVE",
"856 964.33 OFFCURVE",
"856 723 CURVE SMOOTH",
"856 483 OFFCURVE",
"827.83 323 OFFCURVE",
"771.5 243 CURVE SMOOTH",
"715.17 163 OFFCURVE",
"645.67 123 OFFCURVE",
"563 123 CURVE SMOOTH",
"480.33 123 OFFCURVE",
"410.83 162.83 OFFCURVE",
"354.5 242.5 CURVE SMOOTH",
"298.17 322.17 OFFCURVE",
"270 482.33 OFFCURVE",
"270 723 CURVE SMOOTH"
);
}
);
width = 1139;
}
);
note = zero;
unicode = 0030;
},
{
glyphname = one;
lastChange = "2018-11-05 04:35:17 +0000";
layers = (
{
layerId = "91004FFB-2E8A-4290-ADD0-E71DD0A9BF8D";
paths = (
{
closed = 1;
nodes = (
"763 0 LINE",
"763 1472 LINE",
"647 1472 LINE",
"615.67 1408.67 OFFCURVE",
"562.33 1343.33 OFFCURVE",
"487 1276 CURVE SMOOTH",
"411.67 1208.67 OFFCURVE",
"323.67 1151.33 OFFCURVE",
"223 1104 CURVE",
"223 930 LINE",
"279 950.67 OFFCURVE",
"342.17 981.67 OFFCURVE",
"412.5 1023 CURVE SMOOTH",
"482.83 1064.33 OFFCURVE",
"539.67 1105.67 OFFCURVE",
"583 1147 CURVE",
"583 0 LINE"
);
}
);
width = 1139;
}
);
note = one;
unicode = 0031;
},
{
glyphname = two;
lastChange = "2018-11-05 04:35:17 +0000";
layers = (
{
layerId = "91004FFB-2E8A-4290-ADD0-E71DD0A9BF8D";
paths = (
{
closed = 1;
nodes = (
"1031 173 LINE",
"312 173 LINE",
"332 205.67 OFFCURVE",
"357.33 238.17 OFFCURVE",
"388 270.5 CURVE SMOOTH",
"418.67 302.83 OFFCURVE",
"488 364.33 OFFCURVE",
"596 455 CURVE SMOOTH",
"725.33 564.33 OFFCURVE",
"817.83 650.33 OFFCURVE",
"873.5 713 CURVE SMOOTH",
"929.17 775.67 OFFCURVE",
"969 835.33 OFFCURVE",
"993 892 CURVE SMOOTH",
"1017 948.67 OFFCURVE",
"1029 1006.33 OFFCURVE",
"1029 1065 CURVE SMOOTH",
"1029 1180.33 OFFCURVE",
"988 1277 OFFCURVE",
"906 1355 CURVE SMOOTH",
"824 1433 OFFCURVE",
"712.67 1472 OFFCURVE",
"572 1472 CURVE SMOOTH",
"432.67 1472 OFFCURVE",
"321.67 1435.83 OFFCURVE",
"239 1363.5 CURVE SMOOTH",
"156.33 1291.17 OFFCURVE",
"108.67 1186 OFFCURVE",
"96 1048 CURVE",
"281 1029 LINE",
"281.67 1121 OFFCURVE",
"308 1193 OFFCURVE",
"360 1245 CURVE SMOOTH",
"412 1297 OFFCURVE",
"481.33 1323 OFFCURVE",
"568 1323 CURVE SMOOTH",
"650 1323 OFFCURVE",
"716.5 1298.5 OFFCURVE",
"767.5 1249.5 CURVE SMOOTH",
"818.5 1200.5 OFFCURVE",
"844 1140.33 OFFCURVE",
"844 1069 CURVE SMOOTH",
"844 1001 OFFCURVE",
"816 928.83 OFFCURVE",
"760 852.5 CURVE SMOOTH",
"704 776.17 OFFCURVE",
"596.33 672.67 OFFCURVE",
"437 542 CURVE SMOOTH",
"334.33 458 OFFCURVE",
"255.83 384 OFFCURVE",
"201.5 320 CURVE SMOOTH",
"147.17 256 OFFCURVE",
"107.67 191 OFFCURVE",
"83 125 CURVE SMOOTH",
"67.67 85 OFFCURVE",
"60.67 43.33 OFFCURVE",
"62 0 CURVE",
"1031 0 LINE"
);
}
);
width = 1139;
}
);
note = two;
unicode = 0032;
},
{
glyphname = three;
lastChange = "2018-11-05 04:35:17 +0000";
layers = (
{
layerId = "91004FFB-2E8A-4290-ADD0-E71DD0A9BF8D";
paths = (
{
closed = 1;
nodes = (
"86 387 LINE",
"98 265 OFFCURVE",
"146.5 165.67 OFFCURVE",
"231.5 89 CURVE SMOOTH",
"316.5 12.33 OFFCURVE",
"423.33 -26 OFFCURVE",
"552 -26 CURVE SMOOTH",
"694.67 -26 OFFCURVE",
"812.67 18.5 OFFCURVE",
"906 107.5 CURVE SMOOTH",
"999.33 196.5 OFFCURVE",
"1046 305 OFFCURVE",
"1046 433 CURVE SMOOTH",
"1046 527.67 OFFCURVE",
"1022 606.5 OFFCURVE",
"974 669.5 CURVE SMOOTH",
"926 732.5 OFFCURVE",
"858.67 774 OFFCURVE",
"772 794 CURVE",
"838.67 824.67 OFFCURVE",
"889 866 OFFCURVE",
"923 918 CURVE SMOOTH",
"957 970 OFFCURVE",
"974 1027.67 OFFCURVE",
"974 1091 CURVE SMOOTH",
"974 1157.67 OFFCURVE",
"956.17 1220.67 OFFCURVE",
"920.5 1280 CURVE SMOOTH",
"884.83 1339.33 OFFCURVE",
"833.33 1386.17 OFFCURVE",
"766 1420.5 CURVE SMOOTH",
"698.67 1454.83 OFFCURVE",
"625 1472 OFFCURVE",
"545 1472 CURVE SMOOTH",
"429 1472 OFFCURVE",
"332 1438.83 OFFCURVE",
"254 1372.5 CURVE SMOOTH",
"176 1306.17 OFFCURVE",
"126 1212.67 OFFCURVE",
"104 1092 CURVE",
"284 1060 LINE",
"297.33 1148 OFFCURVE",
"327.33 1214 OFFCURVE",
"374 1258 CURVE SMOOTH",
"420.67 1302 OFFCURVE",
"479 1324 OFFCURVE",
"549 1324 CURVE SMOOTH",
"619.67 1324 OFFCURVE",
"677.33 1302.33 OFFCURVE",
"722 1259 CURVE SMOOTH",
"766.67 1215.67 OFFCURVE",
"789 1161 OFFCURVE",
"789 1095 CURVE SMOOTH",
"789 1011.67 OFFCURVE",
"758.33 950 OFFCURVE",
"697 910 CURVE SMOOTH",
"635.67 870 OFFCURVE",
"566.67 850 OFFCURVE",
"490 850 CURVE SMOOTH",
"482.67 850 OFFCURVE",
"473 850.67 OFFCURVE",
"461 852 CURVE",
"441 694 LINE",
"491.67 707.33 OFFCURVE",
"534 714 OFFCURVE",
"568 714 CURVE SMOOTH",
"651.33 714 OFFCURVE",
"720 687.17 OFFCURVE",
"774 633.5 CURVE SMOOTH",
"828 579.83 OFFCURVE",
"855 511.67 OFFCURVE",
"855 429 CURVE SMOOTH",
"855 342.33 OFFCURVE",
"825.83 269.67 OFFCURVE",
"767.5 211 CURVE SMOOTH",
"709.17 152.33 OFFCURVE",
"637.67 123 OFFCURVE",
"553 123 CURVE SMOOTH",
"481.67 123 OFFCURVE",
"421.17 145.5 OFFCURVE",
"371.5 190.5 CURVE SMOOTH",
"321.83 235.5 OFFCURVE",
"286.67 309 OFFCURVE",
"266 411 CURVE"
);
}
);
width = 1139;
}
);
note = three;
unicode = 0033;
},
{
glyphname = four;
lastChange = "2018-11-05 04:35:17 +0000";
layers = (
{
layerId = "91004FFB-2E8A-4290-ADD0-E71DD0A9BF8D";
paths = (
{
closed = 1;
nodes = (
"662 0 LINE",
"842 0 LINE",
"842 351 LINE",
"1040 351 LINE",
"1040 516 LINE",
"842 516 LINE",
"842 1466 LINE",
"695 1466 LINE",
"26 516 LINE",
"26 351 LINE",
"662 351 LINE"
);
},
{
closed = 1;
nodes = (
"662 516 LINE",
"203 516 LINE",
"662 1177 LINE"
);
}
);
width = 1139;
}
);
note = four;
unicode = 0034;
},
{
glyphname = five;
lastChange = "2018-11-05 04:35:17 +0000";
layers = (
{
layerId = "91004FFB-2E8A-4290-ADD0-E71DD0A9BF8D";
paths = (
{
closed = 1;
nodes = (
"85 384 LINE",
"97 260.67 OFFCURVE",
"145.17 161.67 OFFCURVE",
"229.5 87 CURVE SMOOTH",
"313.83 12.33 OFFCURVE",
"422.67 -25 OFFCURVE",
"556 -25 CURVE SMOOTH",
"718.67 -25 OFFCURVE",
"847 34.33 OFFCURVE",
"941 153 CURVE SMOOTH",
"1018.33 249.67 OFFCURVE",
"1057 364.33 OFFCURVE",
"1057 497 CURVE SMOOTH",
"1057 636.33 OFFCURVE",
"1013 750.33 OFFCURVE",
"925 839 CURVE SMOOTH",
"837 927.67 OFFCURVE",
"729 972 OFFCURVE",
"601 972 CURVE SMOOTH",
"504.33 972 OFFCURVE",
"412 941.33 OFFCURVE",
"324 880 CURVE",
"403 1274 LINE",
"988 1274 LINE",
"988 1446 LINE",
"259 1446 LINE",
"117 693 LINE",
"286 671 LINE",
"312.67 713 OFFCURVE",
"349.33 747.17 OFFCURVE",
"396 773.5 CURVE SMOOTH",
"442.67 799.83 OFFCURVE",
"495 813 OFFCURVE",
"553 813 CURVE SMOOTH",
"646.33 813 OFFCURVE",
"721.83 783.33 OFFCURVE",
"779.5 724 CURVE SMOOTH",
"837.17 664.67 OFFCURVE",
"866 583.67 OFFCURVE",
"866 481 CURVE SMOOTH",
"866 373 OFFCURVE",
"836 286.33 OFFCURVE",
"776 221 CURVE SMOOTH",
"716 155.67 OFFCURVE",
"642.67 123 OFFCURVE",
"556 123 CURVE SMOOTH",
"484 123 OFFCURVE",
"422.5 146.17 OFFCURVE",
"371.5 192.5 CURVE SMOOTH",
"320.5 238.83 OFFCURVE",
"288 308 OFFCURVE",
"274 400 CURVE"
);
}
);
width = 1139;
}
);
note = five;
unicode = 0035;
},
{
glyphname = six;
lastChange = "2018-11-05 04:35:17 +0000";
layers = (
{
layerId = "91004FFB-2E8A-4290-ADD0-E71DD0A9BF8D";
paths = (
{
closed = 1;
nodes = (
"1019 1107 LINE",
"1004.33 1221 OFFCURVE",
"960.17 1310.33 OFFCURVE",
"886.5 1375 CURVE SMOOTH",
"812.83 1439.67 OFFCURVE",
"718.33 1472 OFFCURVE",
"603 1472 CURVE SMOOTH",
"448.33 1472 OFFCURVE",
"325.33 1416 OFFCURVE",
"234 1304 CURVE SMOOTH",
"129.33 1175.33 OFFCURVE",
"77 969.33 OFFCURVE",
"77 686 CURVE SMOOTH",
"77 432.67 OFFCURVE",
"124.33 250.83 OFFCURVE",
"219 140.5 CURVE SMOOTH",
"313.67 30.17 OFFCURVE",
"436 -25 OFFCURVE",
"586 -25 CURVE SMOOTH",
"674 -25 OFFCURVE",
"752.67 -4 OFFCURVE",
"822 38 CURVE SMOOTH",
"891.33 80 OFFCURVE",
"945.83 140.5 OFFCURVE",
"985.5 219.5 CURVE SMOOTH",
"1025.17 298.5 OFFCURVE",
"1045 384 OFFCURVE",
"1045 476 CURVE SMOOTH",
"1045 616 OFFCURVE",
"1002.83 730.17 OFFCURVE",
"918.5 818.5 CURVE SMOOTH",
"834.17 906.83 OFFCURVE",
"732 951 OFFCURVE",
"612 951 CURVE SMOOTH",
"543.33 951 OFFCURVE",
"477.67 935 OFFCURVE",
"415 903 CURVE SMOOTH",
"352.33 871 OFFCURVE",
"299.33 822 OFFCURVE",
"256 756 CURVE",
"257.33 902.67 OFFCURVE",
"274.33 1015.67 OFFCURVE",
"307 1095 CURVE SMOOTH",
"339.67 1174.33 OFFCURVE",
"384.33 1234.67 OFFCURVE",
"441 1276 CURVE SMOOTH",
"484.33 1308 OFFCURVE",
"534.67 1324 OFFCURVE",
"592 1324 CURVE SMOOTH",
"663.33 1324 OFFCURVE",
"723.33 1298.33 OFFCURVE",
"772 1247 CURVE SMOOTH",
"801.33 1215 OFFCURVE",
"824 1163.67 OFFCURVE",
"840 1093 CURVE"
);
},
{
closed = 1;
nodes = (
"284 569.67 OFFCURVE",
"312.33 646.17 OFFCURVE",
"369 704.5 CURVE SMOOTH",
"425.67 762.83 OFFCURVE",
"494.67 792 OFFCURVE",
"576 792 CURVE SMOOTH",
"658 792 OFFCURVE",
"726 762.83 OFFCURVE",
"780 704.5 CURVE SMOOTH",
"834 646.17 OFFCURVE",
"861 566.33 OFFCURVE",
"861 465 CURVE SMOOTH",
"861 359.67 OFFCURVE",
"833.67 276.33 OFFCURVE",
"779 215 CURVE SMOOTH",
"724.33 153.67 OFFCURVE",
"659 123 OFFCURVE",
"583 123 CURVE SMOOTH",
"531 123 OFFCURVE",
"481.33 137.83 OFFCURVE",
"434 167.5 CURVE SMOOTH",
"386.67 197.17 OFFCURVE",
"349.83 240.33 OFFCURVE",
"323.5 297 CURVE SMOOTH",
"297.17 353.67 OFFCURVE",
"284 413 OFFCURVE",
"284 475 CURVE SMOOTH"
);
}
);
width = 1139;
}
);
note = six;
unicode = 0036;
},
{
glyphname = seven;
lastChange = "2018-11-05 04:35:17 +0000";
layers = (
{
layerId = "91004FFB-2E8A-4290-ADD0-E71DD0A9BF8D";
paths = (
{
closed = 1;
nodes = (
"97 1274 LINE",
"815 1274 LINE",
"723.67 1170 OFFCURVE",
"637.5 1042.17 OFFCURVE",
"556.5 890.5 CURVE SMOOTH",
"475.5 738.83 OFFCURVE",
"413.33 581.33 OFFCURVE",
"370 418 CURVE SMOOTH",
"326.67 254.67 OFFCURVE",
"304 115.33 OFFCURVE",
"302 0 CURVE",
"487 0 LINE",
"497 146 OFFCURVE",
"520 280.33 OFFCURVE",
"556 403 CURVE SMOOTH",
"606 577 OFFCURVE",
"676.83 746.33 OFFCURVE",
"768.5 911 CURVE SMOOTH",
"860.17 1075.67 OFFCURVE",
"952.67 1207.67 OFFCURVE",
"1046 1307 CURVE",
"1046 1447 LINE",
"97 1447 LINE"
);
}
);
width = 1139;
}
);
note = seven;
unicode = 0037;
},
{
glyphname = eight;
lastChange = "2018-11-05 04:35:17 +0000";
layers = (
{
layerId = "91004FFB-2E8A-4290-ADD0-E71DD0A9BF8D";
paths = (
{
closed = 1;
nodes = (
"272.67 771.67 OFFCURVE",
"203.83 727.83 OFFCURVE",
"155.5 663.5 CURVE SMOOTH",
"107.17 599.17 OFFCURVE",
"83 519.33 OFFCURVE",
"83 424 CURVE SMOOTH",
"83 296 OFFCURVE",
"127.33 189.17 OFFCURVE",
"216 103.5 CURVE SMOOTH",
"304.67 17.83 OFFCURVE",
"421.33 -25 OFFCURVE",
"566 -25 CURVE SMOOTH",
"710.67 -25 OFFCURVE",
"827.33 17.67 OFFCURVE",
"916 103 CURVE SMOOTH",
"1004.67 188.33 OFFCURVE",
"1049 293.67 OFFCURVE",
"1049 419 CURVE SMOOTH",
"1049 509.67 OFFCURVE",
"1025.5 587.67 OFFCURVE",
"978.5 653 CURVE SMOOTH",
"931.5 718.33 OFFCURVE",
"863 765.67 OFFCURVE",
"773 795 CURVE",
"845.67 822.33 OFFCURVE",
"899.83 861.17 OFFCURVE",
"935.5 911.5 CURVE SMOOTH",
"971.17 961.83 OFFCURVE",
"989 1021 OFFCURVE",
"989 1089 CURVE SMOOTH",
"989 1195.67 OFFCURVE",
"950 1286.17 OFFCURVE",
"872 1360.5 CURVE SMOOTH",
"794 1434.83 OFFCURVE",
"691 1472 OFFCURVE",
"563 1472 CURVE SMOOTH",
"435.67 1472 OFFCURVE",
"333.67 1435.67 OFFCURVE",
"257 1363 CURVE SMOOTH",
"180.33 1290.33 OFFCURVE",
"142 1200.67 OFFCURVE",
"142 1094 CURVE SMOOTH",
"142 1023.33 OFFCURVE",
"160 962.67 OFFCURVE",
"196 912 CURVE SMOOTH",
"232 861.33 OFFCURVE",
"287.33 822.33 OFFCURVE",
"362 795 CURVE"
);
},
{
closed = 1;
nodes = (
"326 1161.33 OFFCURVE",
"348.67 1214 OFFCURVE",
"394 1258 CURVE SMOOTH",
"439.33 1302 OFFCURVE",
"496.33 1324 OFFCURVE",
"565 1324 CURVE SMOOTH",
"633 1324 OFFCURVE",
"689.83 1301.5 OFFCURVE",
"735.5 1256.5 CURVE SMOOTH",
"781.17 1211.5 OFFCURVE",
"804 1156 OFFCURVE",
"804 1090 CURVE SMOOTH",
"804 1026.67 OFFCURVE",
"781.83 973.17 OFFCURVE",
"737.5 929.5 CURVE SMOOTH",
"693.17 885.83 OFFCURVE",
"636.33 864 OFFCURVE",
"567 864 CURVE SMOOTH",
"495.67 864 OFFCURVE",
"437.67 886 OFFCURVE",
"393 930 CURVE SMOOTH",
"348.33 974 OFFCURVE",
"326 1030.67 OFFCURVE",
"326 1100 CURVE SMOOTH"
);
},
{
closed = 1;
nodes = (
"268 507 OFFCURVE",
"295.83 577 OFFCURVE",
"351.5 633 CURVE SMOOTH",
"407.17 689 OFFCURVE",
"477.33 717 OFFCURVE",
"562 717 CURVE SMOOTH",
"648.67 717 OFFCURVE",
"720.83 688.67 OFFCURVE",
"778.5 632 CURVE SMOOTH",
"836.17 575.33 OFFCURVE",
"865 503.67 OFFCURVE",
"865 417 CURVE SMOOTH",
"865 331.67 OFFCURVE",
"837 261.33 OFFCURVE",
"781 206 CURVE SMOOTH",
"725 150.67 OFFCURVE",
"654 123 OFFCURVE",
"568 123 CURVE SMOOTH",
"512.67 123 OFFCURVE",
"461 136.17 OFFCURVE",
"413 162.5 CURVE SMOOTH",
"365 188.83 OFFCURVE",
"328.83 226 OFFCURVE",
"304.5 274 CURVE SMOOTH",
"280.17 322 OFFCURVE",
"268 371.67 OFFCURVE",
"268 423 CURVE SMOOTH"
);
}
);
width = 1139;
}
);
note = eight;
unicode = 0038;
},
{
glyphname = nine;
lastChange = "2018-11-05 04:35:17 +0000";
layers = (
{
layerId = "91004FFB-2E8A-4290-ADD0-E71DD0A9BF8D";
paths = (
{
closed = 1;
nodes = (
"112 339 LINE",
"126.67 223.67 OFFCURVE",
"170.33 134.17 OFFCURVE",
"243 70.5 CURVE SMOOTH",
"315.67 6.83 OFFCURVE",
"409.33 -25 OFFCURVE",
"524 -25 CURVE SMOOTH",
"632 -25 OFFCURVE",
"726.17 4 OFFCURVE",
"806.5 62 CURVE SMOOTH",
"886.83 120 OFFCURVE",
"947.33 204.5 OFFCURVE",
"988 315.5 CURVE SMOOTH",
"1028.67 426.5 OFFCURVE",
"1049 575.67 OFFCURVE",
"1049 763 CURVE SMOOTH",
"1049 943 OFFCURVE",
"1028.5 1080.5 OFFCURVE",
"987.5 1175.5 CURVE SMOOTH",
"946.5 1270.5 OFFCURVE",
"886.5 1343.67 OFFCURVE",
"807.5 1395 CURVE SMOOTH",
"728.5 1446.33 OFFCURVE",
"641.33 1472 OFFCURVE",
"546 1472 CURVE SMOOTH",
"414 1472 OFFCURVE",
"304.17 1426.67 OFFCURVE",
"216.5 1336 CURVE SMOOTH",
"128.83 1245.33 OFFCURVE",
"85 1125.67 OFFCURVE",
"85 977 CURVE SMOOTH",
"85 833 OFFCURVE",
"127 717 OFFCURVE",
"211 629 CURVE SMOOTH",
"295 541 OFFCURVE",
"397.67 497 OFFCURVE",
"519 497 CURVE SMOOTH",
"591.67 497 OFFCURVE",
"659.17 514.83 OFFCURVE",
"721.5 550.5 CURVE SMOOTH",
"783.83 586.17 OFFCURVE",
"833 632.67 OFFCURVE",
"869 690 CURVE",
"869.67 674 OFFCURVE",
"870 662 OFFCURVE",
"870 654 CURVE SMOOTH",
"870 579.33 OFFCURVE",
"861 506 OFFCURVE",
"843 434 CURVE SMOOTH",
"825 362 OFFCURVE",
"802.67 304.83 OFFCURVE",
"776 262.5 CURVE SMOOTH",
"749.33 220.17 OFFCURVE",
"715.17 186.33 OFFCURVE",
"673.5 161 CURVE SMOOTH",
"631.83 135.67 OFFCURVE",
"583.33 123 OFFCURVE",
"528 123 CURVE SMOOTH",
"463.33 123 OFFCURVE",
"410.33 141.33 OFFCURVE",
"369 178 CURVE SMOOTH",
"327.67 214.67 OFFCURVE",
"299.67 273.67 OFFCURVE",
"285 355 CURVE"
);
},
{
closed = 1;
nodes = (
"849 882.67 OFFCURVE",
"822.17 801.83 OFFCURVE",
"768.5 743.5 CURVE SMOOTH",
"714.83 685.17 OFFCURVE",
"646.33 656 OFFCURVE",
"563 656 CURVE SMOOTH",
"480.33 656 OFFCURVE",
"410.83 685.17 OFFCURVE",
"354.5 743.5 CURVE SMOOTH",
"298.17 801.83 OFFCURVE",
"270 877.67 OFFCURVE",
"270 971 CURVE SMOOTH",
"270 1075 OFFCURVE",
"299.67 1159.67 OFFCURVE",
"359 1225 CURVE SMOOTH",
"418.33 1290.33 OFFCURVE",
"488 1323 OFFCURVE",
"568 1323 CURVE SMOOTH",
"645.33 1323 OFFCURVE",
"711.5 1292.67 OFFCURVE",
"766.5 1232 CURVE SMOOTH",
"821.5 1171.33 OFFCURVE",
"849 1089.33 OFFCURVE",
"849 986 CURVE SMOOTH"
);
}
);
width = 1139;
}
);
note = nine;
unicode = 0039;
},
{
glyphname = colon;
lastChange = "2018-11-05 04:35:17 +0000";
layers = (
{
layerId = "91004FFB-2E8A-4290-ADD0-E71DD0A9BF8D";
paths = (
{
closed = 1;
nodes = (
"185 857 LINE",
"390 857 LINE",
"390 1062 LINE",
"185 1062 LINE"
);
},
{
closed = 1;
nodes = (
"185 0 LINE",
"390 0 LINE",
"390 205 LINE",
"185 205 LINE"
);
}
);
width = 569;
}
);
note = colon;
unicode = 003A;
},
{
glyphname = semicolon;
lastChange = "2018-11-05 04:35:17 +0000";
layers = (
{
layerId = "91004FFB-2E8A-4290-ADD0-E71DD0A9BF8D";
paths = (
{
closed = 1;
nodes = (
"182 857 LINE",
"387 857 LINE",
"387 1062 LINE",
"182 1062 LINE"
);
},
{
closed = 1;
nodes = (
"182 0 LINE",
"284 0 LINE",
"282 -60.67 OFFCURVE",
"272 -107.17 OFFCURVE",
"254 -139.5 CURVE SMOOTH",
"236 -171.83 OFFCURVE",
"208 -196.33 OFFCURVE",
"170 -213 CURVE",
"220 -290 LINE",
"278 -264.67 OFFCURVE",
"320.33 -228.83 OFFCURVE",
"347 -182.5 CURVE SMOOTH",
"373.67 -136.17 OFFCURVE",
"387 -75.33 OFFCURVE",
"387 0 CURVE SMOOTH",
"387 205 LINE",
"182 205 LINE"
);
}
);
width = 569;
}
);
note = semicolon;
unicode = "003B,037E";
},
{
glyphname = less;
lastChange = "2018-11-05 04:35:17 +0000";
layers = (
{
layerId = "91004FFB-2E8A-4290-ADD0-E71DD0A9BF8D";
paths = (
{
closed = 1;
nodes = (
"112 641 LINE",
"1083 226 LINE",
"1083 405 LINE",
"313 724 LINE",
"1083 1040 LINE",
"1083 1219 LINE",
"112 809 LINE"
);
}
);
width = 1196;
}
);
note = less;
unicode = 003C;
},
{
glyphname = equal;
lastChange = "2018-11-05 04:35:17 +0000";
layers = (
{
layerId = "91004FFB-2E8A-4290-ADD0-E71DD0A9BF8D";
paths = (
{
closed = 1;
nodes = (
"1082 862 LINE",
"1082 1030 LINE",
"114 1030 LINE",
"114 862 LINE"
);
},
{
closed = 1;
nodes = (
"1082 417 LINE",
"1082 585 LINE",
"114 585 LINE",
"114 417 LINE"
);
}
);
width = 1196;
}
);
note = equal;
unicode = 003D;
},
{
glyphname = greater;
lastChange = "2018-11-05 04:35:17 +0000";
layers = (
{
layerId = "91004FFB-2E8A-4290-ADD0-E71DD0A9BF8D";
paths = (
{
closed = 1;
nodes = (
"1083 641 LINE",
"1083 809 LINE",
"112 1219 LINE",
"112 1040 LINE",
"881 724 LINE",
"112 405 LINE",
"112 226 LINE"
);
}
);
width = 1196;
}
);
note = greater;
unicode = 003E;
},
{
glyphname = question;
lastChange = "2018-11-05 04:35:17 +0000";
layers = (
{
layerId = "91004FFB-2E8A-4290-ADD0-E71DD0A9BF8D";
paths = (
{
closed = 1;
nodes = (
"645 361 LINE",
"646.33 433 OFFCURVE",
"651.33 485 OFFCURVE",
"660 517 CURVE SMOOTH",
"668.67 549 OFFCURVE",
"682 577.33 OFFCURVE",
"700 602 CURVE SMOOTH",
"718 626.67 OFFCURVE",
"756.33 665 OFFCURVE",
"815 717 CURVE SMOOTH",
"902.33 794.33 OFFCURVE",
"961 860 OFFCURVE",
"991 914 CURVE SMOOTH",
"1021 968 OFFCURVE",
"1036 1027 OFFCURVE",
"1036 1091 CURVE SMOOTH",
"1036 1201.67 OFFCURVE",
"993.33 1296 OFFCURVE",
"908 1374 CURVE SMOOTH",
"822.67 1452 OFFCURVE",
"708.33 1491 OFFCURVE",
"565 1491 CURVE SMOOTH",
"429.67 1491 OFFCURVE",
"320.83 1454.67 OFFCURVE",
"238.5 1382 CURVE SMOOTH",
"156.17 1309.33 OFFCURVE",
"106.67 1204.67 OFFCURVE",
"90 1068 CURVE",
"275 1046 LINE",
"291 1148 OFFCURVE",
"324.67 1223 OFFCURVE",
"376 1271 CURVE SMOOTH",
"427.33 1319 OFFCURVE",
"491.33 1343 OFFCURVE",
"568 1343 CURVE SMOOTH",
"647.33 1343 OFFCURVE",
"714.33 1316.5 OFFCURVE",
"769 1263.5 CURVE SMOOTH",
"823.67 1210.5 OFFCURVE",
"851 1149 OFFCURVE",
"851 1079 CURVE SMOOTH",
"851 1040.33 OFFCURVE",
"841.67 1004.67 OFFCURVE",
"823 972 CURVE SMOOTH",
"804.33 939.33 OFFCURVE",
"763.83 895.5 OFFCURVE",
"701.5 840.5 CURVE SMOOTH",
"639.17 785.5 OFFCURVE",
"596 743.67 OFFCURVE",
"572 715 CURVE SMOOTH",
"539.33 675.67 OFFCURVE",
"515.67 636.67 OFFCURVE",
"501 598 CURVE SMOOTH",
"481 546.67 OFFCURVE",
"471 485.67 OFFCURVE",
"471 415 CURVE SMOOTH",
"471 403 OFFCURVE",
"471.33 385 OFFCURVE",
"472 361 CURVE"
);
},
{
closed = 1;
nodes = (
"461 0 LINE",
"666 0 LINE",
"666 205 LINE",
"461 205 LINE"
);
}
);
width = 1139;
}
);
note = question;
unicode = 003F;
},
{
glyphname = at;
lastChange = "2018-11-05 04:35:17 +0000";
layers = (
{
layerId = "91004FFB-2E8A-4290-ADD0-E71DD0A9BF8D";
paths = (
{
closed = 1;
nodes = (
"1165 122.33 OFFCURVE",
"1171.33 93.67 OFFCURVE",
"1180 77 CURVE SMOOTH",
"1193.33 51 OFFCURVE",
"1214.17 31 OFFCURVE",
"1242.5 17 CURVE SMOOTH",
"1270.83 3 OFFCURVE",
"1308 -4 OFFCURVE",
"1354 -4 CURVE SMOOTH",
"1498 -4 OFFCURVE",
"1630.67 63.33 OFFCURVE",
"1752 198 CURVE SMOOTH",
"1888 348 OFFCURVE",
"1956 519.67 OFFCURVE",
"1956 713 CURVE SMOOTH",
"1956 848.33 OFFCURVE",
"1923.67 973.67 OFFCURVE",
"1859 1089 CURVE SMOOTH",
"1783 1223 OFFCURVE",
"1679.17 1323.83 OFFCURVE",
"1547.5 1391.5 CURVE SMOOTH",
"1415.83 1459.17 OFFCURVE",
"1267.33 1493 OFFCURVE",
"1102 1493 CURVE SMOOTH",
"888.67 1493 OFFCURVE",
"707.17 1445 OFFCURVE",
"557.5 1349 CURVE SMOOTH",
"407.83 1253 OFFCURVE",
"292.33 1114.67 OFFCURVE",
"211 934 CURVE SMOOTH",
"144.33 786.67 OFFCURVE",
"111 631.67 OFFCURVE",
"111 469 CURVE SMOOTH",
"111 323 OFFCURVE",
"139 187 OFFCURVE",
"195 61 CURVE SMOOTH",
"239.67 -38.33 OFFCURVE",
"306 -126.17 OFFCURVE",
"394 -202.5 CURVE SMOOTH",
"482 -278.83 OFFCURVE",
"588.5 -336 OFFCURVE",
"713.5 -374 CURVE SMOOTH",
"838.5 -412 OFFCURVE",
"975 -431 OFFCURVE",
"1123 -431 CURVE SMOOTH",
"1283.67 -431 OFFCURVE",
"1421 -409.83 OFFCURVE",
"1535 -367.5 CURVE SMOOTH",
"1649 -325.17 OFFCURVE",
"1747.33 -267.67 OFFCURVE",
"1830 -195 CURVE SMOOTH",
"1912.67 -122.33 OFFCURVE",
"1971 -51 OFFCURVE",
"2005 19 CURVE",
"1824 19 LINE",
"1765.33 -65 OFFCURVE",
"1677 -136.33 OFFCURVE",
"1559 -195 CURVE SMOOTH",
"1441 -253.67 OFFCURVE",
"1294.67 -283 OFFCURVE",
"1120 -283 CURVE SMOOTH",
"956.67 -283 OFFCURVE",
"807.83 -254.83 OFFCURVE",
"673.5 -198.5 CURVE SMOOTH",
"539.17 -142.17 OFFCURVE",
"436.5 -55 OFFCURVE",
"365.5 63 CURVE SMOOTH",
"294.5 181 OFFCURVE",
"259 321.67 OFFCURVE",
"259 485 CURVE SMOOTH",
"259 641 OFFCURVE",
"294.5 787.17 OFFCURVE",
"365.5 923.5 CURVE SMOOTH",
"436.5 1059.83 OFFCURVE",
"536.5 1164.5 OFFCURVE",
"665.5 1237.5 CURVE SMOOTH",
"794.5 1310.5 OFFCURVE",
"937 1347 OFFCURVE",
"1093 1347 CURVE SMOOTH",
"1229.67 1347 OFFCURVE",
"1354.5 1318 OFFCURVE",
"1467.5 1260 CURVE SMOOTH",
"1580.5 1202 OFFCURVE",
"1665.5 1124.67 OFFCURVE",
"1722.5 1028 CURVE SMOOTH",
"1779.5 931.33 OFFCURVE",
"1808 827.33 OFFCURVE",
"1808 716 CURVE SMOOTH",
"1808 620.67 OFFCURVE",
"1785.83 528.17 OFFCURVE",
"1741.5 438.5 CURVE SMOOTH",
"1697.17 348.83 OFFCURVE",
"1637 277.33 OFFCURVE",
"1561 224 CURVE SMOOTH",
"1503.67 183.33 OFFCURVE",
"1457.33 163 OFFCURVE",
"1422 163 CURVE SMOOTH",
"1402.67 163 OFFCURVE",
"1386.17 169.5 OFFCURVE",
"1372.5 182.5 CURVE SMOOTH",
"1358.83 195.5 OFFCURVE",
"1352 211 OFFCURVE",
"1352 229 CURVE SMOOTH",
"1352 239 OFFCURVE",
"1362 290.67 OFFCURVE",
"1382 384 CURVE SMOOTH",
"1526 1055 LINE",
"1347 1055 LINE",
"1313 900 LINE",
"1275 962 OFFCURVE",
"1229.67 1008.17 OFFCURVE",
"1177 1038.5 CURVE SMOOTH",
"1124.33 1068.83 OFFCURVE",
"1069 1084 OFFCURVE",
"1011 1084 CURVE SMOOTH",
"935 1084 OFFCURVE",
"856.67 1057.33 OFFCURVE",
"776 1004 CURVE SMOOTH",
"695.33 950.67 OFFCURVE",
"627.83 870.83 OFFCURVE",
"573.5 764.5 CURVE SMOOTH",
"519.17 658.17 OFFCURVE",
"492 552 OFFCURVE",
"492 446 CURVE SMOOTH",
"492 360 OFFCURVE",
"509.5 281 OFFCURVE",
"544.5 209 CURVE SMOOTH",
"579.5 137 OFFCURVE",
"625 83.67 OFFCURVE",
"681 49 CURVE SMOOTH",
"737 14.33 OFFCURVE",
"794.67 -3 OFFCURVE",
"854 -3 CURVE SMOOTH",
"908 -3 OFFCURVE",
"961.83 12.17 OFFCURVE",
"1015.5 42.5 CURVE SMOOTH",
"1069.17 72.83 OFFCURVE",
"1117.67 113 OFFCURVE",
"1161 163 CURVE"
);
},
{
closed = 1;
nodes = (
"677 491.33 OFFCURVE",
"687.67 554.33 OFFCURVE",
"709 623 CURVE SMOOTH",
"730.33 691.67 OFFCURVE",
"758.67 750 OFFCURVE",
"794 798 CURVE SMOOTH",
"829.33 846 OFFCURVE",
"865.83 880.83 OFFCURVE",
"903.5 902.5 CURVE SMOOTH",
"941.17 924.17 OFFCURVE",
"981.33 935 OFFCURVE",
"1024 935 CURVE SMOOTH",
"1088.67 935 OFFCURVE",
"1143.5 910 OFFCURVE",
"1188.5 860 CURVE SMOOTH",
"1233.5 810 OFFCURVE",
"1256 739.67 OFFCURVE",
"1256 649 CURVE SMOOTH",
"1256 581 OFFCURVE",
"1244 513.17 OFFCURVE",
"1220 445.5 CURVE SMOOTH",
"1196 377.83 OFFCURVE",
"1165.17 322 OFFCURVE",
"1127.5 278 CURVE SMOOTH",
"1089.83 234 OFFCURVE",
"1050.33 200.83 OFFCURVE",
"1009 178.5 CURVE SMOOTH",
"967.67 156.17 OFFCURVE",
"928.33 145 OFFCURVE",
"891 145 CURVE SMOOTH",
"835 145 OFFCURVE",
"785.33 170.33 OFFCURVE",
"742 221 CURVE SMOOTH",
"698.67 271.67 OFFCURVE",
"677 342.67 OFFCURVE",
"677 434 CURVE SMOOTH"
);
}
);
width = 2079;
}
);
note = at;
unicode = 0040;
},
{
glyphname = A;
lastChange = "2018-11-05 04:35:17 +0000";
layers = (
{
layerId = "91004FFB-2E8A-4290-ADD0-E71DD0A9BF8D";
paths = (
{
closed = 1;
nodes = (
"-3 0 LINE",
"203 0 LINE",
"364 444 LINE",
"977 444 LINE",
"1148 0 LINE",
"1369 0 LINE",
"769 1466 LINE",
"560 1466 LINE"
);
},
{
closed = 1;
nodes = (
"420 602 LINE",
"581 1032 LINE SMOOTH",
"615 1124.67 OFFCURVE",
"641.33 1218 OFFCURVE",
"660 1312 CURVE",
"682.67 1232.67 OFFCURVE",
"717.33 1131.33 OFFCURVE",
"764 1008 CURVE SMOOTH",
"917 602 LINE"
);
}
);
width = 1366;
}
);
note = A;
unicode = 0041;
},
{
glyphname = B;
lastChange = "2018-11-05 04:35:17 +0000";
layers = (
{
layerId = "91004FFB-2E8A-4290-ADD0-E71DD0A9BF8D";
paths = (
{
closed = 1;
nodes = (
"150 0 LINE",
"709 0 LINE SMOOTH",
"802.33 0 OFFCURVE",
"881.17 8.17 OFFCURVE",
"945.5 24.5 CURVE SMOOTH",
"1009.83 40.83 OFFCURVE",
"1063.33 65 OFFCURVE",
"1106 97 CURVE SMOOTH",
"1148.67 129 OFFCURVE",
"1184.5 174.5 OFFCURVE",
"1213.5 233.5 CURVE SMOOTH",
"1242.5 292.5 OFFCURVE",
"1257 356.33 OFFCURVE",
"1257 425 CURVE SMOOTH",
"1257 510.33 OFFCURVE",
"1233.17 584.33 OFFCURVE",
"1185.5 647 CURVE SMOOTH",
"1137.83 709.67 OFFCURVE",
"1069.67 754 OFFCURVE",
"981 780 CURVE",
"1049.67 814 OFFCURVE",
"1101 858.67 OFFCURVE",
"1135 914 CURVE SMOOTH",
"1169 969.33 OFFCURVE",
"1186 1028.33 OFFCURVE",
"1186 1091 CURVE SMOOTH",
"1186 1158.33 OFFCURVE",
"1166.83 1222.83 OFFCURVE",
"1128.5 1284.5 CURVE SMOOTH",
"1090.17 1346.17 OFFCURVE",
"1037.17 1391.83 OFFCURVE",
"969.5 1421.5 CURVE SMOOTH",
"901.83 1451.17 OFFCURVE",
"812 1466 OFFCURVE",
"700 1466 CURVE SMOOTH",
"150 1466 LINE"
);
},
{
closed = 1;
nodes = (
"344 850 LINE",
"344 1293 LINE",
"637 1293 LINE SMOOTH",
"742.33 1293 OFFCURVE",
"816.67 1286.17 OFFCURVE",
"860 1272.5 CURVE SMOOTH",
"903.33 1258.83 OFFCURVE",
"936.67 1233.5 OFFCURVE",
"960 1196.5 CURVE SMOOTH",
"983.33 1159.5 OFFCURVE",
"995 1116.67 OFFCURVE",
"995 1068 CURVE SMOOTH",
"995 1016.67 OFFCURVE",
"982.5 974 OFFCURVE",
"957.5 940 CURVE SMOOTH",
"932.5 906 OFFCURVE",
"895.33 881.67 OFFCURVE",
"846 867 CURVE SMOOTH",
"808.67 855.67 OFFCURVE",
"747 850 OFFCURVE",
"661 850 CURVE SMOOTH"
);
},
{
closed = 1;
nodes = (
"344 173 LINE",
"344 677 LINE",
"683 677 LINE SMOOTH",
"776.33 677 OFFCURVE",
"847.83 668.83 OFFCURVE",
"897.5 652.5 CURVE SMOOTH",
"947.17 636.17 OFFCURVE",
"986 607.83 OFFCURVE",
"1014 567.5 CURVE SMOOTH",
"1042 527.17 OFFCURVE",
"1056 479.67 OFFCURVE",
"1056 425 CURVE SMOOTH",
"1056 378.33 OFFCURVE",
"1046.33 337.17 OFFCURVE",
"1027 301.5 CURVE SMOOTH",
"1007.67 265.83 OFFCURVE",
"983 238.67 OFFCURVE",
"953 220 CURVE SMOOTH",
"923 201.33 OFFCURVE",
"885.67 188 OFFCURVE",
"841 180 CURVE SMOOTH",
"815.67 175.33 OFFCURVE",
"771.67 173 OFFCURVE",
"709 173 CURVE SMOOTH"
);
}
);
width = 1366;
}
);
note = B;
unicode = 0042;
},
{
glyphname = C;
lastChange = "2018-11-05 04:35:17 +0000";
layers = (
{
layerId = "91004FFB-2E8A-4290-ADD0-E71DD0A9BF8D";
paths = (
{
closed = 1;
nodes = (
"1204 514 LINE",
"1177.33 390.67 OFFCURVE",
"1126.33 297.67 OFFCURVE",
"1051 235 CURVE SMOOTH",
"975.67 172.33 OFFCURVE",
"883.67 141 OFFCURVE",
"775 141 CURVE SMOOTH",
"685.67 141 OFFCURVE",
"602.67 164 OFFCURVE",
"526 210 CURVE SMOOTH",
"449.33 256 OFFCURVE",
"392.83 325.5 OFFCURVE",
"356.5 418.5 CURVE SMOOTH",
"320.17 511.5 OFFCURVE",
"302 620.33 OFFCURVE",
"302 745 CURVE SMOOTH",
"302 841.67 OFFCURVE",
"317.33 935.5 OFFCURVE",
"348 1026.5 CURVE SMOOTH",
"378.67 1117.5 OFFCURVE",
"431.83 1190 OFFCURVE",
"507.5 1244 CURVE SMOOTH",
"583.17 1298 OFFCURVE",
"677.33 1325 OFFCURVE",
"790 1325 CURVE SMOOTH",
"888 1325 OFFCURVE",
"969.33 1300.67 OFFCURVE",
"1034 1252 CURVE SMOOTH",
"1098.67 1203.33 OFFCURVE",
"1148 1125.67 OFFCURVE",
"1182 1019 CURVE",
"1373 1064 LINE",
"1333.67 1199.33 OFFCURVE",
"1264 1304.33 OFFCURVE",
"1164 1379 CURVE SMOOTH",
"1064 1453.67 OFFCURVE",
"940.67 1491 OFFCURVE",
"794 1491 CURVE SMOOTH",
"664.67 1491 OFFCURVE",
"546.17 1461.5 OFFCURVE",
"438.5 1402.5 CURVE SMOOTH",
"330.83 1343.5 OFFCURVE",
"247.83 1257.17 OFFCURVE",
"189.5 1143.5 CURVE SMOOTH",
"131.17 1029.83 OFFCURVE",
"102 896.67 OFFCURVE",
"102 744 CURVE SMOOTH",
"102 604 OFFCURVE",
"127.83 473 OFFCURVE",
"179.5 351 CURVE SMOOTH",
"231.17 229 OFFCURVE",
"306.5 135.83 OFFCURVE",
"405.5 71.5 CURVE SMOOTH",
"504.5 7.17 OFFCURVE",
"633 -25 OFFCURVE",
"791 -25 CURVE SMOOTH",
"943.67 -25 OFFCURVE",
"1072.83 16.83 OFFCURVE",
"1178.5 100.5 CURVE SMOOTH",
"1284.17 184.17 OFFCURVE",
"1357.33 305.67 OFFCURVE",
"1398 465 CURVE"
);
}
);
width = 1479;
}
);
note = C;
unicode = 0043;
},
{
glyphname = D;
lastChange = "2018-11-05 04:35:17 +0000";
layers = (
{
layerId = "91004FFB-2E8A-4290-ADD0-E71DD0A9BF8D";
paths = (
{
closed = 1;
nodes = (
"158 0 LINE",
"687 0 LINE SMOOTH",
"775.67 0 OFFCURVE",
"854.17 8.33 OFFCURVE",
"922.5 25 CURVE SMOOTH",
"990.83 41.67 OFFCURVE",
"1049.17 66.17 OFFCURVE",
"1097.5 98.5 CURVE SMOOTH",
"1145.83 130.83 OFFCURVE",
"1190.33 175.17 OFFCURVE",
"1231 231.5 CURVE SMOOTH",
"1271.67 287.83 OFFCURVE",
"1305 359 OFFCURVE",
"1331 445 CURVE SMOOTH",
"1357 531 OFFCURVE",
"1370 629.67 OFFCURVE",
"1370 741 CURVE SMOOTH",
"1370 871.67 OFFCURVE",
"1350.83 987.83 OFFCURVE",
"1312.5 1089.5 CURVE SMOOTH",
"1274.17 1191.17 OFFCURVE",
"1216.33 1274.67 OFFCURVE",
"1139 1340 CURVE SMOOTH",
"1079.67 1390.67 OFFCURVE",
"1008 1425.67 OFFCURVE",
"924 1445 CURVE SMOOTH",
"864 1459 OFFCURVE",
"777 1466 OFFCURVE",
"663 1466 CURVE SMOOTH",
"158 1466 LINE"
);
},
{
closed = 1;
nodes = (
"352 173 LINE",
"352 1293 LINE",
"660 1293 LINE SMOOTH",
"775.33 1293 OFFCURVE",
"859 1283 OFFCURVE",
"911 1263 CURVE SMOOTH",
"983 1235 OFFCURVE",
"1044.17 1179.83 OFFCURVE",
"1094.5 1097.5 CURVE SMOOTH",
"1144.83 1015.17 OFFCURVE",
"1170 897.33 OFFCURVE",
"1170 744 CURVE SMOOTH",
"1170 633.33 OFFCURVE",
"1157.17 539.17 OFFCURVE",
"1131.5 461.5 CURVE SMOOTH",
"1105.83 383.83 OFFCURVE",
"1070 322 OFFCURVE",
"1024 276 CURVE SMOOTH",
"991.33 243.33 OFFCURVE",
"947.5 218 OFFCURVE",
"892.5 200 CURVE SMOOTH",
"837.5 182 OFFCURVE",
"761.67 173 OFFCURVE",
"665 173 CURVE SMOOTH"
);
}
);
width = 1479;
}
);
note = D;
unicode = 0044;
},
{
glyphname = E;
lastChange = "2018-11-05 04:35:17 +0000";
layers = (
{
layerId = "91004FFB-2E8A-4290-ADD0-E71DD0A9BF8D";
paths = (
{
closed = 1;
nodes = (
"162 0 LINE",
"1256 0 LINE",
"1256 173 LINE",
"356 173 LINE",
"356 672 LINE",
"1167 672 LINE",
"1167 844 LINE",
"356 844 LINE",
"356 1293 LINE",
"1222 1293 LINE",
"1222 1466 LINE",
"162 1466 LINE"
);
}
);
width = 1366;
}
);
note = E;
unicode = 0045;
},
{
glyphname = F;
lastChange = "2018-11-05 04:35:17 +0000";
layers = (
{
layerId = "91004FFB-2E8A-4290-ADD0-E71DD0A9BF8D";
paths = (
{
closed = 1;
nodes = (
"168 0 LINE",
"362 0 LINE",
"362 666 LINE",
"1050 666 LINE",
"1050 839 LINE",
"362 839 LINE",
"362 1293 LINE",
"1157 1293 LINE",
"1157 1466 LINE",
"168 1466 LINE"
);
}
);
width = 1251;
}
);
note = F;
unicode = 0046;
},
{
glyphname = G;
lastChange = "2018-11-05 04:35:17 +0000";
layers = (
{
layerId = "91004FFB-2E8A-4290-ADD0-E71DD0A9BF8D";
paths = (
{
closed = 1;
nodes = (
"844 575 LINE",
"1275 575 LINE",
"1275 302 LINE",
"1233.67 265.33 OFFCURVE",
"1173 230.83 OFFCURVE",
"1093 198.5 CURVE SMOOTH",
"1013 166.17 OFFCURVE",
"931 150 OFFCURVE",
"847 150 CURVE SMOOTH",
"750.33 150 OFFCURVE",
"659 171.33 OFFCURVE",
"573 214 CURVE SMOOTH",
"487 256.67 OFFCURVE",
"421.5 322 OFFCURVE",
"376.5 410 CURVE SMOOTH",
"331.5 498 OFFCURVE",
"309 607.33 OFFCURVE",
"309 738 CURVE SMOOTH",
"309 844 OFFCURVE",
"327.67 942.33 OFFCURVE",
"365 1033 CURVE SMOOTH",
"387 1085.67 OFFCURVE",
"417.83 1134 OFFCURVE",
"457.5 1178 CURVE SMOOTH",
"497.17 1222 OFFCURVE",
"549.33 1257.5 OFFCURVE",
"614 1284.5 CURVE SMOOTH",
"678.67 1311.5 OFFCURVE",
"755.33 1325 OFFCURVE",
"844 1325 CURVE SMOOTH",
"918 1325 OFFCURVE",
"985.33 1312.17 OFFCURVE",
"1046 1286.5 CURVE SMOOTH",
"1106.67 1260.83 OFFCURVE",
"1153.33 1226.67 OFFCURVE",
"1186 1184 CURVE SMOOTH",
"1218.67 1141.33 OFFCURVE",
"1246 1082.67 OFFCURVE",
"1268 1008 CURVE",
"1443 1056 LINE",
"1417.67 1154.67 OFFCURVE",
"1380.67 1234.67 OFFCURVE",
"1332 1296 CURVE SMOOTH",
"1283.33 1357.33 OFFCURVE",
"1216.17 1405.17 OFFCURVE",
"1130.5 1439.5 CURVE SMOOTH",
"1044.83 1473.83 OFFCURVE",
"949 1491 OFFCURVE",
"843 1491 CURVE SMOOTH",
"697 1491 OFFCURVE",
"568 1461 OFFCURVE",
"456 1401 CURVE SMOOTH",
"344 1341 OFFCURVE",
"258.17 1249.17 OFFCURVE",
"198.5 1125.5 CURVE SMOOTH",
"138.83 1001.83 OFFCURVE",
"109 868.67 OFFCURVE",
"109 726 CURVE SMOOTH",
"109 582 OFFCURVE",
"139 451.67 OFFCURVE",
"199 335 CURVE SMOOTH",
"259 218.33 OFFCURVE",
"347.83 129.17 OFFCURVE",
"465.5 67.5 CURVE SMOOTH",
"583.17 5.83 OFFCURVE",
"714 -25 OFFCURVE",
"858 -25 CURVE SMOOTH",
"964.67 -25 OFFCURVE",
"1068.67 -5.83 OFFCURVE",
"1170 32.5 CURVE SMOOTH",
"1271.33 70.83 OFFCURVE",
"1369.67 128 OFFCURVE",
"1465 204 CURVE",
"1465 748 LINE",
"844 747 LINE"
);
}
);
width = 1593;
}
);
note = G;
unicode = 0047;
},
{
glyphname = H;
lastChange = "2018-11-05 04:35:17 +0000";
layers = (
{
layerId = "91004FFB-2E8A-4290-ADD0-E71DD0A9BF8D";
paths = (
{
closed = 1;
nodes = (
"164 0 LINE",
"358 0 LINE",
"358 691 LINE",
"1120 691 LINE",
"1120 0 LINE",
"1314 0 LINE",
"1314 1466 LINE",
"1120 1466 LINE",
"1120 864 LINE",
"358 864 LINE",
"358 1466 LINE",
"164 1466 LINE"
);
}
);
width = 1479;
}
);
note = H;
unicode = 0048;
},
{
glyphname = I;
lastChange = "2018-11-05 04:35:17 +0000";
layers = (
{
layerId = "91004FFB-2E8A-4290-ADD0-E71DD0A9BF8D";
paths = (
{
closed = 1;
nodes = (
"191 0 LINE",
"385 0 LINE",
"385 1466 LINE",
"191 1466 LINE"
);
}
);
width = 569;
}
);
note = I;
unicode = 0049;
},
{
glyphname = J;
lastChange = "2018-11-05 04:35:17 +0000";
layers = (
{
layerId = "91004FFB-2E8A-4290-ADD0-E71DD0A9BF8D";
paths = (
{
closed = 1;
nodes = (
"59 416 LINE",
"56.33 270 OFFCURVE",
"89.17 160 OFFCURVE",
"157.5 86 CURVE SMOOTH",
"225.83 12 OFFCURVE",
"324.33 -25 OFFCURVE",
"453 -25 CURVE SMOOTH",
"539.67 -25 OFFCURVE",
"615.17 -7.33 OFFCURVE",
"679.5 28 CURVE SMOOTH",
"743.83 63.33 OFFCURVE",
"790.83 114.67 OFFCURVE",
"820.5 182 CURVE SMOOTH",
"850.17 249.33 OFFCURVE",
"865 344.33 OFFCURVE",
"865 467 CURVE SMOOTH",
"865 1466 LINE",
"671 1466 LINE",
"671 456 LINE SMOOTH",
"671 372 OFFCURVE",
"664.33 310.83 OFFCURVE",
"651 272.5 CURVE SMOOTH",
"637.67 234.17 OFFCURVE",
"613.33 203.83 OFFCURVE",
"578 181.5 CURVE SMOOTH",
"542.67 159.17 OFFCURVE",
"500.67 148 OFFCURVE",
"452 148 CURVE SMOOTH",
"386 148 OFFCURVE",
"334.33 168.67 OFFCURVE",
"297 210 CURVE SMOOTH",
"259.67 251.33 OFFCURVE",
"238.67 328 OFFCURVE",
"234 440 CURVE"
);
}
);
width = 1024;
}
);
note = J;
unicode = 004A;
},
{
glyphname = K;
lastChange = "2018-11-05 04:35:17 +0000";
layers = (
{
layerId = "91004FFB-2E8A-4290-ADD0-E71DD0A9BF8D";
paths = (
{
closed = 1;
nodes = (
"150 0 LINE",
"344 0 LINE",
"344 508 LINE",
"584 742 LINE",
"1106 0 LINE",
"1362 0 LINE",
"720 872 LINE",
"1335 1466 LINE",
"1072 1466 LINE",
"344 739 LINE",
"344 1466 LINE",
"150 1466 LINE"
);
}
);
width = 1366;
}
);
note = K;
unicode = 004B;
},
{
glyphname = L;
lastChange = "2018-11-05 04:35:17 +0000";
layers = (
{
layerId = "91004FFB-2E8A-4290-ADD0-E71DD0A9BF8D";
paths = (
{
closed = 1;
nodes = (
"150 0 LINE",
"1066 0 LINE",
"1066 173 LINE",
"344 173 LINE",
"344 1466 LINE",
"150 1466 LINE"
);
}
);
width = 1139;
}
);
note = L;
unicode = 004C;
},
{
glyphname = M;
lastChange = "2018-11-05 04:35:17 +0000";
layers = (
{
layerId = "91004FFB-2E8A-4290-ADD0-E71DD0A9BF8D";
paths = (
{
closed = 1;
nodes = (
"152 0 LINE",
"339 0 LINE",
"339 1248 LINE",
"763 0 LINE",
"938 0 LINE",
"1364 1227 LINE",
"1364 0 LINE",
"1551 0 LINE",
"1551 1466 LINE",
"1290 1466 LINE",
"939 446 LINE SMOOTH",
"903.67 342.67 OFFCURVE",
"877.67 264.33 OFFCURVE",
"861 211 CURVE",
"846.33 259 OFFCURVE",
"823 331.33 OFFCURVE",
"791 428 CURVE SMOOTH",
"444 1466 LINE",
"152 1466 LINE"
);
}
);
width = 1706;
}
);
note = M;
unicode = 004D;
},
{
glyphname = N;
lastChange = "2018-11-05 04:35:17 +0000";
layers = (
{
layerId = "91004FFB-2E8A-4290-ADD0-E71DD0A9BF8D";
paths = (
{
closed = 1;
nodes = (
"156 0 LINE",
"342 0 LINE",
"342 1152 LINE",
"1112 0 LINE",
"1311 0 LINE",
"1311 1466 LINE",
"1125 1466 LINE",
"1125 315 LINE",
"355 1466 LINE",
"156 1466 LINE"
);
}
);
width = 1479;
}
);
note = N;
unicode = 004E;
},
{
glyphname = O;
lastChange = "2018-11-05 04:35:17 +0000";
layers = (
{
layerId = "91004FFB-2E8A-4290-ADD0-E71DD0A9BF8D";
paths = (
{
closed = 1;
nodes = (
"99 585.33 OFFCURVE",
"127 463.33 OFFCURVE",
"183 348 CURVE SMOOTH",
"239 232.67 OFFCURVE",
"321.33 141.67 OFFCURVE",
"430 75 CURVE SMOOTH",
"538.67 8.33 OFFCURVE",
"662 -25 OFFCURVE",
"800 -25 CURVE SMOOTH",
"927.33 -25 OFFCURVE",
"1046 5.17 OFFCURVE",
"1156 65.5 CURVE SMOOTH",
"1266 125.83 OFFCURVE",
"1351 214.67 OFFCURVE",
"1411 332 CURVE SMOOTH",
"1471 449.33 OFFCURVE",
"1501 582.33 OFFCURVE",
"1501 731 CURVE SMOOTH",
"1501 877.67 OFFCURVE",
"1472.5 1008.83 OFFCURVE",
"1415.5 1124.5 CURVE SMOOTH",
"1358.5 1240.17 OFFCURVE",
"1275.67 1330.33 OFFCURVE",
"1167 1395 CURVE SMOOTH",
"1058.33 1459.67 OFFCURVE",
"936.33 1492 OFFCURVE",
"801 1492 CURVE SMOOTH",
"594.33 1492 OFFCURVE",
"425.67 1423.17 OFFCURVE",
"295 1285.5 CURVE SMOOTH",
"164.33 1147.83 OFFCURVE",
"99 957.33 OFFCURVE",
"99 714 CURVE SMOOTH"
);
},
{
closed = 1;
nodes = (
"299 931.67 OFFCURVE",
"348.5 1089.17 OFFCURVE",
"447.5 1183.5 CURVE SMOOTH",
"546.5 1277.83 OFFCURVE",
"664.67 1325 OFFCURVE",
"802 1325 CURVE SMOOTH",
"898.67 1325 OFFCURVE",
"985.83 1300.5 OFFCURVE",
"1063.5 1251.5 CURVE SMOOTH",
"1141.17 1202.5 OFFCURVE",
"1200.17 1133.5 OFFCURVE",
"1240.5 1044.5 CURVE SMOOTH",
"1280.83 955.5 OFFCURVE",
"1301 851.33 OFFCURVE",
"1301 732 CURVE SMOOTH",
"1301 543.33 OFFCURVE",
"1253.83 397.67 OFFCURVE",
"1159.5 295 CURVE SMOOTH",
"1065.17 192.33 OFFCURVE",
"945 141 OFFCURVE",
"799 141 CURVE SMOOTH",
"655.67 141 OFFCURVE",
"536.5 191.83 OFFCURVE",
"441.5 293.5 CURVE SMOOTH",
"346.5 395.17 OFFCURVE",
"299 534.33 OFFCURVE",
"299 711 CURVE SMOOTH"
);
}
);
width = 1593;
}
);
note = O;
unicode = 004F;
},
{
glyphname = P;
lastChange = "2018-11-05 04:35:17 +0000";
layers = (
{
layerId = "91004FFB-2E8A-4290-ADD0-E71DD0A9BF8D";
paths = (
{
closed = 1;
nodes = (
"158 0 LINE",
"352 0 LINE",
"352 596 LINE",
"728 596 LINE SMOOTH",
"935.33 596 OFFCURVE",
"1078.67 639.17 OFFCURVE",
"1158 725.5 CURVE SMOOTH",
"1237.33 811.83 OFFCURVE",
"1277 917.33 OFFCURVE",
"1277 1042 CURVE SMOOTH",
"1277 1114.67 OFFCURVE",
"1262.17 1181.33 OFFCURVE",
"1232.5 1242 CURVE SMOOTH",
"1202.83 1302.67 OFFCURVE",
"1163.67 1349.83 OFFCURVE",
"1115 1383.5 CURVE SMOOTH",
"1066.33 1417.17 OFFCURVE",
"1006 1440 OFFCURVE",
"934 1452 CURVE SMOOTH",
"882.67 1461.33 OFFCURVE",
"808.33 1466 OFFCURVE",
"711 1466 CURVE SMOOTH",
"158 1466 LINE"
);
},
{
closed = 1;
nodes = (
"352 769 LINE",
"352 1293 LINE",
"727 1293 LINE SMOOTH",
"815 1293 OFFCURVE",
"875.33 1288.67 OFFCURVE",
"908 1280 CURVE SMOOTH",
"958.67 1266 OFFCURVE",
"999.5 1237.17 OFFCURVE",
"1030.5 1193.5 CURVE SMOOTH",
"1061.5 1149.83 OFFCURVE",
"1077 1097.33 OFFCURVE",
"1077 1036 CURVE SMOOTH",
"1077 951.33 OFFCURVE",
"1050.67 885.67 OFFCURVE",
"998 839 CURVE SMOOTH",
"945.33 792.33 OFFCURVE",
"856.33 769 OFFCURVE",
"731 769 CURVE SMOOTH"
);
}
);
width = 1366;
}
);
note = P;
unicode = 0050;
},
{
glyphname = Q;
lastChange = "2018-11-05 04:35:17 +0000";
layers = (
{
layerId = "91004FFB-2E8A-4290-ADD0-E71DD0A9BF8D";
paths = (
{
closed = 1;
nodes = (
"1343 228.33 OFFCURVE",
"1398.33 312.17 OFFCURVE",
"1435 408.5 CURVE SMOOTH",
"1471.67 504.83 OFFCURVE",
"1490 613.33 OFFCURVE",
"1490 734 CURVE SMOOTH",
"1490 879.33 OFFCURVE",
"1461.5 1009.83 OFFCURVE",
"1404.5 1125.5 CURVE SMOOTH",
"1347.5 1241.17 OFFCURVE",
"1264.67 1331.17 OFFCURVE",
"1156 1395.5 CURVE SMOOTH",
"1047.33 1459.83 OFFCURVE",
"925.33 1492 OFFCURVE",
"790 1492 CURVE SMOOTH",
"656 1492 OFFCURVE",
"534.83 1461 OFFCURVE",
"426.5 1399 CURVE SMOOTH",
"318.17 1337 OFFCURVE",
"234.67 1246.67 OFFCURVE",
"176 1128 CURVE SMOOTH",
"117.33 1009.33 OFFCURVE",
"88 877.67 OFFCURVE",
"88 733 CURVE SMOOTH",
"88 587.67 OFFCURVE",
"117.17 457 OFFCURVE",
"175.5 341 CURVE SMOOTH",
"233.83 225 OFFCURVE",
"317 135 OFFCURVE",
"425 71 CURVE SMOOTH",
"533 7 OFFCURVE",
"653.33 -25 OFFCURVE",
"786 -25 CURVE SMOOTH",
"917.33 -25 OFFCURVE",
"1037.33 5.33 OFFCURVE",
"1146 66 CURVE",
"1250.67 -16 OFFCURVE",
"1355.67 -76 OFFCURVE",
"1461 -114 CURVE",
"1518 21 LINE",
"1442 49.67 OFFCURVE",
"1359 95 OFFCURVE",
"1269 157 CURVE"
);
},
{
closed = 1;
nodes = (
"795 264 LINE",
"862.33 247.33 OFFCURVE",
"926.33 219.33 OFFCURVE",
"987 180 CURVE",
"925.67 154 OFFCURVE",
"860.33 141 OFFCURVE",
"791 141 CURVE SMOOTH",
"644.33 141 OFFCURVE",
"523.83 192 OFFCURVE",
"429.5 294 CURVE SMOOTH",
"335.17 396 OFFCURVE",
"288 542.33 OFFCURVE",
"288 733 CURVE SMOOTH",
"288 929.67 OFFCURVE",
"335.67 1077.5 OFFCURVE",
"431 1176.5 CURVE SMOOTH",
"526.33 1275.5 OFFCURVE",
"646.33 1325 OFFCURVE",
"791 1325 CURVE SMOOTH",
"887.67 1325 OFFCURVE",
"974.83 1300.5 OFFCURVE",
"1052.5 1251.5 CURVE SMOOTH",
"1130.17 1202.5 OFFCURVE",
"1189.17 1133.67 OFFCURVE",
"1229.5 1045 CURVE SMOOTH",
"1269.83 956.33 OFFCURVE",
"1290 852.67 OFFCURVE",
"1290 734 CURVE SMOOTH",
"1290 525.33 OFFCURVE",
"1233 369 OFFCURVE",
"1119 265 CURVE",
"1046.33 327 OFFCURVE",
"954 373.67 OFFCURVE",
"842 405 CURVE"
);
}
);
width = 1593;
}
);
note = Q;
unicode = 0051;
},
{
glyphname = R;
lastChange = "2018-11-05 04:35:17 +0000";
layers = (
{
layerId = "91004FFB-2E8A-4290-ADD0-E71DD0A9BF8D";
paths = (
{
closed = 1;
nodes = (
"161 0 LINE",
"355 0 LINE",
"355 651 LINE",
"580 651 LINE SMOOTH",
"630 651 OFFCURVE",
"666 648.67 OFFCURVE",
"688 644 CURVE SMOOTH",
"718 636.67 OFFCURVE",
"747.5 623.67 OFFCURVE",
"776.5 605 CURVE SMOOTH",
"805.5 586.33 OFFCURVE",
"838.33 553.67 OFFCURVE",
"875 507 CURVE SMOOTH",
"911.67 460.33 OFFCURVE",
"958.33 393 OFFCURVE",
"1015 305 CURVE SMOOTH",
"1209 0 LINE",
"1453 0 LINE",
"1198 399 LINE SMOOTH",
"1147.33 477 OFFCURVE",
"1093.67 542 OFFCURVE",
"1037 594 CURVE SMOOTH",
"1010.33 618 OFFCURVE",
"971.33 642.33 OFFCURVE",
"920 667 CURVE",
"1060.67 686.33 OFFCURVE",
"1164.67 731.67 OFFCURVE",
"1232 803 CURVE SMOOTH",
"1299.33 874.33 OFFCURVE",
"1333 962 OFFCURVE",
"1333 1066 CURVE SMOOTH",
"1333 1146.67 OFFCURVE",
"1312.67 1220.33 OFFCURVE",
"1272 1287 CURVE SMOOTH",
"1231.33 1353.67 OFFCURVE",
"1177 1400.17 OFFCURVE",
"1109 1426.5 CURVE SMOOTH",
"1041 1452.83 OFFCURVE",
"941.67 1466 OFFCURVE",
"811 1466 CURVE SMOOTH",
"161 1466 LINE"
);
},
{
closed = 1;
nodes = (
"355 819 LINE",
"355 1304 LINE",
"819 1304 LINE SMOOTH",
"927.67 1304 OFFCURVE",
"1007.17 1281.67 OFFCURVE",
"1057.5 1237 CURVE SMOOTH",
"1107.83 1192.33 OFFCURVE",
"1133 1135.33 OFFCURVE",
"1133 1066 CURVE SMOOTH",
"1133 1018.67 OFFCURVE",
"1120 974.83 OFFCURVE",
"1094 934.5 CURVE SMOOTH",
"1068 894.17 OFFCURVE",
"1030 864.83 OFFCURVE",
"980 846.5 CURVE SMOOTH",
"930 828.17 OFFCURVE",
"860.67 819 OFFCURVE",
"772 819 CURVE SMOOTH"
);
}
);
width = 1479;
}
);
note = R;
unicode = 0052;
},
{
glyphname = S;
lastChange = "2018-11-05 04:35:17 +0000";
layers = (
{
layerId = "91004FFB-2E8A-4290-ADD0-E71DD0A9BF8D";
paths = (
{
closed = 1;
nodes = (
"92 471 LINE",
"94.67 373 OFFCURVE",
"121.5 285.17 OFFCURVE",
"172.5 207.5 CURVE SMOOTH",
"223.5 129.83 OFFCURVE",
"293.83 71.67 OFFCURVE",
"383.5 33 CURVE SMOOTH",
"473.17 -5.67 OFFCURVE",
"584.33 -25 OFFCURVE",
"717 -25 CURVE SMOOTH",
"821.67 -25 OFFCURVE",
"915.83 -5.83 OFFCURVE",
"999.5 32.5 CURVE SMOOTH",
"1083.17 70.83 OFFCURVE",
"1147.33 124.5 OFFCURVE",
"1192 193.5 CURVE SMOOTH",
"1236.67 262.5 OFFCURVE",
"1259 336 OFFCURVE",
"1259 414 CURVE SMOOTH",
"1259 492.67 OFFCURVE",
"1238.67 562.17 OFFCURVE",
"1198 622.5 CURVE SMOOTH",
"1157.33 682.83 OFFCURVE",
"1094.33 732.67 OFFCURVE",
"1009 772 CURVE SMOOTH",
"950.33 798.67 OFFCURVE",
"842.17 829.83 OFFCURVE",
"684.5 865.5 CURVE SMOOTH",
"526.83 901.17 OFFCURVE",
"429.33 936 OFFCURVE",
"392 970 CURVE SMOOTH",
"354 1004 OFFCURVE",
"335 1047.33 OFFCURVE",
"335 1100 CURVE SMOOTH",
"335 1160.67 OFFCURVE",
"361.83 1212.5 OFFCURVE",
"415.5 1255.5 CURVE SMOOTH",
"469.17 1298.5 OFFCURVE",
"554.67 1320 OFFCURVE",
"672 1320 CURVE SMOOTH",
"784.67 1320 OFFCURVE",
"869.83 1296.33 OFFCURVE",
"927.5 1249 CURVE SMOOTH",
"985.17 1201.67 OFFCURVE",
"1019 1131.67 OFFCURVE",
"1029 1039 CURVE",
"1215 1053 LINE",
"1211.67 1139 OFFCURVE",
"1187.67 1216 OFFCURVE",
"1143 1284 CURVE SMOOTH",
"1098.33 1352 OFFCURVE",
"1034.5 1403.5 OFFCURVE",
"951.5 1438.5 CURVE SMOOTH",
"868.5 1473.5 OFFCURVE",
"772.67 1491 OFFCURVE",
"664 1491 CURVE SMOOTH",
"565.33 1491 OFFCURVE",
"475.67 1474.33 OFFCURVE",
"395 1441 CURVE SMOOTH",
"314.33 1407.67 OFFCURVE",
"253 1358.83 OFFCURVE",
"211 1294.5 CURVE SMOOTH",
"169 1230.17 OFFCURVE",
"148 1161 OFFCURVE",
"148 1087 CURVE SMOOTH",
"148 1019.67 OFFCURVE",
"165.17 958.83 OFFCURVE",
"199.5 904.5 CURVE SMOOTH",
"233.83 850.17 OFFCURVE",
"286 804.67 OFFCURVE",
"356 768 CURVE SMOOTH",
"410 739.33 OFFCURVE",
"504.33 708.83 OFFCURVE",
"639 676.5 CURVE SMOOTH",
"773.67 644.17 OFFCURVE",
"860.67 620.33 OFFCURVE",
"900 605 CURVE SMOOTH",
"961.33 581.67 OFFCURVE",
"1005.33 552.83 OFFCURVE",
"1032 518.5 CURVE SMOOTH",
"1058.67 484.17 OFFCURVE",
"1072 444 OFFCURVE",
"1072 398 CURVE SMOOTH",
"1072 352.67 OFFCURVE",
"1058.17 310.83 OFFCURVE",
"1030.5 272.5 CURVE SMOOTH",
"1002.83 234.17 OFFCURVE",
"960.67 204 OFFCURVE",
"904 182 CURVE SMOOTH",
"847.33 160 OFFCURVE",
"782 149 OFFCURVE",
"708 149 CURVE SMOOTH",
"624.67 149 OFFCURVE",
"549.67 163.5 OFFCURVE",
"483 192.5 CURVE SMOOTH",
"416.33 221.5 OFFCURVE",
"367.17 259.5 OFFCURVE",
"335.5 306.5 CURVE SMOOTH",
"303.83 353.5 OFFCURVE",
"283.67 413.67 OFFCURVE",
"275 487 CURVE"
);
}
);
width = 1366;
}
);
note = S;
unicode = 0053;
},
{
glyphname = T;
lastChange = "2018-11-05 04:35:17 +0000";
layers = (
{
layerId = "91004FFB-2E8A-4290-ADD0-E71DD0A9BF8D";
paths = (
{
closed = 1;
nodes = (
"531 0 LINE",
"725 0 LINE",
"725 1293 LINE",
"1210 1293 LINE",
"1210 1466 LINE",
"48 1466 LINE",
"48 1293 LINE",
"531 1293 LINE"
);
}
);
width = 1251;
}
);
note = T;
unicode = 0054;
},
{
glyphname = U;
lastChange = "2018-11-05 04:35:17 +0000";
layers = (
{
layerId = "91004FFB-2E8A-4290-ADD0-E71DD0A9BF8D";
paths = (
{
closed = 1;
nodes = (
"1120 1466 LINE",
"1120 620 LINE SMOOTH",
"1120 436 OFFCURVE",
"1089.67 311.67 OFFCURVE",
"1029 247 CURVE SMOOTH",
"968.33 182.33 OFFCURVE",
"866.67 150 OFFCURVE",
"724 150 CURVE SMOOTH",
"640.67 150 OFFCURVE",
"570.17 166.33 OFFCURVE",
"512.5 199 CURVE SMOOTH",
"454.83 231.67 OFFCURVE",
"414.17 278.17 OFFCURVE",
"390.5 338.5 CURVE SMOOTH",
"366.83 398.83 OFFCURVE",
"355 492.67 OFFCURVE",
"355 620 CURVE SMOOTH",
"355 1466 LINE",
"161 1466 LINE",
"161 619 LINE SMOOTH",
"161 463.67 OFFCURVE",
"179.67 341.17 OFFCURVE",
"217 251.5 CURVE SMOOTH",
"254.33 161.83 OFFCURVE",
"316.67 93.33 OFFCURVE",
"404 46 CURVE SMOOTH",
"491.33 -1.33 OFFCURVE",
"603.67 -25 OFFCURVE",
"741 -25 CURVE SMOOTH",
"882.33 -25 OFFCURVE",
"996.5 2.17 OFFCURVE",
"1083.5 56.5 CURVE SMOOTH",
"1170.5 110.83 OFFCURVE",
"1230.67 181.33 OFFCURVE",
"1264 268 CURVE SMOOTH",
"1297.33 354.67 OFFCURVE",
"1314 471.67 OFFCURVE",
"1314 619 CURVE SMOOTH",
"1314 1466 LINE"
);
}
);
width = 1479;
}
);
note = U;
unicode = 0055;
},
{
glyphname = V;
lastChange = "2018-11-05 04:35:17 +0000";
layers = (
{
layerId = "91004FFB-2E8A-4290-ADD0-E71DD0A9BF8D";
paths = (
{
closed = 1;
nodes = (
"577 0 LINE",
"776 0 LINE",
"1350 1466 LINE",
"1152 1466 LINE",
"756 401 LINE SMOOTH",
"726 321 OFFCURVE",
"699.67 241 OFFCURVE",
"677 161 CURVE",
"656.33 235.67 OFFCURVE",
"630.67 315.67 OFFCURVE",
"600 401 CURVE SMOOTH",
"219 1466 LINE",
"9 1466 LINE"
);
}
);
width = 1366;
}
);
note = V;
unicode = 0056;
},
{
glyphname = W;
lastChange = "2018-11-05 04:35:17 +0000";
layers = (
{
layerId = "91004FFB-2E8A-4290-ADD0-E71DD0A9BF8D";
paths = (
{
closed = 1;
nodes = (
"414 0 LINE",
"612 0 LINE",
"923 1117 LINE SMOOTH",
"936.33 1164.33 OFFCURVE",
"950.67 1221.67 OFFCURVE",
"966 1289 CURVE",
"970.67 1267.67 OFFCURVE",
"986 1210.33 OFFCURVE",
"1012 1117 CURVE SMOOTH",
"1321 0 LINE",
"1508 0 LINE",
"1910 1466 LINE",
"1715 1466 LINE",
"1485 524 LINE SMOOTH",
"1455 404 OFFCURVE",
"1430.67 297.67 OFFCURVE",
"1412 205 CURVE",
"1388.67 367 OFFCURVE",
"1350.67 540 OFFCURVE",
"1298 724 CURVE SMOOTH",
"1088 1466 LINE",
"854 1466 LINE",
"575 476 LINE SMOOTH",
"568.33 452 OFFCURVE",
"546.33 361.67 OFFCURVE",
"509 205 CURVE",
"491.67 304.33 OFFCURVE",
"471 404.33 OFFCURVE",
"447 505 CURVE SMOOTH",
"224 1466 LINE",
"25 1466 LINE"
);
}
);
width = 1933;
}
);
note = W;
unicode = 0057;
},
{
glyphname = X;
lastChange = "2018-11-05 04:35:17 +0000";
layers = (
{
layerId = "91004FFB-2E8A-4290-ADD0-E71DD0A9BF8D";
paths = (
{
closed = 1;
nodes = (
"9 0 LINE",
"242 0 LINE",
"610 511 LINE SMOOTH",
"624 531 OFFCURVE",
"647.33 567.67 OFFCURVE",
"680 621 CURVE",
"702 585.67 OFFCURVE",
"723.33 553 OFFCURVE",
"744 523 CURVE SMOOTH",
"1113 0 LINE",
"1353 0 LINE",
"798 775 LINE",
"1313 1466 LINE",
"1102 1466 LINE",
"807 1077 LINE SMOOTH",
"762.33 1019 OFFCURVE",
"723.67 963.33 OFFCURVE",
"691 910 CURVE",
"667.67 952 OFFCURVE",
"628.33 1012 OFFCURVE",
"573 1090 CURVE SMOOTH",
"307 1466 LINE",
"76 1466 LINE",
"576 764 LINE"
);
}
);
width = 1366;
}
);
note = X;
unicode = 0058;
},
{
glyphname = Y;
lastChange = "2018-11-05 04:35:17 +0000";
layers = (
{
layerId = "91004FFB-2E8A-4290-ADD0-E71DD0A9BF8D";
paths = (
{
closed = 1;
nodes = (
"571 0 LINE",
"765 0 LINE",
"765 621 LINE",
"1350 1466 LINE",
"1124 1466 LINE",
"840 1035 LINE SMOOTH",
"777.33 939 OFFCURVE",
"724 852.67 OFFCURVE",
"680 776 CURVE",
"634 858.67 OFFCURVE",
"584.33 941.33 OFFCURVE",
"531 1024 CURVE SMOOTH",
"242 1466 LINE",
"6 1466 LINE",
"571 621 LINE"
);
}
);
width = 1366;
}
);
note = Y;
unicode = 0059;
},
{
glyphname = Z;
lastChange = "2018-11-05 04:35:17 +0000";
layers = (
{
layerId = "91004FFB-2E8A-4290-ADD0-E71DD0A9BF8D";
paths = (
{
closed = 1;
nodes = (
"41 0 LINE",
"1200 0 LINE",
"1200 173 LINE",
"264 173 LINE",
"353 276 LINE",
"1176 1293 LINE",
"1176 1466 LINE",
"126 1466 LINE",
"126 1293 LINE",
"944 1293 LINE",
"896 1243.67 OFFCURVE",
"845.33 1185.67 OFFCURVE",
"792 1119 CURVE SMOOTH",
"41 180 LINE"
);
}
);
width = 1251;
}
);
note = Z;
unicode = 005A;
},
{
glyphname = bracketleft;
lastChange = "2018-11-05 04:35:17 +0000";
layers = (
{
layerId = "91004FFB-2E8A-4290-ADD0-E71DD0A9BF8D";
paths = (
{
closed = 1;
nodes = (
"139 -407 LINE",
"536 -407 LINE",
"536 -258 LINE",
"319 -258 LINE",
"319 1317 LINE",
"536 1317 LINE",
"536 1466 LINE",
"139 1466 LINE"
);
}
);
width = 569;
}
);
note = bracketleft;
unicode = 005B;
},
{
glyphname = backslash;
lastChange = "2018-11-05 04:35:17 +0000";
layers = (
{
layerId = "91004FFB-2E8A-4290-ADD0-E71DD0A9BF8D";
paths = (
{
closed = 1;
nodes = (
"425 -25 LINE",
"569 -25 LINE",
"145 1491 LINE",
"0 1491 LINE"
);
}
);
width = 569;
}
);
note = backslash;
unicode = 005C;
},
{
glyphname = bracketright;
lastChange = "2018-11-05 04:35:17 +0000";
layers = (
{
layerId = "91004FFB-2E8A-4290-ADD0-E71DD0A9BF8D";
paths = (
{
closed = 1;
nodes = (
"436 -407 LINE",
"436 1466 LINE",
"39 1466 LINE",
"39 1317 LINE",
"256 1317 LINE",
"256 -258 LINE",
"39 -258 LINE",
"39 -407 LINE"
);
}
);
width = 569;
}
);
note = bracketright;
unicode = 005D;
},
{
glyphname = asciicircum;
lastChange = "2018-11-05 04:35:17 +0000";
layers = (
{
layerId = "91004FFB-2E8A-4290-ADD0-E71DD0A9BF8D";
paths = (
{
closed = 1;
nodes = (
"239 690 LINE",
"479 1287 LINE",
"726 690 LINE",
"907 690 LINE",
"552 1491 LINE",
"407 1491 LINE",
"54 690 LINE"
);
}
);
width = 961;
}
);
note = asciicircum;
unicode = 005E;
},
{
glyphname = underscore;
lastChange = "2018-11-05 04:35:17 +0000";
layers = (
{
layerId = "91004FFB-2E8A-4290-ADD0-E71DD0A9BF8D";
paths = (
{
closed = 1;
nodes = (
"-31 -407 LINE",
"1162 -407 LINE",
"1162 -277 LINE",
"-31 -277 LINE"
);
}
);
width = 1139;
}
);
note = underscore;
unicode = 005F;
},
{
glyphname = grave;
lastChange = "2018-11-05 04:35:17 +0000";
layers = (
{
layerId = "91004FFB-2E8A-4290-ADD0-E71DD0A9BF8D";
paths = (
{
closed = 1;
nodes = (
"465 1194 LINE",
"330 1474 LINE",
"89 1474 LINE",
"320 1194 LINE"
);
}
);
width = 682;
}
);
note = grave;
unicode = 0060;
},
{
glyphname = a;
lastChange = "2018-11-05 04:35:17 +0000";
layers = (
{
layerId = "91004FFB-2E8A-4290-ADD0-E71DD0A9BF8D";
paths = (
{
closed = 1;
nodes = (
"833.33 81 OFFCURVE",
"845.33 37.33 OFFCURVE",
"864 0 CURVE",
"1052 0 LINE",
"1029.33 40.67 OFFCURVE",
"1014.17 83.17 OFFCURVE",
"1006.5 127.5 CURVE SMOOTH",
"998.83 171.83 OFFCURVE",
"995 277.67 OFFCURVE",
"995 445 CURVE SMOOTH",
"995 685 LINE SMOOTH",
"995 765 OFFCURVE",
"992 820.33 OFFCURVE",
"986 851 CURVE SMOOTH",
"975.33 900.33 OFFCURVE",
"956.67 941.17 OFFCURVE",
"930 973.5 CURVE SMOOTH",
"903.33 1005.83 OFFCURVE",
"861.67 1032.67 OFFCURVE",
"805 1054 CURVE SMOOTH",
"748.33 1075.33 OFFCURVE",
"674.67 1086 OFFCURVE",
"584 1086 CURVE SMOOTH",
"492.67 1086 OFFCURVE",
"412.33 1073.5 OFFCURVE",
"343 1048.5 CURVE SMOOTH",
"273.67 1023.5 OFFCURVE",
"220.67 987.83 OFFCURVE",
"184 941.5 CURVE SMOOTH",
"147.33 895.17 OFFCURVE",
"121 834.33 OFFCURVE",
"105 759 CURVE",
"281 735 LINE",
"300.33 810.33 OFFCURVE",
"330.17 862.83 OFFCURVE",
"370.5 892.5 CURVE SMOOTH",
"410.83 922.17 OFFCURVE",
"473.33 937 OFFCURVE",
"558 937 CURVE SMOOTH",
"648.67 937 OFFCURVE",
"717 916.67 OFFCURVE",
"763 876 CURVE SMOOTH",
"797 846 OFFCURVE",
"814 794.33 OFFCURVE",
"814 721 CURVE SMOOTH",
"814 714.33 OFFCURVE",
"813.67 698.67 OFFCURVE",
"813 674 CURVE",
"744.33 650 OFFCURVE",
"637.33 629.33 OFFCURVE",
"492 612 CURVE SMOOTH",
"420.67 603.33 OFFCURVE",
"367.33 594.33 OFFCURVE",
"332 585 CURVE SMOOTH",
"284 571.67 OFFCURVE",
"240.83 552 OFFCURVE",
"202.5 526 CURVE SMOOTH",
"164.17 500 OFFCURVE",
"133.17 465.5 OFFCURVE",
"109.5 422.5 CURVE SMOOTH",
"85.83 379.5 OFFCURVE",
"74 332 OFFCURVE",
"74 280 CURVE SMOOTH",
"74 191.33 OFFCURVE",
"105.33 118.5 OFFCURVE",
"168 61.5 CURVE SMOOTH",
"230.67 4.5 OFFCURVE",
"320.33 -24 OFFCURVE",
"437 -24 CURVE SMOOTH",
"507.67 -24 OFFCURVE",
"573.83 -12.33 OFFCURVE",
"635.5 11 CURVE SMOOTH",
"697.17 34.33 OFFCURVE",
"761.33 74.33 OFFCURVE",
"828 131 CURVE"
);
},
{
closed = 1;
nodes = (
"813 467 LINE SMOOTH",
"813 387.67 OFFCURVE",
"803.33 327.67 OFFCURVE",
"784 287 CURVE SMOOTH",
"758.67 234.33 OFFCURVE",
"719 192.83 OFFCURVE",
"665 162.5 CURVE SMOOTH",
"611 132.17 OFFCURVE",
"549.33 117 OFFCURVE",
"480 117 CURVE SMOOTH",
"410 117 OFFCURVE",
"356.83 133 OFFCURVE",
"320.5 165 CURVE SMOOTH",
"284.17 197 OFFCURVE",
"266 237 OFFCURVE",
"266 285 CURVE SMOOTH",
"266 316.33 OFFCURVE",
"274.33 344.83 OFFCURVE",
"291 370.5 CURVE SMOOTH",
"307.67 396.17 OFFCURVE",
"331.33 415.67 OFFCURVE",
"362 429 CURVE SMOOTH",
"392.67 442.33 OFFCURVE",
"445 454.33 OFFCURVE",
"519 465 CURVE SMOOTH",
"649.67 483.67 OFFCURVE",
"747.67 506.33 OFFCURVE",
"813 533 CURVE"
);
}
);
width = 1139;
}
);
note = a;
unicode = 0061;
},
{
glyphname = b;
lastChange = "2018-11-05 04:35:17 +0000";
layers = (
{
layerId = "91004FFB-2E8A-4290-ADD0-E71DD0A9BF8D";
paths = (
{
closed = 1;
nodes = (
"301 0 LINE",
"301 133 LINE",
"372.33 28.33 OFFCURVE",
"470.67 -24 OFFCURVE",
"596 -24 CURVE SMOOTH",
"722 -24 OFFCURVE",
"830 25.67 OFFCURVE",
"920 125 CURVE SMOOTH",
"1010 224.33 OFFCURVE",
"1055 365 OFFCURVE",
"1055 547 CURVE SMOOTH",
"1055 623.67 OFFCURVE",
"1044.33 695.67 OFFCURVE",
"1023 763 CURVE SMOOTH",
"1001.67 830.33 OFFCURVE",
"972.17 887.83 OFFCURVE",
"934.5 935.5 CURVE SMOOTH",
"896.83 983.17 OFFCURVE",
"848.83 1020.17 OFFCURVE",
"790.5 1046.5 CURVE SMOOTH",
"732.17 1072.83 OFFCURVE",
"670.33 1086 OFFCURVE",
"605 1086 CURVE SMOOTH",
"487 1086 OFFCURVE",
"390 1038.33 OFFCURVE",
"314 943 CURVE",
"314 1466 LINE",
"134 1466 LINE",
"134 0 LINE"
);
},
{
closed = 1;
nodes = (
"299 668.33 OFFCURVE",
"327.67 767.17 OFFCURVE",
"385 835.5 CURVE SMOOTH",
"442.33 903.83 OFFCURVE",
"510.33 938 OFFCURVE",
"589 938 CURVE SMOOTH",
"667 938 OFFCURVE",
"733.5 905 OFFCURVE",
"788.5 839 CURVE SMOOTH",
"843.5 773 OFFCURVE",
"871 670.67 OFFCURVE",
"871 532 CURVE SMOOTH",
"871 396.67 OFFCURVE",
"842.33 294.83 OFFCURVE",
"785 226.5 CURVE SMOOTH",
"727.67 158.17 OFFCURVE",
"659.67 124 OFFCURVE",
"581 124 CURVE SMOOTH",
"484.33 124 OFFCURVE",
"407.67 170.33 OFFCURVE",
"351 263 CURVE SMOOTH",
"316.33 319.67 OFFCURVE",
"299 411.67 OFFCURVE",
"299 539 CURVE SMOOTH"
);
}
);
width = 1139;
}
);
note = b;
unicode = 0062;
},
{
glyphname = c;
lastChange = "2018-11-05 04:35:17 +0000";
layers = (
{
layerId = "91004FFB-2E8A-4290-ADD0-E71DD0A9BF8D";
paths = (
{
closed = 1;
nodes = (
"828 389 LINE",
"815.33 299 OFFCURVE",
"785.33 232.33 OFFCURVE",
"738 189 CURVE SMOOTH",
"690.67 145.67 OFFCURVE",
"631.67 124 OFFCURVE",
"561 124 CURVE SMOOTH",
"473 124 OFFCURVE",
"401.67 156.33 OFFCURVE",
"347 221 CURVE SMOOTH",
"292.33 285.67 OFFCURVE",
"265 389.33 OFFCURVE",
"265 532 CURVE SMOOTH",
"265 672.67 OFFCURVE",
"293.33 775.5 OFFCURVE",
"350 840.5 CURVE SMOOTH",
"406.67 905.5 OFFCURVE",
"480.33 938 OFFCURVE",
"571 938 CURVE SMOOTH",
"631 938 OFFCURVE",
"682.17 920 OFFCURVE",
"724.5 884 CURVE SMOOTH",
"766.83 848 OFFCURVE",
"796.33 794.33 OFFCURVE",
"813 723 CURVE",
"988 750 LINE",
"967.33 857.33 OFFCURVE",
"920.33 940.17 OFFCURVE",
"847 998.5 CURVE SMOOTH",
"773.67 1056.83 OFFCURVE",
"679.33 1086 OFFCURVE",
"564 1086 CURVE SMOOTH",
"472.67 1086 OFFCURVE",
"388.17 1064.5 OFFCURVE",
"310.5 1021.5 CURVE SMOOTH",
"232.83 978.5 OFFCURVE",
"175 914 OFFCURVE",
"137 828 CURVE SMOOTH",
"99 742 OFFCURVE",
"80 641.67 OFFCURVE",
"80 527 CURVE SMOOTH",
"80 349.67 OFFCURVE",
"124.17 213.5 OFFCURVE",
"212.5 118.5 CURVE SMOOTH",
"300.83 23.5 OFFCURVE",
"417.67 -24 OFFCURVE",
"563 -24 CURVE SMOOTH",
"679 -24 OFFCURVE",
"776.83 10.5 OFFCURVE",
"856.5 79.5 CURVE SMOOTH",
"936.17 148.5 OFFCURVE",
"985.67 244 OFFCURVE",
"1005 366 CURVE"
);
}
);
width = 1024;
}
);
note = c;
unicode = 0063;
},
{
glyphname = d;
lastChange = "2018-11-05 04:35:17 +0000";
layers = (
{
layerId = "91004FFB-2E8A-4290-ADD0-E71DD0A9BF8D";
paths = (
{
closed = 1;
nodes = (
"824 0 LINE",
"991 0 LINE",
"991 1466 LINE",
"812 1466 LINE",
"812 940 LINE",
"780.67 983.33 OFFCURVE",
"740 1018.5 OFFCURVE",
"690 1045.5 CURVE SMOOTH",
"640 1072.5 OFFCURVE",
"583 1086 OFFCURVE",
"519 1086 CURVE SMOOTH",
"431.67 1086 OFFCURVE",
"352.67 1063 OFFCURVE",
"282 1017 CURVE SMOOTH",
"211.33 971 OFFCURVE",
"158.33 904.83 OFFCURVE",
"123 818.5 CURVE SMOOTH",
"87.67 732.17 OFFCURVE",
"70 636 OFFCURVE",
"70 530 CURVE SMOOTH",
"70 421.33 OFFCURVE",
"89.5 325.17 OFFCURVE",
"128.5 241.5 CURVE SMOOTH",
"167.5 157.83 OFFCURVE",
"222.5 92.67 OFFCURVE",
"293.5 46 CURVE SMOOTH",
"364.5 -0.67 OFFCURVE",
"442.33 -24 OFFCURVE",
"527 -24 CURVE SMOOTH",
"657.67 -24 OFFCURVE",
"756.67 28.67 OFFCURVE",
"824 134 CURVE"
);
},
{
closed = 1;
nodes = (
"255 670.67 OFFCURVE",
"281.83 773.67 OFFCURVE",
"335.5 839 CURVE SMOOTH",
"389.17 904.33 OFFCURVE",
"456 937 OFFCURVE",
"536 937 CURVE SMOOTH",
"618 937 OFFCURVE",
"687 903 OFFCURVE",
"743 835 CURVE SMOOTH",
"799 767 OFFCURVE",
"827 660.33 OFFCURVE",
"827 515 CURVE SMOOTH",
"827 383 OFFCURVE",
"799.5 284.83 OFFCURVE",
"744.5 220.5 CURVE SMOOTH",
"689.5 156.17 OFFCURVE",
"622.67 124 OFFCURVE",
"544 124 CURVE SMOOTH",
"466 124 OFFCURVE",
"398.33 157.67 OFFCURVE",
"341 225 CURVE SMOOTH",
"283.67 292.33 OFFCURVE",
"255 394 OFFCURVE",
"255 530 CURVE SMOOTH"
);
}
);
width = 1139;
}
);
note = d;
unicode = 0064;
},
{
glyphname = e;
lastChange = "2018-11-05 04:35:17 +0000";
layers = (
{
layerId = "91004FFB-2E8A-4290-ADD0-E71DD0A9BF8D";
paths = (
{
closed = 1;
nodes = (
"862 342 LINE",
"834.67 266 OFFCURVE",
"797.67 210.67 OFFCURVE",
"751 176 CURVE SMOOTH",
"704.33 141.33 OFFCURVE",
"648 124 OFFCURVE",
"582 124 CURVE SMOOTH",
"493.33 124 OFFCURVE",
"419.33 155 OFFCURVE",
"360 217 CURVE SMOOTH",
"300.67 279 OFFCURVE",
"267.67 368.33 OFFCURVE",
"261 485 CURVE",
"1053 485 LINE",
"1053.67 506.33 OFFCURVE",
"1054 522.33 OFFCURVE",
"1054 533 CURVE SMOOTH",
"1054 708.33 OFFCURVE",
"1009 844.33 OFFCURVE",
"919 941 CURVE SMOOTH",
"829 1037.67 OFFCURVE",
"713 1086 OFFCURVE",
"571 1086 CURVE SMOOTH",
"424.33 1086 OFFCURVE",
"305 1036.67 OFFCURVE",
"213 938 CURVE SMOOTH",
"121 839.33 OFFCURVE",
"75 700.67 OFFCURVE",
"75 522 CURVE SMOOTH",
"75 349.33 OFFCURVE",
"120.5 215.17 OFFCURVE",
"211.5 119.5 CURVE SMOOTH",
"302.5 23.83 OFFCURVE",
"425.67 -24 OFFCURVE",
"581 -24 CURVE SMOOTH",
"704.33 -24 OFFCURVE",
"805.67 6 OFFCURVE",
"885 66 CURVE SMOOTH",
"964.33 126 OFFCURVE",
"1018.67 210.33 OFFCURVE",
"1048 319 CURVE"
);
},
{
closed = 1;
nodes = (
"271 633 LINE",
"277 725.67 OFFCURVE",
"308.17 799.67 OFFCURVE",
"364.5 855 CURVE SMOOTH",
"420.83 910.33 OFFCURVE",
"490.33 938 OFFCURVE",
"573 938 CURVE SMOOTH",
"664.33 938 OFFCURVE",
"738.67 903.33 OFFCURVE",
"796 834 CURVE SMOOTH",
"833.33 789.33 OFFCURVE",
"856 722.33 OFFCURVE",
"864 633 CURVE"
);
}
);
width = 1139;
}
);
note = e;
unicode = 0065;
},
{
glyphname = f;
lastChange = "2018-11-05 04:35:17 +0000";
layers = (
{
layerId = "91004FFB-2E8A-4290-ADD0-E71DD0A9BF8D";
paths = (
{
closed = 1;
nodes = (
"178 0 LINE",
"357 0 LINE",
"357 922 LINE",
"564 922 LINE",
"564 1062 LINE",
"357 1062 LINE",
"357 1160 LINE SMOOTH",
"357 1224 OFFCURVE",
"368.33 1267.67 OFFCURVE",
"391 1291 CURVE SMOOTH",
"413.67 1314.33 OFFCURVE",
"452.33 1326 OFFCURVE",
"507 1326 CURVE SMOOTH",
"540.33 1326 OFFCURVE",
"575.67 1322.67 OFFCURVE",
"613 1316 CURVE",
"640 1473 LINE",
"578.67 1485 OFFCURVE",
"522.67 1491 OFFCURVE",
"472 1491 CURVE SMOOTH",
"393.33 1491 OFFCURVE",
"332.17 1476.5 OFFCURVE",
"288.5 1447.5 CURVE SMOOTH",
"244.83 1418.5 OFFCURVE",
"214.33 1380.67 OFFCURVE",
"197 1334 CURVE SMOOTH",
"184.33 1299.33 OFFCURVE",
"178 1246.33 OFFCURVE",
"178 1175 CURVE SMOOTH",
"178 1062 LINE",
"19 1062 LINE",
"19 922 LINE",
"178 922 LINE"
);
}
);
width = 569;
}
);
note = f;
unicode = 0066;
},
{
glyphname = g;
lastChange = "2018-11-05 04:35:17 +0000";
layers = (
{
layerId = "91004FFB-2E8A-4290-ADD0-E71DD0A9BF8D";
paths = (
{
closed = 1;
nodes = (
"102 -88 LINE",
"99.33 -202.67 OFFCURVE",
"137 -288.5 OFFCURVE",
"215 -345.5 CURVE SMOOTH",
"293 -402.5 OFFCURVE",
"395.33 -431 OFFCURVE",
"522 -431 CURVE SMOOTH",
"628.67 -431 OFFCURVE",
"718.5 -411 OFFCURVE",
"791.5 -371 CURVE SMOOTH",
"864.5 -331 OFFCURVE",
"917.83 -276.5 OFFCURVE",
"951.5 -207.5 CURVE SMOOTH",
"985.17 -138.5 OFFCURVE",
"1002 -21.33 OFFCURVE",
"1002 144 CURVE SMOOTH",
"1002 1062 LINE",
"836 1062 LINE",
"836 934 LINE",
"754.67 1035.33 OFFCURVE",
"651.33 1086 OFFCURVE",
"526 1086 CURVE SMOOTH",
"432 1086 OFFCURVE",
"350.17 1062.67 OFFCURVE",
"280.5 1016 CURVE SMOOTH",
"210.83 969.33 OFFCURVE",
"157.67 903.17 OFFCURVE",
"121 817.5 CURVE SMOOTH",
"84.33 731.83 OFFCURVE",
"66 638.33 OFFCURVE",
"66 537 CURVE SMOOTH",
"66 389.67 OFFCURVE",
"106 263.33 OFFCURVE",
"186 158 CURVE SMOOTH",
"266 52.67 OFFCURVE",
"379 0 OFFCURVE",
"525 0 CURVE SMOOTH",
"642.33 0 OFFCURVE",
"740.33 46.33 OFFCURVE",
"819 139 CURVE",
"819.67 21.67 OFFCURVE",
"815.33 -55.33 OFFCURVE",
"806 -92 CURVE SMOOTH",
"790 -152 OFFCURVE",
"759.33 -198.67 OFFCURVE",
"714 -232 CURVE SMOOTH",
"668.67 -265.33 OFFCURVE",
"604.33 -282 OFFCURVE",
"521 -282 CURVE SMOOTH",
"443.67 -282 OFFCURVE",
"382.67 -265.33 OFFCURVE",
"338 -232 CURVE SMOOTH",
"304.67 -207.33 OFFCURVE",
"284.33 -168 OFFCURVE",
"277 -114 CURVE"
);
},
{
closed = 1;
nodes = (
"251 678 OFFCURVE",
"279 774.5 OFFCURVE",
"335 839.5 CURVE SMOOTH",
"391 904.5 OFFCURVE",
"459 937 OFFCURVE",
"539 937 CURVE SMOOTH",
"620.33 937 OFFCURVE",
"689.83 904 OFFCURVE",
"747.5 838 CURVE SMOOTH",
"805.17 772 OFFCURVE",
"834 674 OFFCURVE",
"834 544 CURVE SMOOTH",
"834 408 OFFCURVE",
"806 308.17 OFFCURVE",
"750 244.5 CURVE SMOOTH",
"694 180.83 OFFCURVE",
"624.67 149 OFFCURVE",
"542 149 CURVE SMOOTH",
"458.67 149 OFFCURVE",
"389.33 181 OFFCURVE",
"334 245 CURVE SMOOTH",
"278.67 309 OFFCURVE",
"251 410.67 OFFCURVE",
"251 550 CURVE SMOOTH"
);
}
);
width = 1139;
}
);
note = g;
unicode = 0067;
},
{
glyphname = h;
lastChange = "2018-11-05 04:35:17 +0000";
layers = (
{
layerId = "91004FFB-2E8A-4290-ADD0-E71DD0A9BF8D";
paths = (
{
closed = 1;
nodes = (
"135 0 LINE",
"315 0 LINE",
"315 581 LINE SMOOTH",
"315 664.33 OFFCURVE",
"325 729.67 OFFCURVE",
"345 777 CURVE SMOOTH",
"365 824.33 OFFCURVE",
"398.5 861.83 OFFCURVE",
"445.5 889.5 CURVE SMOOTH",
"492.5 917.17 OFFCURVE",
"542.67 931 OFFCURVE",
"596 931 CURVE SMOOTH",
"667.33 931 OFFCURVE",
"722.5 910.5 OFFCURVE",
"761.5 869.5 CURVE SMOOTH",
"800.5 828.5 OFFCURVE",
"820 763 OFFCURVE",
"820 673 CURVE SMOOTH",
"820 0 LINE",
"1000 0 LINE",
"1000 673 LINE SMOOTH",
"1000 777 OFFCURVE",
"987.5 856.33 OFFCURVE",
"962.5 911 CURVE SMOOTH",
"937.5 965.67 OFFCURVE",
"896 1008.5 OFFCURVE",
"838 1039.5 CURVE SMOOTH",
"780 1070.5 OFFCURVE",
"711.67 1086 OFFCURVE",
"633 1086 CURVE SMOOTH",
"505 1086 OFFCURVE",
"399 1037.33 OFFCURVE",
"315 940 CURVE",
"315 1466 LINE",
"135 1466 LINE"
);
}
);
width = 1139;
}
);
note = h;
unicode = 0068;
},
{
glyphname = i;
lastChange = "2018-11-05 04:35:17 +0000";
layers = (
{
layerId = "91004FFB-2E8A-4290-ADD0-E71DD0A9BF8D";
paths = (
{
closed = 1;
nodes = (
"136 1259 LINE",
"316 1259 LINE",
"316 1466 LINE",
"136 1466 LINE"
);
},
{
closed = 1;
nodes = (
"136 0 LINE",
"316 0 LINE",
"316 1062 LINE",
"136 1062 LINE"
);
}
);
width = 455;
}
);
note = i;
unicode = 0069;
},
{
glyphname = j;
lastChange = "2018-11-05 04:35:17 +0000";
layers = (
{
layerId = "91004FFB-2E8A-4290-ADD0-E71DD0A9BF8D";
paths = (
{
closed = 1;
nodes = (
"134 1257 LINE",
"314 1257 LINE",
"314 1466 LINE",
"134 1466 LINE"
);
},
{
closed = 1;
nodes = (
"-94 -412 LINE",
"-48.67 -424.67 OFFCURVE",
"-1.67 -431 OFFCURVE",
"47 -431 CURVE SMOOTH",
"147.67 -431 OFFCURVE",
"219.67 -397.67 OFFCURVE",
"263 -331 CURVE SMOOTH",
"297 -279.67 OFFCURVE",
"314 -188.67 OFFCURVE",
"314 -58 CURVE SMOOTH",
"314 1062 LINE",
"134 1062 LINE",
"134 -54 LINE SMOOTH",
"134 -151.33 OFFCURVE",
"125 -212.17 OFFCURVE",
"107 -236.5 CURVE SMOOTH",
"89 -260.83 OFFCURVE",
"61.67 -273 OFFCURVE",
"25 -273 CURVE SMOOTH",
"4.33 -273 OFFCURVE",
"-24 -268.33 OFFCURVE",
"-60 -259 CURVE"
);
}
);
width = 455;
}
);
note = j;
unicode = 006A;
},
{
glyphname = k;
lastChange = "2018-11-05 04:35:17 +0000";
layers = (
{
layerId = "91004FFB-2E8A-4290-ADD0-E71DD0A9BF8D";
paths = (
{
closed = 1;
nodes = (
"136 0 LINE",
"316 0 LINE",
"316 421 LINE",
"443 543 LINE",
"794 0 LINE",
"1016 0 LINE",
"569 668 LINE",
"975 1062 LINE",
"742 1062 LINE",
"316 630 LINE",
"316 1466 LINE",
"136 1466 LINE"
);
}
);
width = 1024;
}
);
note = k;
unicode = 006B;
},
{
glyphname = l;
lastChange = "2018-11-05 04:35:17 +0000";
layers = (
{
layerId = "91004FFB-2E8A-4290-ADD0-E71DD0A9BF8D";
paths = (
{
closed = 1;
nodes = (
"131 0 LINE",
"311 0 LINE",
"311 1466 LINE",
"131 1466 LINE"
);
}
);
width = 455;
}
);
note = l;
unicode = 006C;
},
{
glyphname = m;
lastChange = "2018-11-05 04:35:17 +0000";
layers = (
{
layerId = "91004FFB-2E8A-4290-ADD0-E71DD0A9BF8D";
paths = (
{
closed = 1;
nodes = (
"135 0 LINE",
"315 0 LINE",
"315 551 LINE SMOOTH",
"315 647.67 OFFCURVE",
"324.67 721.67 OFFCURVE",
"344 773 CURVE SMOOTH",
"363.33 824.33 OFFCURVE",
"394.5 863.33 OFFCURVE",
"437.5 890 CURVE SMOOTH",
"480.5 916.67 OFFCURVE",
"527.33 930 OFFCURVE",
"578 930 CURVE SMOOTH",
"644.67 930 OFFCURVE",
"692.67 910 OFFCURVE",
"722 870 CURVE SMOOTH",
"751.33 830 OFFCURVE",
"766 770 OFFCURVE",
"766 690 CURVE SMOOTH",
"766 0 LINE",
"946 0 LINE",
"946 617 LINE SMOOTH",
"946 726.33 OFFCURVE",
"970.67 805.83 OFFCURVE",
"1020 855.5 CURVE SMOOTH",
"1069.33 905.17 OFFCURVE",
"1131.33 930 OFFCURVE",
"1206 930 CURVE SMOOTH",
"1247.33 930 OFFCURVE",
"1283.33 920.33 OFFCURVE",
"1314 901 CURVE SMOOTH",
"1344.67 881.67 OFFCURVE",
"1365.83 856.17 OFFCURVE",
"1377.5 824.5 CURVE SMOOTH",
"1389.17 792.83 OFFCURVE",
"1395 741 OFFCURVE",
"1395 669 CURVE SMOOTH",
"1395 0 LINE",
"1574 0 LINE",
"1574 729 LINE SMOOTH",
"1574 850.33 OFFCURVE",
"1545.67 940.17 OFFCURVE",
"1489 998.5 CURVE SMOOTH",
"1432.33 1056.83 OFFCURVE",
"1351.33 1086 OFFCURVE",
"1246 1086 CURVE SMOOTH",
"1111.33 1086 OFFCURVE",
"1002 1024 OFFCURVE",
"918 900 CURVE",
"897.33 958.67 OFFCURVE",
"861.83 1004.33 OFFCURVE",
"811.5 1037 CURVE SMOOTH",
"761.17 1069.67 OFFCURVE",
"696.67 1086 OFFCURVE",
"618 1086 CURVE SMOOTH",
"547.33 1086 OFFCURVE",
"484.33 1070.17 OFFCURVE",
"429 1038.5 CURVE SMOOTH",
"373.67 1006.83 OFFCURVE",
"329.33 965 OFFCURVE",
"296 913 CURVE",
"296 1062 LINE",
"135 1062 LINE"
);
}
);
width = 1706;
}
);
note = m;
unicode = 006D;
},
{
glyphname = n;
lastChange = "2018-11-05 04:35:17 +0000";
layers = (
{
layerId = "91004FFB-2E8A-4290-ADD0-E71DD0A9BF8D";
paths = (
{
closed = 1;
nodes = (
"135 0 LINE",
"315 0 LINE",
"315 580 LINE SMOOTH",
"315 716 OFFCURVE",
"342.83 808.33 OFFCURVE",
"398.5 857 CURVE SMOOTH",
"454.17 905.67 OFFCURVE",
"520.33 930 OFFCURVE",
"597 930 CURVE SMOOTH",
"645 930 OFFCURVE",
"686.83 919.17 OFFCURVE",
"722.5 897.5 CURVE SMOOTH",
"758.17 875.83 OFFCURVE",
"783 846.83 OFFCURVE",
"797 810.5 CURVE SMOOTH",
"811 774.17 OFFCURVE",
"818 719.33 OFFCURVE",
"818 646 CURVE SMOOTH",
"818 0 LINE",
"998 0 LINE",
"998 653 LINE SMOOTH",
"998 736.33 OFFCURVE",
"994.67 794.67 OFFCURVE",
"988 828 CURVE SMOOTH",
"977.33 879.33 OFFCURVE",
"958.67 923.67 OFFCURVE",
"932 961 CURVE SMOOTH",
"905.33 998.33 OFFCURVE",
"865.17 1028.5 OFFCURVE",
"811.5 1051.5 CURVE SMOOTH",
"757.83 1074.5 OFFCURVE",
"699 1086 OFFCURVE",
"635 1086 CURVE SMOOTH",
"487.67 1086 OFFCURVE",
"375 1027.67 OFFCURVE",
"297 911 CURVE",
"297 1062 LINE",
"135 1062 LINE"
);
}
);
width = 1139;
}
);
note = n;
unicode = 006E;
},
{
glyphname = o;
lastChange = "2018-11-05 04:35:17 +0000";
layers = (
{
layerId = "91004FFB-2E8A-4290-ADD0-E71DD0A9BF8D";
paths = (
{
closed = 1;
nodes = (
"68 351.67 OFFCURVE",
"113.83 214.33 OFFCURVE",
"205.5 119 CURVE SMOOTH",
"297.17 23.67 OFFCURVE",
"417.33 -24 OFFCURVE",
"566 -24 CURVE SMOOTH",
"658.67 -24 OFFCURVE",
"744.17 -2.33 OFFCURVE",
"822.5 41 CURVE SMOOTH",
"900.83 84.33 OFFCURVE",
"960.5 145.17 OFFCURVE",
"1001.5 223.5 CURVE SMOOTH",
"1042.5 301.83 OFFCURVE",
"1063 409.33 OFFCURVE",
"1063 546 CURVE SMOOTH",
"1063 714.67 OFFCURVE",
"1016.67 846.83 OFFCURVE",
"924 942.5 CURVE SMOOTH",
"831.33 1038.17 OFFCURVE",
"712 1086 OFFCURVE",
"566 1086 CURVE SMOOTH",
"434.67 1086 OFFCURVE",
"323.33 1046.67 OFFCURVE",
"232 968 CURVE SMOOTH",
"122.67 873.33 OFFCURVE",
"68 727.67 OFFCURVE",
"68 531 CURVE SMOOTH"
);
},
{
closed = 1;
nodes = (
"253 667 OFFCURVE",
"282.67 768.67 OFFCURVE",
"342 836 CURVE SMOOTH",
"401.33 903.33 OFFCURVE",
"476 937 OFFCURVE",
"566 937 CURVE SMOOTH",
"654.67 937 OFFCURVE",
"728.83 903.17 OFFCURVE",
"788.5 835.5 CURVE SMOOTH",
"848.17 767.83 OFFCURVE",
"878 668.33 OFFCURVE",
"878 537 CURVE SMOOTH",
"878 397.67 OFFCURVE",
"848.33 294 OFFCURVE",
"789 226 CURVE SMOOTH",
"729.67 158 OFFCURVE",
"655.33 124 OFFCURVE",
"566 124 CURVE SMOOTH",
"476 124 OFFCURVE",
"401.33 157.83 OFFCURVE",
"342 225.5 CURVE SMOOTH",
"282.67 293.17 OFFCURVE",
"253 395 OFFCURVE",
"253 531 CURVE SMOOTH"
);
}
);
width = 1139;
}
);
note = o;
unicode = 006F;
},
{
glyphname = p;
lastChange = "2018-11-05 04:35:17 +0000";
layers = (
{
layerId = "91004FFB-2E8A-4290-ADD0-E71DD0A9BF8D";
paths = (
{
closed = 1;
nodes = (
"135 -407 LINE",
"315 -407 LINE",
"315 110 LINE",
"345.67 71.33 OFFCURVE",
"384.83 39.33 OFFCURVE",
"432.5 14 CURVE SMOOTH",
"480.17 -11.33 OFFCURVE",
"534 -24 OFFCURVE",
"594 -24 CURVE SMOOTH",
"676 -24 OFFCURVE",
"754.17 -0.83 OFFCURVE",
"828.5 45.5 CURVE SMOOTH",
"902.83 91.83 OFFCURVE",
"959.5 158.5 OFFCURVE",
"998.5 245.5 CURVE SMOOTH",
"1037.5 332.5 OFFCURVE",
"1057 430.33 OFFCURVE",
"1057 539 CURVE SMOOTH",
"1057 640.33 OFFCURVE",
"1039.33 733.5 OFFCURVE",
"1004 818.5 CURVE SMOOTH",
"968.67 903.5 OFFCURVE",
"916.33 969.33 OFFCURVE",
"847 1016 CURVE SMOOTH",
"777.67 1062.67 OFFCURVE",
"697.67 1086 OFFCURVE",
"607 1086 CURVE SMOOTH",
"537.67 1086 OFFCURVE",
"478.67 1072.5 OFFCURVE",
"430 1045.5 CURVE SMOOTH",
"381.33 1018.5 OFFCURVE",
"337.67 978 OFFCURVE",
"299 924 CURVE",
"299 1062 LINE",
"135 1062 LINE"
);
},
{
closed = 1;
nodes = (
"298 661.67 OFFCURVE",
"327.5 765.83 OFFCURVE",
"386.5 837.5 CURVE SMOOTH",
"445.5 909.17 OFFCURVE",
"513.33 945 OFFCURVE",
"590 945 CURVE SMOOTH",
"667.33 945 OFFCURVE",
"733.83 911.33 OFFCURVE",
"789.5 844 CURVE SMOOTH",
"845.17 776.67 OFFCURVE",
"873 675.33 OFFCURVE",
"873 540 CURVE SMOOTH",
"873 398 OFFCURVE",
"844.5 293.17 OFFCURVE",
"787.5 225.5 CURVE SMOOTH",
"730.5 157.83 OFFCURVE",
"662 124 OFFCURVE",
"582 124 CURVE SMOOTH",
"503.33 124 OFFCURVE",
"436.33 156.67 OFFCURVE",
"381 222 CURVE SMOOTH",
"325.67 287.33 OFFCURVE",
"298 388.33 OFFCURVE",
"298 525 CURVE SMOOTH"
);
}
);
width = 1139;
}
);
note = p;
unicode = 0070;
},
{
glyphname = q;
lastChange = "2018-11-05 04:35:17 +0000";
layers = (
{
layerId = "91004FFB-2E8A-4290-ADD0-E71DD0A9BF8D";
paths = (
{
closed = 1;
nodes = (
"812 -407 LINE",
"992 -407 LINE",
"992 1062 LINE",
"830 1062 LINE",
"830 920 LINE",
"754.67 1030.67 OFFCURVE",
"651.33 1086 OFFCURVE",
"520 1086 CURVE SMOOTH",
"436 1086 OFFCURVE",
"358.83 1064.17 OFFCURVE",
"288.5 1020.5 CURVE SMOOTH",
"218.17 976.83 OFFCURVE",
"164.5 912.67 OFFCURVE",
"127.5 828 CURVE SMOOTH",
"90.5 743.33 OFFCURVE",
"72 647.67 OFFCURVE",
"72 541 CURVE SMOOTH",
"72 365.67 OFFCURVE",
"117.5 227.67 OFFCURVE",
"208.5 127 CURVE SMOOTH",
"299.5 26.33 OFFCURVE",
"408 -24 OFFCURVE",
"534 -24 CURVE SMOOTH",
"590.67 -24 OFFCURVE",
"644.17 -11 OFFCURVE",
"694.5 15 CURVE SMOOTH",
"744.83 41 OFFCURVE",
"784 73.67 OFFCURVE",
"812 113 CURVE"
);
},
{
closed = 1;
nodes = (
"257 674.67 OFFCURVE",
"284.17 778.17 OFFCURVE",
"338.5 844.5 CURVE SMOOTH",
"392.83 910.83 OFFCURVE",
"459 944 OFFCURVE",
"537 944 CURVE SMOOTH",
"615.67 944 OFFCURVE",
"684.17 908.33 OFFCURVE",
"742.5 837 CURVE SMOOTH",
"800.83 765.67 OFFCURVE",
"830 659.33 OFFCURVE",
"830 518 CURVE SMOOTH",
"830 385.33 OFFCURVE",
"802.33 286.5 OFFCURVE",
"747 221.5 CURVE SMOOTH",
"691.67 156.5 OFFCURVE",
"625.67 124 OFFCURVE",
"549 124 CURVE SMOOTH",
"469 124 OFFCURVE",
"400.33 158.17 OFFCURVE",
"343 226.5 CURVE SMOOTH",
"285.67 294.83 OFFCURVE",
"257 397.33 OFFCURVE",
"257 534 CURVE SMOOTH"
);
}
);
width = 1139;
}
);
note = q;
unicode = 0071;
},
{
glyphname = r;
lastChange = "2018-11-05 04:35:17 +0000";
layers = (
{
layerId = "91004FFB-2E8A-4290-ADD0-E71DD0A9BF8D";
paths = (
{
closed = 1;
nodes = (
"133 0 LINE",
"313 0 LINE",
"313 556 LINE SMOOTH",
"313 632 OFFCURVE",
"323 702 OFFCURVE",
"343 766 CURVE SMOOTH",
"356.33 808 OFFCURVE",
"378.67 840.83 OFFCURVE",
"410 864.5 CURVE SMOOTH",
"441.33 888.17 OFFCURVE",
"476.67 900 OFFCURVE",
"516 900 CURVE SMOOTH",
"560 900 OFFCURVE",
"604 887 OFFCURVE",
"648 861 CURVE",
"710 1028 LINE",
"647.33 1066.67 OFFCURVE",
"585.67 1086 OFFCURVE",
"525 1086 CURVE SMOOTH",
"483 1086 OFFCURVE",
"444.5 1074 OFFCURVE",
"409.5 1050 CURVE SMOOTH",
"374.5 1026 OFFCURVE",
"336.33 976.33 OFFCURVE",
"295 901 CURVE",
"295 1062 LINE",
"133 1062 LINE"
);
}
);
width = 682;
}
);
note = r;
unicode = 0072;
},
{
glyphname = s;
lastChange = "2018-11-05 04:35:17 +0000";
layers = (
{
layerId = "91004FFB-2E8A-4290-ADD0-E71DD0A9BF8D";
paths = (
{
closed = 1;
nodes = (
"63 317 LINE",
"83 204.33 OFFCURVE",
"129.17 119.33 OFFCURVE",
"201.5 62 CURVE SMOOTH",
"273.83 4.67 OFFCURVE",
"379 -24 OFFCURVE",
"517 -24 CURVE SMOOTH",
"600.33 -24 OFFCURVE",
"675 -9.5 OFFCURVE",
"741 19.5 CURVE SMOOTH",
"807 48.5 OFFCURVE",
"857.5 89.5 OFFCURVE",
"892.5 142.5 CURVE SMOOTH",
"927.5 195.5 OFFCURVE",
"945 252 OFFCURVE",
"945 312 CURVE SMOOTH",
"945 373.33 OFFCURVE",
"930.67 424.67 OFFCURVE",
"902 466 CURVE SMOOTH",
"873.33 507.33 OFFCURVE",
"833.83 538.83 OFFCURVE",
"783.5 560.5 CURVE SMOOTH",
"733.17 582.17 OFFCURVE",
"644.33 610 OFFCURVE",
"517 644 CURVE SMOOTH",
"429 668 OFFCURVE",
"376 683.33 OFFCURVE",
"358 690 CURVE SMOOTH",
"326.67 702.67 OFFCURVE",
"303.67 718.67 OFFCURVE",
"289 738 CURVE SMOOTH",
"274.33 756.67 OFFCURVE",
"267 777.67 OFFCURVE",
"267 801 CURVE SMOOTH",
"267 837.67 OFFCURVE",
"284.67 869.67 OFFCURVE",
"320 897 CURVE SMOOTH",
"355.33 924.33 OFFCURVE",
"414.33 938 OFFCURVE",
"497 938 CURVE SMOOTH",
"567 938 OFFCURVE",
"621.17 922.67 OFFCURVE",
"659.5 892 CURVE SMOOTH",
"697.83 861.33 OFFCURVE",
"721 818.67 OFFCURVE",
"729 764 CURVE",
"905 788 LINE",
"893.67 856.67 OFFCURVE",
"873 911.5 OFFCURVE",
"843 952.5 CURVE SMOOTH",
"813 993.5 OFFCURVE",
"766.5 1026 OFFCURVE",
"703.5 1050 CURVE SMOOTH",
"640.5 1074 OFFCURVE",
"567.33 1086 OFFCURVE",
"484 1086 CURVE SMOOTH",
"428.67 1086 OFFCURVE",
"376.83 1078.83 OFFCURVE",
"328.5 1064.5 CURVE SMOOTH",
"280.17 1050.17 OFFCURVE",
"242 1032.67 OFFCURVE",
"214 1012 CURVE SMOOTH",
"176.67 985.33 OFFCURVE",
"147.17 951.83 OFFCURVE",
"125.5 911.5 CURVE SMOOTH",
"103.83 871.17 OFFCURVE",
"93 827.33 OFFCURVE",
"93 780 CURVE SMOOTH",
"93 728 OFFCURVE",
"106.17 680.5 OFFCURVE",
"132.5 637.5 CURVE SMOOTH",
"158.83 594.5 OFFCURVE",
"197.5 560.83 OFFCURVE",
"248.5 536.5 CURVE SMOOTH",
"299.5 512.17 OFFCURVE",
"391 483.33 OFFCURVE",
"523 450 CURVE SMOOTH",
"621 425.33 OFFCURVE",
"682.33 405 OFFCURVE",
"707 389 CURVE SMOOTH",
"742.33 365.67 OFFCURVE",
"760 333.67 OFFCURVE",
"760 293 CURVE SMOOTH",
"760 247.67 OFFCURVE",
"740 208.17 OFFCURVE",
"700 174.5 CURVE SMOOTH",
"660 140.83 OFFCURVE",
"598.67 124 OFFCURVE",
"516 124 CURVE SMOOTH",
"434 124 OFFCURVE",
"370.17 143 OFFCURVE",
"324.5 181 CURVE SMOOTH",
"278.83 219 OFFCURVE",
"251 273.67 OFFCURVE",
"241 345 CURVE"
);
}
);
width = 1024;
}
);
note = s;
unicode = 0073;
},
{
glyphname = t;
lastChange = "2018-11-05 04:35:17 +0000";
layers = (
{
layerId = "91004FFB-2E8A-4290-ADD0-E71DD0A9BF8D";
paths = (
{
closed = 1;
nodes = (
"528 161 LINE",
"495.33 156.33 OFFCURVE",
"469 154 OFFCURVE",
"449 154 CURVE SMOOTH",
"422.33 154 OFFCURVE",
"401.83 158.33 OFFCURVE",
"387.5 167 CURVE SMOOTH",
"373.17 175.67 OFFCURVE",
"362.83 187.33 OFFCURVE",
"356.5 202 CURVE SMOOTH",
"350.17 216.67 OFFCURVE",
"347 249.67 OFFCURVE",
"347 301 CURVE SMOOTH",
"347 922 LINE",
"528 922 LINE",
"528 1062 LINE",
"347 1062 LINE",
"347 1433 LINE",
"168 1325 LINE",
"168 1062 LINE",
"36 1062 LINE",
"36 922 LINE",
"168 922 LINE",
"168 311 LINE SMOOTH",
"168 203 OFFCURVE",
"175.33 132.17 OFFCURVE",
"190 98.5 CURVE SMOOTH",
"204.67 64.83 OFFCURVE",
"230 37.67 OFFCURVE",
"266 17 CURVE SMOOTH",
"302 -3.67 OFFCURVE",
"352.67 -14 OFFCURVE",
"418 -14 CURVE SMOOTH",
"458 -14 OFFCURVE",
"503.33 -8.67 OFFCURVE",
"554 2 CURVE"
);
}
);
width = 569;
}
);
note = t;
unicode = 0074;
},
{
glyphname = u;
lastChange = "2018-11-05 04:35:17 +0000";
layers = (
{
layerId = "91004FFB-2E8A-4290-ADD0-E71DD0A9BF8D";
paths = (
{
closed = 1;
nodes = (
"831 0 LINE",
"992 0 LINE",
"992 1062 LINE",
"812 1062 LINE",
"812 493 LINE SMOOTH",
"812 402.33 OFFCURVE",
"802.17 333.17 OFFCURVE",
"782.5 285.5 CURVE SMOOTH",
"762.83 237.83 OFFCURVE",
"729.33 200.17 OFFCURVE",
"682 172.5 CURVE SMOOTH",
"634.67 144.83 OFFCURVE",
"584 131 OFFCURVE",
"530 131 CURVE SMOOTH",
"476 131 OFFCURVE",
"430.67 144.5 OFFCURVE",
"394 171.5 CURVE SMOOTH",
"357.33 198.5 OFFCURVE",
"333.33 235.67 OFFCURVE",
"322 283 CURVE SMOOTH",
"314.67 315.67 OFFCURVE",
"311 379 OFFCURVE",
"311 473 CURVE SMOOTH",
"311 1062 LINE",
"131 1062 LINE",
"131 404 LINE SMOOTH",
"131 327.33 OFFCURVE",
"134.67 271.33 OFFCURVE",
"142 236 CURVE SMOOTH",
"152.67 183.33 OFFCURVE",
"171.17 138.83 OFFCURVE",
"197.5 102.5 CURVE SMOOTH",
"223.83 66.17 OFFCURVE",
"264.17 36 OFFCURVE",
"318.5 12 CURVE SMOOTH",
"372.83 -12 OFFCURVE",
"431.33 -24 OFFCURVE",
"494 -24 CURVE SMOOTH",
"636 -24 OFFCURVE",
"748.33 36 OFFCURVE",
"831 156 CURVE"
);
}
);
width = 1139;
}
);
note = u;
unicode = 0075;
},
{
glyphname = v;
lastChange = "2018-11-05 04:35:17 +0000";
layers = (
{
layerId = "91004FFB-2E8A-4290-ADD0-E71DD0A9BF8D";
paths = (
{
closed = 1;
nodes = (
"430 0 LINE",
"598 0 LINE",
"1000 1062 LINE",
"815 1062 LINE",
"579 414 LINE SMOOTH",
"550.33 335.33 OFFCURVE",
"528 268 OFFCURVE",
"512 212 CURVE",
"491.33 286 OFFCURVE",
"468.67 357.33 OFFCURVE",
"444 426 CURVE SMOOTH",
"216 1062 LINE",
"26 1062 LINE"
);
}
);
width = 1024;
}
);
note = v;
unicode = 0076;
},
{
glyphname = w;
lastChange = "2018-11-05 04:35:17 +0000";
layers = (
{
layerId = "91004FFB-2E8A-4290-ADD0-E71DD0A9BF8D";
paths = (
{
closed = 1;
nodes = (
"331 0 LINE",
"519 0 LINE",
"734 817 LINE",
"775 636 LINE",
"944 0 LINE",
"1131 0 LINE",
"1463 1062 LINE",
"1288 1062 LINE",
"1106 448 LINE",
"1045 243 LINE",
"992 446 LINE",
"833 1062 LINE",
"648 1062 LINE",
"479 440 LINE SMOOTH",
"445 305.33 OFFCURVE",
"426.67 232.33 OFFCURVE",
"424 221 CURVE",
"361 449 LINE",
"192 1062 LINE",
"6 1062 LINE"
);
}
);
width = 1479;
}
);
note = w;
unicode = 0077;
},
{
glyphname = x;
lastChange = "2018-11-05 04:35:17 +0000";
layers = (
{
layerId = "91004FFB-2E8A-4290-ADD0-E71DD0A9BF8D";
paths = (
{
closed = 1;
nodes = (
"15 0 LINE",
"233 0 LINE",
"512 419 LINE",
"570 330 LINE",
"788 0 LINE",
"1009 0 LINE",
"614 562 LINE",
"981 1062 LINE",
"766 1062 LINE",
"587 811 LINE SMOOTH",
"562.33 777 OFFCURVE",
"535.33 738 OFFCURVE",
"506 694 CURVE",
"487.33 726 OFFCURVE",
"462.67 765.67 OFFCURVE",
"432 813 CURVE SMOOTH",
"269 1062 LINE",
"44 1062 LINE",
"403 552 LINE"
);
}
);
width = 1024;
}
);
note = x;
unicode = 0078;
},
{
glyphname = y;
lastChange = "2018-11-05 04:35:17 +0000";
layers = (
{
layerId = "91004FFB-2E8A-4290-ADD0-E71DD0A9BF8D";
paths = (
{
closed = 1;
nodes = (
"127 -409 LINE",
"169.67 -423.67 OFFCURVE",
"208.33 -431 OFFCURVE",
"243 -431 CURVE SMOOTH",
"300.33 -431 OFFCURVE",
"349.67 -417.17 OFFCURVE",
"391 -389.5 CURVE SMOOTH",
"432.33 -361.83 OFFCURVE",
"469 -318.33 OFFCURVE",
"501 -259 CURVE SMOOTH",
"525 -215 OFFCURVE",
"558.67 -134.67 OFFCURVE",
"602 -18 CURVE SMOOTH",
"1006 1062 LINE",
"826 1062 LINE",
"599 443 LINE SMOOTH",
"570.33 364.33 OFFCURVE",
"545.67 283.67 OFFCURVE",
"525 201 CURVE",
"502.33 287 OFFCURVE",
"476.67 369 OFFCURVE",
"448 447 CURVE SMOOTH",
"227 1062 LINE",
"33 1062 LINE",
"436 -2 LINE",
"428.67 -21.33 OFFCURVE",
"423.33 -36 OFFCURVE",
"420 -46 CURVE SMOOTH",
"394.67 -117.33 OFFCURVE",
"376.33 -162 OFFCURVE",
"365 -180 CURVE SMOOTH",
"349.67 -204 OFFCURVE",
"330 -222.67 OFFCURVE",
"306 -236 CURVE SMOOTH",
"282 -249.33 OFFCURVE",
"250 -256 OFFCURVE",
"210 -256 CURVE SMOOTH",
"180.67 -256 OFFCURVE",
"146.33 -250.67 OFFCURVE",
"107 -240 CURVE"
);
}
);
width = 1024;
}
);
note = y;
unicode = 0079;
},
{
glyphname = z;
lastChange = "2018-11-05 04:35:17 +0000";
layers = (
{
layerId = "91004FFB-2E8A-4290-ADD0-E71DD0A9BF8D";
paths = (
{
closed = 1;
nodes = (
"40 0 LINE",
"980 0 LINE",
"980 155 LINE",
"489 155 LINE SMOOTH",
"418.33 155 OFFCURVE",
"342.67 152 OFFCURVE",
"262 146 CURVE",
"373 269 LINE",
"948 943 LINE",
"948 1062 LINE",
"80 1062 LINE",
"80 916 LINE",
"513 916 LINE SMOOTH",
"571.67 916 OFFCURVE",
"639.33 918 OFFCURVE",
"716 922 CURVE",
"40 146 LINE"
);
}
);
width = 1024;
}
);
note = z;
unicode = 007A;
},
{
glyphname = braceleft;
lastChange = "2018-11-05 04:35:17 +0000";
layers = (
{
layerId = "91004FFB-2E8A-4290-ADD0-E71DD0A9BF8D";
paths = (
{
closed = 1;
nodes = (
"57 449 LINE",
"108.33 447.67 OFFCURVE",
"150.17 433.67 OFFCURVE",
"182.5 407 CURVE SMOOTH",
"214.83 380.33 OFFCURVE",
"236.33 344 OFFCURVE",
"247 298 CURVE SMOOTH",
"257.67 252 OFFCURVE",
"263.33 169 OFFCURVE",
"264 49 CURVE SMOOTH",
"264.67 -71 OFFCURVE",
"269.17 -157.33 OFFCURVE",
"277.5 -210 CURVE SMOOTH",
"285.83 -262.67 OFFCURVE",
"304 -306.17 OFFCURVE",
"332 -340.5 CURVE SMOOTH",
"360 -374.83 OFFCURVE",
"395.33 -399.67 OFFCURVE",
"438 -415 CURVE SMOOTH",
"467.33 -425.67 OFFCURVE",
"514.67 -431 OFFCURVE",
"580 -431 CURVE SMOOTH",
"636 -431 LINE",
"636 -274 LINE",
"605 -274 LINE SMOOTH",
"541.67 -274 OFFCURVE",
"499.17 -265 OFFCURVE",
"477.5 -247 CURVE SMOOTH",
"455.83 -229 OFFCURVE",
"442.33 -197.33 OFFCURVE",
"437 -152 CURVE SMOOTH",
"434.33 -127.33 OFFCURVE",
"433 -50 OFFCURVE",
"433 80 CURVE SMOOTH",
"433 223.33 OFFCURVE",
"416.5 326.5 OFFCURVE",
"383.5 389.5 CURVE SMOOTH",
"350.5 452.5 OFFCURVE",
"297.33 499.33 OFFCURVE",
"224 530 CURVE",
"286 560 OFFCURVE",
"331.5 594.33 OFFCURVE",
"360.5 633 CURVE SMOOTH",
"389.5 671.67 OFFCURVE",
"410 726.67 OFFCURVE",
"422 798 CURVE SMOOTH",
"429.33 844 OFFCURVE",
"433 954.33 OFFCURVE",
"433 1129 CURVE SMOOTH",
"433 1215.67 OFFCURVE",
"444.33 1271.5 OFFCURVE",
"467 1296.5 CURVE SMOOTH",
"489.67 1321.5 OFFCURVE",
"535.67 1334 OFFCURVE",
"605 1334 CURVE SMOOTH",
"636 1334 LINE",
"636 1491 LINE",
"580 1491 LINE SMOOTH",
"522.67 1491 OFFCURVE",
"481.33 1487.67 OFFCURVE",
"456 1481 CURVE SMOOTH",
"418.67 1470.33 OFFCURVE",
"388 1454.83 OFFCURVE",
"364 1434.5 CURVE SMOOTH",
"340 1414.17 OFFCURVE",
"319.83 1387 OFFCURVE",
"303.5 1353 CURVE SMOOTH",
"287.17 1319 OFFCURVE",
"276 1274 OFFCURVE",
"270 1218 CURVE SMOOTH",
"266.67 1182.67 OFFCURVE",
"264.67 1109.33 OFFCURVE",
"264 998 CURVE SMOOTH",
"263.33 886.67 OFFCURVE",
"257.67 808 OFFCURVE",
"247 762 CURVE SMOOTH",
"236.33 716 OFFCURVE",
"214.83 679.83 OFFCURVE",
"182.5 653.5 CURVE SMOOTH",
"150.17 627.17 OFFCURVE",
"108.33 613.33 OFFCURVE",
"57 612 CURVE"
);
}
);
width = 684;
}
);
note = braceleft;
unicode = 007B;
},
{
glyphname = bar;
lastChange = "2018-11-05 04:35:17 +0000";
layers = (
{
layerId = "91004FFB-2E8A-4290-ADD0-E71DD0A9BF8D";
paths = (
{
closed = 1;
nodes = (
"188 -431 LINE",
"345 -431 LINE",
"345 1491 LINE",
"188 1491 LINE"
);
}
);
width = 532;
}
);
note = bar;
unicode = 007C;
},
{
glyphname = braceright;
lastChange = "2018-11-05 04:35:17 +0000";
layers = (
{
layerId = "91004FFB-2E8A-4290-ADD0-E71DD0A9BF8D";
paths = (
{
closed = 1;
nodes = (
"626 612 LINE",
"574.67 613.33 OFFCURVE",
"532.83 627.33 OFFCURVE",
"500.5 654 CURVE SMOOTH",
"468.17 680.67 OFFCURVE",
"446.67 716.83 OFFCURVE",
"436 762.5 CURVE SMOOTH",
"425.33 808.17 OFFCURVE",
"419.67 891 OFFCURVE",
"419 1011 CURVE SMOOTH",
"418.33 1131 OFFCURVE",
"413.83 1217.33 OFFCURVE",
"405.5 1270 CURVE SMOOTH",
"397.17 1322.67 OFFCURVE",
"379 1366.33 OFFCURVE",
"351 1401 CURVE SMOOTH",
"323 1435.67 OFFCURVE",
"287.67 1460.33 OFFCURVE",
"245 1475 CURVE SMOOTH",
"215.67 1485.67 OFFCURVE",
"168.33 1491 OFFCURVE",
"103 1491 CURVE SMOOTH",
"47 1491 LINE",
"47 1334 LINE",
"78 1334 LINE SMOOTH",
"141.33 1334 OFFCURVE",
"183.83 1325.17 OFFCURVE",
"205.5 1307.5 CURVE SMOOTH",
"227.17 1289.83 OFFCURVE",
"240.33 1258.67 OFFCURVE",
"245 1214 CURVE SMOOTH",
"248.33 1188.67 OFFCURVE",
"250 1111 OFFCURVE",
"250 981 CURVE SMOOTH",
"250 837.67 OFFCURVE",
"265.67 735.83 OFFCURVE",
"297 675.5 CURVE SMOOTH",
"328.33 615.17 OFFCURVE",
"382.33 566.67 OFFCURVE",
"459 530 CURVE",
"400.33 505.33 OFFCURVE",
"355 470.83 OFFCURVE",
"323 426.5 CURVE SMOOTH",
"291 382.17 OFFCURVE",
"269.67 323 OFFCURVE",
"259 249 CURVE SMOOTH",
"253 204.33 OFFCURVE",
"250 98.67 OFFCURVE",
"250 -68 CURVE SMOOTH",
"250 -155.33 OFFCURVE",
"238.67 -211.5 OFFCURVE",
"216 -236.5 CURVE SMOOTH",
"193.33 -261.5 OFFCURVE",
"147.33 -274 OFFCURVE",
"78 -274 CURVE SMOOTH",
"47 -274 LINE",
"47 -431 LINE",
"103 -431 LINE SMOOTH",
"160.33 -431 OFFCURVE",
"201.67 -427.33 OFFCURVE",
"227 -420 CURVE SMOOTH",
"264.33 -409.33 OFFCURVE",
"295 -393.83 OFFCURVE",
"319 -373.5 CURVE SMOOTH",
"343 -353.17 OFFCURVE",
"363.17 -326.17 OFFCURVE",
"379.5 -292.5 CURVE SMOOTH",
"395.83 -258.83 OFFCURVE",
"407 -213.67 OFFCURVE",
"413 -157 CURVE SMOOTH",
"416.33 -121.67 OFFCURVE",
"418.33 -48.33 OFFCURVE",
"419 63 CURVE SMOOTH",
"419.67 174.33 OFFCURVE",
"425.33 252.83 OFFCURVE",
"436 298.5 CURVE SMOOTH",
"446.67 344.17 OFFCURVE",
"468.17 380.33 OFFCURVE",
"500.5 407 CURVE SMOOTH",
"532.83 433.67 OFFCURVE",
"574.67 447.67 OFFCURVE",
"626 449 CURVE"
);
}
);
width = 684;
}
);
note = braceright;
unicode = 007D;
},
{
glyphname = asciitilde;
lastChange = "2018-11-05 04:35:17 +0000";
layers = (
{
layerId = "91004FFB-2E8A-4290-ADD0-E71DD0A9BF8D";
paths = (
{
closed = 1;
nodes = (
"87 557 LINE",
"143 611 OFFCURVE",
"189.83 647.17 OFFCURVE",
"227.5 665.5 CURVE SMOOTH",
"265.17 683.83 OFFCURVE",
"305.33 693 OFFCURVE",
"348 693 CURVE SMOOTH",
"400.67 693 OFFCURVE",
"466.5 675.33 OFFCURVE",
"545.5 640 CURVE SMOOTH",
"624.5 604.67 OFFCURVE",
"682.17 582.33 OFFCURVE",
"718.5 573 CURVE SMOOTH",
"754.83 563.67 OFFCURVE",
"793 559 OFFCURVE",
"833 559 CURVE SMOOTH",
"887.67 559 OFFCURVE",
"936.83 568 OFFCURVE",
"980.5 586 CURVE SMOOTH",
"1024.17 604 OFFCURVE",
"1067.33 633 OFFCURVE",
"1110 673 CURVE",
"1110 885 LINE",
"1074 845.67 OFFCURVE",
"1032.83 813 OFFCURVE",
"986.5 787 CURVE SMOOTH",
"940.17 761 OFFCURVE",
"895.33 748 OFFCURVE",
"852 748 CURVE SMOOTH",
"828.67 748 OFFCURVE",
"805.5 751 OFFCURVE",
"782.5 757 CURVE SMOOTH",
"759.5 763 OFFCURVE",
"725 775.67 OFFCURVE",
"679 795 CURVE SMOOTH",
"597.67 829.67 OFFCURVE",
"535 852.83 OFFCURVE",
"491 864.5 CURVE SMOOTH",
"447 876.17 OFFCURVE",
"405 882 OFFCURVE",
"365 882 CURVE SMOOTH",
"250.33 882 OFFCURVE",
"157.67 842 OFFCURVE",
"87 762 CURVE"
);
}
);
width = 1196;
}
);
note = asciitilde;
unicode = 007E;
},
{
glyphname = exclamdown;
lastChange = "2018-11-05 04:35:17 +0000";
layers = (
{
layerId = "91004FFB-2E8A-4290-ADD0-E71DD0A9BF8D";
paths = (
{
closed = 1;
nodes = (
"447 1062 LINE",
"240 1062 LINE",
"240 857 LINE",
"447 857 LINE"
);
},
{
closed = 1;
nodes = (
"400 697 LINE",
"284 697 LINE",
"232 -79 LINE",
"232 -404 LINE",
"455 -404 LINE",
"455 -79 LINE"
);
}
);
width = 682;
}
);
note = exclamdown;
unicode = 00A1;
},
{
glyphname = cent;
lastChange = "2018-11-05 04:35:17 +0000";
layers = (
{
layerId = "91004FFB-2E8A-4290-ADD0-E71DD0A9BF8D";
paths = (
{
closed = 1;
nodes = (
"744 894 LINE",
"790.67 854.67 OFFCURVE",
"822.67 797.67 OFFCURVE",
"840 723 CURVE",
"1015 750 LINE",
"1001 822.67 OFFCURVE",
"976.33 883.17 OFFCURVE",
"941 931.5 CURVE SMOOTH",
"905.67 979.83 OFFCURVE",
"855 1018.33 OFFCURVE",
"789 1047 CURVE",
"901 1434 LINE",
"791 1466 LINE",
"678 1079 LINE",
"635.33 1084.33 OFFCURVE",
"602 1087 OFFCURVE",
"578 1087 CURVE SMOOTH",
"497.33 1087 OFFCURVE",
"418.17 1065.67 OFFCURVE",
"340.5 1023 CURVE SMOOTH",
"262.83 980.33 OFFCURVE",
"204.5 916.5 OFFCURVE",
"165.5 831.5 CURVE SMOOTH",
"126.5 746.5 OFFCURVE",
"107 644.67 OFFCURVE",
"107 526 CURVE SMOOTH",
"107 397.33 OFFCURVE",
"131.33 290.17 OFFCURVE",
"180 204.5 CURVE SMOOTH",
"228.67 118.83 OFFCURVE",
"291.33 57.67 OFFCURVE",
"368 21 CURVE",
"253 -377 LINE",
"365 -409 LINE",
"483 -14 LINE",
"519 -23.33 OFFCURVE",
"553.33 -28 OFFCURVE",
"586 -28 CURVE SMOOTH",
"698 -28 OFFCURVE",
"795.17 7.33 OFFCURVE",
"877.5 78 CURVE SMOOTH",
"959.83 148.67 OFFCURVE",
"1012 245.67 OFFCURVE",
"1034 369 CURVE",
"855 389 LINE",
"843.67 303.67 OFFCURVE",
"812.83 237.33 OFFCURVE",
"762.5 190 CURVE SMOOTH",
"712.17 142.67 OFFCURVE",
"652.33 119 OFFCURVE",
"583 119 CURVE SMOOTH",
"564.33 119 OFFCURVE",
"544 122 OFFCURVE",
"522 128 CURVE"
);
},
{
closed = 1;
nodes = (
"415 177 LINE",
"375.67 206.33 OFFCURVE",
"345.33 251.33 OFFCURVE",
"324 312 CURVE SMOOTH",
"302.67 372.67 OFFCURVE",
"292 447 OFFCURVE",
"292 535 CURVE SMOOTH",
"292 619 OFFCURVE",
"303.83 692.83 OFFCURVE",
"327.5 756.5 CURVE SMOOTH",
"351.17 820.17 OFFCURVE",
"386.83 867.17 OFFCURVE",
"434.5 897.5 CURVE SMOOTH",
"482.17 927.83 OFFCURVE",
"533.33 943 OFFCURVE",
"588 943 CURVE SMOOTH",
"600 943 OFFCURVE",
"616.67 942 OFFCURVE",
"638 940 CURVE"
);
}
);
width = 1139;
}
);
note = cent;
unicode = 00A2;
},
{
glyphname = sterling;
lastChange = "2018-11-05 04:35:17 +0000";
layers = (
{
layerId = "91004FFB-2E8A-4290-ADD0-E71DD0A9BF8D";
paths = (
{
closed = 1;
nodes = (
"396 809 LINE",
"358 928.33 OFFCURVE",
"339 1025 OFFCURVE",
"339 1099 CURVE SMOOTH",
"339 1166.33 OFFCURVE",
"363.5 1223.83 OFFCURVE",
"412.5 1271.5 CURVE SMOOTH",
"461.5 1319.17 OFFCURVE",
"523 1343 OFFCURVE",
"597 1343 CURVE SMOOTH",
"666.33 1343 OFFCURVE",
"725.83 1320 OFFCURVE",
"775.5 1274 CURVE SMOOTH",
"825.17 1228 OFFCURVE",
"855 1165 OFFCURVE",
"865 1085 CURVE",
"1044 1112 LINE",
"1026 1232 OFFCURVE",
"977.83 1325.17 OFFCURVE",
"899.5 1391.5 CURVE SMOOTH",
"821.17 1457.83 OFFCURVE",
"721.67 1491 OFFCURVE",
"601 1491 CURVE SMOOTH",
"483.67 1491 OFFCURVE",
"383.67 1460 OFFCURVE",
"301 1398 CURVE SMOOTH",
"198.33 1320 OFFCURVE",
"147 1211.67 OFFCURVE",
"147 1073 CURVE SMOOTH",
"147 1040.33 OFFCURVE",
"150 1006.83 OFFCURVE",
"156 972.5 CURVE SMOOTH",
"162 938.17 OFFCURVE",
"176 883.67 OFFCURVE",
"198 809 CURVE",
"44 809 LINE",
"44 661 LINE",
"240 661 LINE",
"251.33 619 OFFCURVE",
"257 577.67 OFFCURVE",
"257 537 CURVE SMOOTH",
"257 442.33 OFFCURVE",
"234.67 362.17 OFFCURVE",
"190 296.5 CURVE SMOOTH",
"145.33 230.83 OFFCURVE",
"91 180.33 OFFCURVE",
"27 145 CURVE",
"96 -28 LINE",
"140.67 0.67 OFFCURVE",
"190.17 23.33 OFFCURVE",
"244.5 40 CURVE SMOOTH",
"298.83 56.67 OFFCURVE",
"350 65 OFFCURVE",
"398 65 CURVE SMOOTH",
"429.33 65 OFFCURVE",
"460.67 62.33 OFFCURVE",
"492 57 CURVE SMOOTH",
"512 53 OFFCURVE",
"556.17 40.5 OFFCURVE",
"624.5 19.5 CURVE SMOOTH",
"692.83 -1.5 OFFCURVE",
"736 -13.67 OFFCURVE",
"754 -17 CURVE SMOOTH",
"782.67 -22.33 OFFCURVE",
"811 -25 OFFCURVE",
"839 -25 CURVE SMOOTH",
"872.33 -25 OFFCURVE",
"905.83 -21 OFFCURVE",
"939.5 -13 CURVE SMOOTH",
"973.17 -5 OFFCURVE",
"1020.67 12 OFFCURVE",
"1082 38 CURVE",
"1024 203 LINE",
"945.33 165.67 OFFCURVE",
"881.33 147 OFFCURVE",
"832 147 CURVE SMOOTH",
"791.33 147 OFFCURVE",
"713.67 160.67 OFFCURVE",
"599 188 CURVE SMOOTH",
"529.67 204.67 OFFCURVE",
"467.33 213 OFFCURVE",
"412 213 CURVE SMOOTH",
"368.67 213 OFFCURVE",
"320.67 205.67 OFFCURVE",
"268 191 CURVE",
"331.33 258.33 OFFCURVE",
"376.83 324.33 OFFCURVE",
"404.5 389 CURVE SMOOTH",
"432.17 453.67 OFFCURVE",
"446 515 OFFCURVE",
"446 573 CURVE SMOOTH",
"446 602.33 OFFCURVE",
"439.67 631.67 OFFCURVE",
"427 661 CURVE",
"711 661 LINE",
"711 809 LINE"
);
}
);
width = 1139;
}
);
note = sterling;
unicode = 00A3;
},
{
glyphname = currency;
lastChange = "2018-11-05 04:35:17 +0000";
layers = (
{
layerId = "91004FFB-2E8A-4290-ADD0-E71DD0A9BF8D";
paths = (
{
closed = 1;
nodes = (
"213 961 LINE",
"165.67 887.67 OFFCURVE",
"142 809.33 OFFCURVE",
"142 726 CURVE SMOOTH",
"142 642 OFFCURVE",
"165.67 563.33 OFFCURVE",
"213 490 CURVE",
"74 354 LINE",
"189 235 LINE",
"328 375 LINE",
"398.67 326.33 OFFCURVE",
"477.67 302 OFFCURVE",
"565 302 CURVE SMOOTH",
"653 302 OFFCURVE",
"732 326.33 OFFCURVE",
"802 375 CURVE",
"941 235 LINE",
"1057 354 LINE",
"918 490 LINE",
"965.33 563.33 OFFCURVE",
"989 642 OFFCURVE",
"989 726 CURVE SMOOTH",
"989 809.33 OFFCURVE",
"965.33 887.67 OFFCURVE",
"918 961 CURVE",
"1057 1097 LINE",
"941 1216 LINE",
"802 1077 LINE",
"732 1125 OFFCURVE",
"653 1149 OFFCURVE",
"565 1149 CURVE SMOOTH",
"477.67 1149 OFFCURVE",
"398.67 1125 OFFCURVE",
"328 1077 CURVE",
"189 1216 LINE",
"74 1097 LINE"
);
},
{
closed = 1;
nodes = (
"305 797.33 OFFCURVE",
"330.33 858.33 OFFCURVE",
"381 909 CURVE SMOOTH",
"431.67 959.67 OFFCURVE",
"492.67 985 OFFCURVE",
"564 985 CURVE SMOOTH",
"636 985 OFFCURVE",
"697.17 959.67 OFFCURVE",
"747.5 909 CURVE SMOOTH",
"797.83 858.33 OFFCURVE",
"823 797.33 OFFCURVE",
"823 726 CURVE SMOOTH",
"823 654 OFFCURVE",
"797.67 592.67 OFFCURVE",
"747 542 CURVE SMOOTH",
"696.33 491.33 OFFCURVE",
"635.33 466 OFFCURVE",
"564 466 CURVE SMOOTH",
"492.67 466 OFFCURVE",
"431.67 491.33 OFFCURVE",
"381 542 CURVE SMOOTH",
"330.33 592.67 OFFCURVE",
"305 654 OFFCURVE",
"305 726 CURVE SMOOTH"
);
}
);
width = 1139;
}
);
note = currency;
unicode = 00A4;
},
{
glyphname = yen;
lastChange = "2018-11-05 04:35:17 +0000";
layers = (
{
layerId = "91004FFB-2E8A-4290-ADD0-E71DD0A9BF8D";
paths = (
{
closed = 1;
nodes = (
"477 0 LINE",
"657 0 LINE",
"657 325 LINE",
"1069 325 LINE",
"1069 464 LINE",
"657 464 LINE",
"657 607 LINE",
"1069 607 LINE",
"1069 755 LINE",
"728 755 LINE",
"1133 1466 LINE",
"919 1466 LINE",
"645 959 LINE SMOOTH",
"605.67 885.67 OFFCURVE",
"578.33 831.33 OFFCURVE",
"563 796 CURVE",
"545 840 OFFCURVE",
"519.67 891.33 OFFCURVE",
"487 950 CURVE SMOOTH",
"197 1466 LINE",
"-3 1466 LINE",
"403 755 LINE",
"62 755 LINE",
"62 607 LINE",
"477 607 LINE",
"477 464 LINE",
"62 464 LINE",
"62 325 LINE",
"477 325 LINE"
);
}
);
width = 1139;
}
);
note = yen;
unicode = 00A5;
},
{
glyphname = brokenbar;
lastChange = "2018-11-05 04:35:17 +0000";
layers = (
{
layerId = "91004FFB-2E8A-4290-ADD0-E71DD0A9BF8D";
paths = (
{
closed = 1;
nodes = (
"345 1491 LINE",
"188 1491 LINE",
"188 701 LINE",
"345 701 LINE"
);
},
{
closed = 1;
nodes = (
"345 360 LINE",
"188 360 LINE",
"188 -431 LINE",
"345 -431 LINE"
);
}
);
width = 532;
}
);
note = brokenbar;
unicode = 00A6;
},
{
glyphname = section;
lastChange = "2018-11-05 04:35:17 +0000";
layers = (
{
layerId = "91004FFB-2E8A-4290-ADD0-E71DD0A9BF8D";
paths = (
{
closed = 1;
nodes = (
"143 -70 LINE",
"157.67 -183.33 OFFCURVE",
"202.33 -271.83 OFFCURVE",
"277 -335.5 CURVE SMOOTH",
"351.67 -399.17 OFFCURVE",
"452.67 -431 OFFCURVE",
"580 -431 CURVE SMOOTH",
"652.67 -431 OFFCURVE",
"720.33 -417.17 OFFCURVE",
"783 -389.5 CURVE SMOOTH",
"845.67 -361.83 OFFCURVE",
"893.67 -321.83 OFFCURVE",
"927 -269.5 CURVE SMOOTH",
"960.33 -217.17 OFFCURVE",
"977 -161.67 OFFCURVE",
"977 -103 CURVE SMOOTH",
"977 -49.67 OFFCURVE",
"963.83 0.33 OFFCURVE",
"937.5 47 CURVE SMOOTH",
"911.17 93.67 OFFCURVE",
"871.33 137.33 OFFCURVE",
"818 178 CURVE",
"892.67 209.33 OFFCURVE",
"944 240.33 OFFCURVE",
"972 271 CURVE SMOOTH",
"1020.67 324.33 OFFCURVE",
"1045 388.67 OFFCURVE",
"1045 464 CURVE SMOOTH",
"1045 514 OFFCURVE",
"1033.83 560.33 OFFCURVE",
"1011.5 603 CURVE SMOOTH",
"989.17 645.67 OFFCURVE",
"954.33 687 OFFCURVE",
"907 727 CURVE SMOOTH",
"870.33 757 OFFCURVE",
"799.67 804 OFFCURVE",
"695 868 CURVE SMOOTH",
"528.33 969.33 OFFCURVE",
"426.33 1042.67 OFFCURVE",
"389 1088 CURVE SMOOTH",
"365 1117.33 OFFCURVE",
"353 1149.33 OFFCURVE",
"353 1184 CURVE SMOOTH",
"353 1224 OFFCURVE",
"371.83 1260.5 OFFCURVE",
"409.5 1293.5 CURVE SMOOTH",
"447.17 1326.5 OFFCURVE",
"496.67 1343 OFFCURVE",
"558 1343 CURVE SMOOTH",
"617.33 1343 OFFCURVE",
"664.5 1327 OFFCURVE",
"699.5 1295 CURVE SMOOTH",
"734.5 1263 OFFCURVE",
"759 1206.33 OFFCURVE",
"773 1125 CURVE",
"960 1144 LINE",
"946 1256.67 OFFCURVE",
"904 1342.67 OFFCURVE",
"834 1402 CURVE SMOOTH",
"764 1461.33 OFFCURVE",
"666.67 1491 OFFCURVE",
"542 1491 CURVE SMOOTH",
"432 1491 OFFCURVE",
"343.67 1459.67 OFFCURVE",
"277 1397 CURVE SMOOTH",
"210.33 1334.33 OFFCURVE",
"177 1260.33 OFFCURVE",
"177 1175 CURVE SMOOTH",
"177 1131.67 OFFCURVE",
"186.67 1090.83 OFFCURVE",
"206 1052.5 CURVE SMOOTH",
"225.33 1014.17 OFFCURVE",
"258.67 972.33 OFFCURVE",
"306 927 CURVE",
"236 906.33 OFFCURVE",
"181 870 OFFCURVE",
"141 818 CURVE SMOOTH",
"101 766 OFFCURVE",
"81 708 OFFCURVE",
"81 644 CURVE SMOOTH",
"81 593.33 OFFCURVE",
"93.33 544.67 OFFCURVE",
"118 498 CURVE SMOOTH",
"142.67 451.33 OFFCURVE",
"174.5 410.83 OFFCURVE",
"213.5 376.5 CURVE SMOOTH",
"252.5 342.17 OFFCURVE",
"321.33 294.67 OFFCURVE",
"420 234 CURVE SMOOTH",
"605.33 120.67 OFFCURVE",
"718.67 39 OFFCURVE",
"760 -11 CURVE SMOOTH",
"784 -39.67 OFFCURVE",
"796 -71 OFFCURVE",
"796 -105 CURVE SMOOTH",
"796 -151.67 OFFCURVE",
"776.83 -192.33 OFFCURVE",
"738.5 -227 CURVE SMOOTH",
"700.17 -261.67 OFFCURVE",
"647 -279 OFFCURVE",
"579 -279 CURVE SMOOTH",
"509 -279 OFFCURVE",
"453.67 -261.5 OFFCURVE",
"413 -226.5 CURVE SMOOTH",
"372.33 -191.5 OFFCURVE",
"342.67 -130.67 OFFCURVE",
"324 -44 CURVE"
);
},
{
closed = 1;
nodes = (
"663.33 290 OFFCURVE",
"586.33 339.33 OFFCURVE",
"497 392 CURVE SMOOTH",
"389.67 455.33 OFFCURVE",
"320.67 506 OFFCURVE",
"290 544 CURVE SMOOTH",
"259.33 582 OFFCURVE",
"244 622 OFFCURVE",
"244 664 CURVE SMOOTH",
"244 701.33 OFFCURVE",
"255.5 735.33 OFFCURVE",
"278.5 766 CURVE SMOOTH",
"301.5 796.67 OFFCURVE",
"340 827.33 OFFCURVE",
"394 858 CURVE",
"438.67 822 OFFCURVE",
"506.67 776 OFFCURVE",
"598 720 CURVE SMOOTH",
"712.67 649.33 OFFCURVE",
"787.67 593 OFFCURVE",
"823 551 CURVE SMOOTH",
"857.67 509 OFFCURVE",
"875 469 OFFCURVE",
"875 431 CURVE SMOOTH",
"875 399 OFFCURVE",
"862.83 366.17 OFFCURVE",
"838.5 332.5 CURVE SMOOTH",
"814.17 298.83 OFFCURVE",
"777.33 269.33 OFFCURVE",
"728 244 CURVE"
);
}
);
width = 1139;
}
);
note = section;
unicode = 00A7;
},
{
glyphname = dieresis;
lastChange = "2018-11-05 04:35:17 +0000";
layers = (
{
layerId = "91004FFB-2E8A-4290-ADD0-E71DD0A9BF8D";
paths = (
{
closed = 1;
nodes = (
"61 1270 LINE",
"249 1270 LINE",
"249 1475 LINE",
"61 1475 LINE"
);
},
{
closed = 1;
nodes = (
"434 1270 LINE",
"622 1270 LINE",
"622 1475 LINE",
"434 1475 LINE"
);
}
);
width = 682;
}
);
note = dieresis;
unicode = 00A8;
},
{
glyphname = copyright;
lastChange = "2018-11-05 04:35:17 +0000";
layers = (
{
layerId = "91004FFB-2E8A-4290-ADD0-E71DD0A9BF8D";
paths = (
{
closed = 1;
nodes = (
"631.33 1491 OFFCURVE",
"507.67 1458.5 OFFCURVE",
"387 1393.5 CURVE SMOOTH",
"266.33 1328.5 OFFCURVE",
"172.17 1235.5 OFFCURVE",
"104.5 1114.5 CURVE SMOOTH",
"36.83 993.5 OFFCURVE",
"3 867.33 OFFCURVE",
"3 736 CURVE SMOOTH",
"3 606 OFFCURVE",
"36.33 481 OFFCURVE",
"103 361 CURVE SMOOTH",
"169.67 241 OFFCURVE",
"262.83 147.83 OFFCURVE",
"382.5 81.5 CURVE SMOOTH",
"502.17 15.17 OFFCURVE",
"627.33 -18 OFFCURVE",
"758 -18 CURVE SMOOTH",
"888.67 -18 OFFCURVE",
"1013.83 15.17 OFFCURVE",
"1133.5 81.5 CURVE SMOOTH",
"1253.17 147.83 OFFCURVE",
"1346.17 241 OFFCURVE",
"1412.5 361 CURVE SMOOTH",
"1478.83 481 OFFCURVE",
"1512 606 OFFCURVE",
"1512 736 CURVE SMOOTH",
"1512 867.33 OFFCURVE",
"1478.33 993.5 OFFCURVE",
"1411 1114.5 CURVE SMOOTH",
"1343.67 1235.5 OFFCURVE",
"1249.67 1328.5 OFFCURVE",
"1129 1393.5 CURVE SMOOTH",
"1008.33 1458.5 OFFCURVE",
"884.67 1491 OFFCURVE",
"758 1491 CURVE SMOOTH"
);
},
{
closed = 1;
nodes = (
"863.33 1366 OFFCURVE",
"966.33 1338.83 OFFCURVE",
"1067 1284.5 CURVE SMOOTH",
"1167.67 1230.17 OFFCURVE",
"1246.17 1152.5 OFFCURVE",
"1302.5 1051.5 CURVE SMOOTH",
"1358.83 950.5 OFFCURVE",
"1387 845.33 OFFCURVE",
"1387 736 CURVE SMOOTH",
"1387 627.33 OFFCURVE",
"1359.33 523.17 OFFCURVE",
"1304 423.5 CURVE SMOOTH",
"1248.67 323.83 OFFCURVE",
"1171 246.17 OFFCURVE",
"1071 190.5 CURVE SMOOTH",
"971 134.83 OFFCURVE",
"866.67 107 OFFCURVE",
"758 107 CURVE SMOOTH",
"649.33 107 OFFCURVE",
"545 134.83 OFFCURVE",
"445 190.5 CURVE SMOOTH",
"345 246.17 OFFCURVE",
"267.17 323.83 OFFCURVE",
"211.5 423.5 CURVE SMOOTH",
"155.83 523.17 OFFCURVE",
"128 627.33 OFFCURVE",
"128 736 CURVE SMOOTH",
"128 845.33 OFFCURVE",
"156.33 950.5 OFFCURVE",
"213 1051.5 CURVE SMOOTH",
"269.67 1152.5 OFFCURVE",
"348.17 1230.17 OFFCURVE",
"448.5 1284.5 CURVE SMOOTH",
"548.83 1338.83 OFFCURVE",
"652 1366 OFFCURVE",
"758 1366 CURVE SMOOTH"
);
},
{
closed = 1;
nodes = (
"1000 614 LINE",
"985.33 554.67 OFFCURVE",
"955.33 507.67 OFFCURVE",
"910 473 CURVE SMOOTH",
"864.67 438.33 OFFCURVE",
"812 421 OFFCURVE",
"752 421 CURVE SMOOTH",
"677.33 421 OFFCURVE",
"616.5 447.17 OFFCURVE",
"569.5 499.5 CURVE SMOOTH",
"522.5 551.83 OFFCURVE",
"499 629 OFFCURVE",
"499 731 CURVE SMOOTH",
"499 833 OFFCURVE",
"523.83 911.33 OFFCURVE",
"573.5 966 CURVE SMOOTH",
"623.17 1020.67 OFFCURVE",
"686.33 1048 OFFCURVE",
"763 1048 CURVE SMOOTH",
"815.67 1048 OFFCURVE",
"861.5 1034.83 OFFCURVE",
"900.5 1008.5 CURVE SMOOTH",
"939.5 982.17 OFFCURVE",
"969 944.33 OFFCURVE",
"989 895 CURVE",
"1108 924 LINE",
"1086.67 996.67 OFFCURVE",
"1046.67 1054.17 OFFCURVE",
"988 1096.5 CURVE SMOOTH",
"929.33 1138.83 OFFCURVE",
"855.67 1160 OFFCURVE",
"767 1160 CURVE SMOOTH",
"687.67 1160 OFFCURVE",
"617.17 1143.5 OFFCURVE",
"555.5 1110.5 CURVE SMOOTH",
"493.83 1077.5 OFFCURVE",
"446.33 1028.5 OFFCURVE",
"413 963.5 CURVE SMOOTH",
"379.67 898.5 OFFCURVE",
"363 822 OFFCURVE",
"363 734 CURVE SMOOTH",
"363 599.33 OFFCURVE",
"399.67 494 OFFCURVE",
"473 418 CURVE SMOOTH",
"546.33 342 OFFCURVE",
"641.67 304 OFFCURVE",
"759 304 CURVE SMOOTH",
"851.67 304 OFFCURVE",
"930.5 328.83 OFFCURVE",
"995.5 378.5 CURVE SMOOTH",
"1060.5 428.17 OFFCURVE",
"1103 494.67 OFFCURVE",
"1123 578 CURVE"
);
}
);
width = 1509;
}
);
note = copyright;
unicode = 00A9;
},
{
glyphname = ordfeminine;
lastChange = "2018-11-05 04:35:17 +0000";
layers = (
{
layerId = "91004FFB-2E8A-4290-ADD0-E71DD0A9BF8D";
paths = (
{
closed = 1;
nodes = (
"549.33 820.33 OFFCURVE",
"556.67 790.67 OFFCURVE",
"570 764 CURVE",
"718 764 LINE",
"690.67 797.33 OFFCURVE",
"677 858.67 OFFCURVE",
"677 948 CURVE SMOOTH",
"678 1009 LINE",
"678 1249 LINE SMOOTH",
"678 1328.33 OFFCURVE",
"655.67 1388.67 OFFCURVE",
"611 1430 CURVE SMOOTH",
"565.67 1470.67 OFFCURVE",
"488.33 1491 OFFCURVE",
"379 1491 CURVE SMOOTH",
"285 1491 OFFCURVE",
"212.67 1471.17 OFFCURVE",
"162 1431.5 CURVE SMOOTH",
"111.33 1391.83 OFFCURVE",
"82 1342.33 OFFCURVE",
"74 1283 CURVE",
"211 1249 LINE",
"217 1289 OFFCURVE",
"233 1319.83 OFFCURVE",
"259 1341.5 CURVE SMOOTH",
"285 1363.17 OFFCURVE",
"324.33 1374 OFFCURVE",
"377 1374 CURVE SMOOTH",
"416.33 1374 OFFCURVE",
"447.83 1368.17 OFFCURVE",
"471.5 1356.5 CURVE SMOOTH",
"495.17 1344.83 OFFCURVE",
"511.33 1331 OFFCURVE",
"520 1315 CURVE SMOOTH",
"528.67 1299 OFFCURVE",
"533.33 1267.67 OFFCURVE",
"534 1221 CURVE",
"518 1217 OFFCURVE",
"486 1210.33 OFFCURVE",
"438 1201 CURVE",
"291 1179 LINE SMOOTH",
"248.33 1172.33 OFFCURVE",
"215.33 1165.33 OFFCURVE",
"192 1158 CURVE SMOOTH",
"158.67 1146.67 OFFCURVE",
"131.5 1131.67 OFFCURVE",
"110.5 1113 CURVE SMOOTH",
"89.5 1094.33 OFFCURVE",
"73.67 1073 OFFCURVE",
"63 1049 CURVE SMOOTH",
"52.33 1025 OFFCURVE",
"47 997 OFFCURVE",
"47 965 CURVE SMOOTH",
"47 901 OFFCURVE",
"69 848.5 OFFCURVE",
"113 807.5 CURVE SMOOTH",
"157 766.5 OFFCURVE",
"216.67 746 OFFCURVE",
"292 746 CURVE SMOOTH",
"381.33 746 OFFCURVE",
"466.67 781.67 OFFCURVE",
"548 853 CURVE"
);
},
{
closed = 1;
nodes = (
"532.33 1048.67 OFFCURVE",
"529.67 1014.33 OFFCURVE",
"525 1001 CURVE SMOOTH",
"513 963 OFFCURVE",
"489 931 OFFCURVE",
"453 905 CURVE SMOOTH",
"417 879 OFFCURVE",
"374.67 866 OFFCURVE",
"326 866 CURVE SMOOTH",
"284.67 866 OFFCURVE",
"252.67 875.67 OFFCURVE",
"230 895 CURVE SMOOTH",
"207.33 914.33 OFFCURVE",
"196 937.67 OFFCURVE",
"196 965 CURVE SMOOTH",
"196 990.33 OFFCURVE",
"205.33 1011.67 OFFCURVE",
"224 1029 CURVE SMOOTH",
"242 1045.67 OFFCURVE",
"281 1058.67 OFFCURVE",
"341 1068 CURVE SMOOTH",
"433.67 1082.67 OFFCURVE",
"497.67 1094.67 OFFCURVE",
"533 1104 CURVE"
);
}
);
width = 758;
}
);
note = ordfeminine;
unicode = 00AA;
},
{
glyphname = guillemotleft;
lastChange = "2018-11-05 04:35:17 +0000";
layers = (
{
layerId = "91004FFB-2E8A-4290-ADD0-E71DD0A9BF8D";
paths = (
{
closed = 1;
nodes = (
"340 528 LINE",
"601 984 LINE",
"453 984 LINE",
"134 528 LINE",
"453 72 LINE",
"599 72 LINE"
);
},
{
closed = 1;
nodes = (
"727 528 LINE",
"991 984 LINE",
"839 984 LINE",
"526 528 LINE",
"839 72 LINE",
"991 72 LINE"
);
}
);
width = 1139;
}
);
note = guillemotleft;
unicode = 00AB;
},
{
glyphname = logicalnot;
lastChange = "2018-11-05 04:35:17 +0000";
layers = (
{
layerId = "91004FFB-2E8A-4290-ADD0-E71DD0A9BF8D";
paths = (
{
closed = 1;
nodes = (
"1082 424 LINE",
"1082 1030 LINE",
"114 1030 LINE",
"114 862 LINE",
"912 862 LINE",
"912 424 LINE"
);
}
);
width = 1196;
}
);
note = logicalnot;
unicode = 00AC;
},
{
glyphname = registered;
lastChange = "2018-11-05 04:35:17 +0000";
layers = (
{
layerId = "91004FFB-2E8A-4290-ADD0-E71DD0A9BF8D";
paths = (
{
closed = 1;
nodes = (
"631.33 1491 OFFCURVE",
"507.67 1458.5 OFFCURVE",
"387 1393.5 CURVE SMOOTH",
"266.33 1328.5 OFFCURVE",
"172.17 1235.5 OFFCURVE",
"104.5 1114.5 CURVE SMOOTH",
"36.83 993.5 OFFCURVE",
"3 867.33 OFFCURVE",
"3 736 CURVE SMOOTH",
"3 606 OFFCURVE",
"36.33 481 OFFCURVE",
"103 361 CURVE SMOOTH",
"169.67 241 OFFCURVE",
"262.83 147.83 OFFCURVE",
"382.5 81.5 CURVE SMOOTH",
"502.17 15.17 OFFCURVE",
"627.33 -18 OFFCURVE",
"758 -18 CURVE SMOOTH",
"888.67 -18 OFFCURVE",
"1013.83 15.17 OFFCURVE",
"1133.5 81.5 CURVE SMOOTH",
"1253.17 147.83 OFFCURVE",
"1346.17 241 OFFCURVE",
"1412.5 361 CURVE SMOOTH",
"1478.83 481 OFFCURVE",
"1512 606 OFFCURVE",
"1512 736 CURVE SMOOTH",
"1512 867.33 OFFCURVE",
"1478.33 993.5 OFFCURVE",
"1411 1114.5 CURVE SMOOTH",
"1343.67 1235.5 OFFCURVE",
"1249.67 1328.5 OFFCURVE",
"1129 1393.5 CURVE SMOOTH",
"1008.33 1458.5 OFFCURVE",
"884.67 1491 OFFCURVE",
"758 1491 CURVE SMOOTH"
);
},
{
closed = 1;
nodes = (
"863.33 1366 OFFCURVE",
"966.33 1338.83 OFFCURVE",
"1067 1284.5 CURVE SMOOTH",
"1167.67 1230.17 OFFCURVE",
"1246.17 1152.5 OFFCURVE",
"1302.5 1051.5 CURVE SMOOTH",
"1358.83 950.5 OFFCURVE",
"1387 845.33 OFFCURVE",
"1387 736 CURVE SMOOTH",
"1387 627.33 OFFCURVE",
"1359.33 523.17 OFFCURVE",
"1304 423.5 CURVE SMOOTH",
"1248.67 323.83 OFFCURVE",
"1171 246.17 OFFCURVE",
"1071 190.5 CURVE SMOOTH",
"971 134.83 OFFCURVE",
"866.67 107 OFFCURVE",
"758 107 CURVE SMOOTH",
"649.33 107 OFFCURVE",
"545 134.83 OFFCURVE",
"445 190.5 CURVE SMOOTH",
"345 246.17 OFFCURVE",
"267.17 323.83 OFFCURVE",
"211.5 423.5 CURVE SMOOTH",
"155.83 523.17 OFFCURVE",
"128 627.33 OFFCURVE",
"128 736 CURVE SMOOTH",
"128 845.33 OFFCURVE",
"156.33 950.5 OFFCURVE",
"213 1051.5 CURVE SMOOTH",
"269.67 1152.5 OFFCURVE",
"348.17 1230.17 OFFCURVE",
"448.5 1284.5 CURVE SMOOTH",
"548.83 1338.83 OFFCURVE",
"652 1366 OFFCURVE",
"758 1366 CURVE SMOOTH"
);
},
{
closed = 1;
nodes = (
"427 319 LINE",
"558 319 LINE",
"558 664 LINE",
"635 664 LINE SMOOTH",
"681 664 OFFCURVE",
"716 654.67 OFFCURVE",
"740 636 CURVE SMOOTH",
"774.67 610.67 OFFCURVE",
"820.33 547.67 OFFCURVE",
"877 447 CURVE SMOOTH",
"949 319 LINE",
"1109 319 LINE",
"1010 478 LINE SMOOTH",
"962.67 553.33 OFFCURVE",
"922.67 607 OFFCURVE",
"890 639 CURVE SMOOTH",
"872.67 655.67 OFFCURVE",
"849.67 670 OFFCURVE",
"821 682 CURVE",
"891 687.33 OFFCURVE",
"947.17 712 OFFCURVE",
"989.5 756 CURVE SMOOTH",
"1031.83 800 OFFCURVE",
"1053 851.67 OFFCURVE",
"1053 911 CURVE SMOOTH",
"1053 953 OFFCURVE",
"1040.33 992.67 OFFCURVE",
"1015 1030 CURVE SMOOTH",
"989.67 1067.33 OFFCURVE",
"955.67 1093.5 OFFCURVE",
"913 1108.5 CURVE SMOOTH",
"870.33 1123.5 OFFCURVE",
"801.33 1131 OFFCURVE",
"706 1131 CURVE SMOOTH",
"427 1131 LINE"
);
},
{
closed = 1;
nodes = (
"558 776 LINE",
"558 1021 LINE",
"707 1021 LINE SMOOTH",
"771 1021 OFFCURVE",
"814.83 1016.33 OFFCURVE",
"838.5 1007 CURVE SMOOTH",
"862.17 997.67 OFFCURVE",
"880.67 983.5 OFFCURVE",
"894 964.5 CURVE SMOOTH",
"907.33 945.5 OFFCURVE",
"914 924 OFFCURVE",
"914 900 CURVE SMOOTH",
"914 862.67 OFFCURVE",
"900.17 832.67 OFFCURVE",
"872.5 810 CURVE SMOOTH",
"844.83 787.33 OFFCURVE",
"793 776 OFFCURVE",
"717 776 CURVE SMOOTH"
);
}
);
width = 1509;
}
);
note = registered;
unicode = 00AE;
},
{
glyphname = overscore;
lastChange = "2018-11-05 04:35:17 +0000";
layers = (
{
layerId = "91004FFB-2E8A-4290-ADD0-E71DD0A9BF8D";
paths = (
{
closed = 1;
nodes = (
"-31 1566 LINE",
"1162 1566 LINE",
"1162 1695 LINE",
"-31 1695 LINE"
);
}
);
width = 1131;
}
);
note = overscore;
unicode = 00AF;
},
{
glyphname = degree;
lastChange = "2018-11-05 04:35:17 +0000";
layers = (
{
layerId = "91004FFB-2E8A-4290-ADD0-E71DD0A9BF8D";
paths = (
{
closed = 1;
nodes = (
"128 1136.67 OFFCURVE",
"155.17 1071 OFFCURVE",
"209.5 1017 CURVE SMOOTH",
"263.83 963 OFFCURVE",
"329 936 OFFCURVE",
"405 936 CURVE SMOOTH",
"481.67 936 OFFCURVE",
"547.17 963.17 OFFCURVE",
"601.5 1017.5 CURVE SMOOTH",
"655.83 1071.83 OFFCURVE",
"683 1137.33 OFFCURVE",
"683 1214 CURVE SMOOTH",
"683 1290.67 OFFCURVE",
"656 1356 OFFCURVE",
"602 1410 CURVE SMOOTH",
"548 1464 OFFCURVE",
"482.33 1491 OFFCURVE",
"405 1491 CURVE SMOOTH",
"329 1491 OFFCURVE",
"263.83 1464 OFFCURVE",
"209.5 1410 CURVE SMOOTH",
"155.17 1356 OFFCURVE",
"128 1290.67 OFFCURVE",
"128 1214 CURVE SMOOTH"
);
},
{
closed = 1;
nodes = (
"237 1260.67 OFFCURVE",
"253.5 1300.5 OFFCURVE",
"286.5 1333.5 CURVE SMOOTH",
"319.5 1366.5 OFFCURVE",
"359.33 1383 OFFCURVE",
"406 1383 CURVE SMOOTH",
"452 1383 OFFCURVE",
"491.5 1366.5 OFFCURVE",
"524.5 1333.5 CURVE SMOOTH",
"557.5 1300.5 OFFCURVE",
"574 1260.67 OFFCURVE",
"574 1214 CURVE SMOOTH",
"574 1167.33 OFFCURVE",
"557.5 1127.5 OFFCURVE",
"524.5 1094.5 CURVE SMOOTH",
"491.5 1061.5 OFFCURVE",
"452 1045 OFFCURVE",
"406 1045 CURVE SMOOTH",
"359.33 1045 OFFCURVE",
"319.5 1061.5 OFFCURVE",
"286.5 1094.5 CURVE SMOOTH",
"253.5 1127.5 OFFCURVE",
"237 1167.33 OFFCURVE",
"237 1214 CURVE SMOOTH"
);
}
);
width = 819;
}
);
note = degree;
unicode = 00B0;
},
{
glyphname = plusminus;
lastChange = "2018-11-05 04:35:17 +0000";
layers = (
{
layerId = "91004FFB-2E8A-4290-ADD0-E71DD0A9BF8D";
paths = (
{
closed = 1;
nodes = (
"477 260 LINE",
"647 260 LINE",
"647 663 LINE",
"1046 663 LINE",
"1046 830 LINE",
"647 830 LINE",
"647 1229 LINE",
"477 1229 LINE",
"477 830 LINE",
"78 830 LINE",
"78 663 LINE",
"477 663 LINE"
);
},
{
closed = 1;
nodes = (
"1046 0 LINE",
"1046 168 LINE",
"78 168 LINE",
"78 0 LINE"
);
}
);
width = 1124;
}
);
note = plusminus;
unicode = 00B1;
},
{
glyphname = twosuperior;
lastChange = "2018-11-05 04:35:17 +0000";
layers = (
{
layerId = "91004FFB-2E8A-4290-ADD0-E71DD0A9BF8D";
paths = (
{
closed = 1;
nodes = (
"648 733 LINE",
"648 854 LINE",
"262 854 LINE",
"285.33 878 OFFCURVE",
"324.67 910.33 OFFCURVE",
"380 951 CURVE SMOOTH",
"486.67 1027.67 OFFCURVE",
"555 1084.67 OFFCURVE",
"585 1122 CURVE SMOOTH",
"624.33 1172 OFFCURVE",
"644 1225 OFFCURVE",
"644 1281 CURVE SMOOTH",
"644 1337.67 OFFCURVE",
"620.5 1385.67 OFFCURVE",
"573.5 1425 CURVE SMOOTH",
"526.5 1464.33 OFFCURVE",
"452.67 1484 OFFCURVE",
"352 1484 CURVE SMOOTH",
"262.67 1484 OFFCURVE",
"194.17 1466.5 OFFCURVE",
"146.5 1431.5 CURVE SMOOTH",
"98.83 1396.5 OFFCURVE",
"65.33 1342 OFFCURVE",
"46 1268 CURVE",
"197 1252 LINE",
"211 1296.67 OFFCURVE",
"228.83 1326.83 OFFCURVE",
"250.5 1342.5 CURVE SMOOTH",
"272.17 1358.17 OFFCURVE",
"305 1366 OFFCURVE",
"349 1366 CURVE SMOOTH",
"394.33 1366 OFFCURVE",
"428.67 1355.67 OFFCURVE",
"452 1335 CURVE SMOOTH",
"475.33 1314.33 OFFCURVE",
"487 1288 OFFCURVE",
"487 1256 CURVE SMOOTH",
"487 1227.33 OFFCURVE",
"474.67 1199.33 OFFCURVE",
"450 1172 CURVE SMOOTH",
"432 1152 OFFCURVE",
"375 1107.17 OFFCURVE",
"279 1037.5 CURVE SMOOTH",
"183 967.83 OFFCURVE",
"114 904.33 OFFCURVE",
"72 847 CURVE SMOOTH",
"44.67 809 OFFCURVE",
"29 771 OFFCURVE",
"25 733 CURVE"
);
}
);
width = 682;
}
);
note = twosuperior;
unicode = 00B2;
},
{
glyphname = threesuperior;
lastChange = "2018-11-05 04:35:17 +0000";
layers = (
{
layerId = "91004FFB-2E8A-4290-ADD0-E71DD0A9BF8D";
paths = (
{
closed = 1;
nodes = (
"33 929 LINE",
"47 860.33 OFFCURVE",
"78.67 807.5 OFFCURVE",
"128 770.5 CURVE SMOOTH",
"177.33 733.5 OFFCURVE",
"248.67 715 OFFCURVE",
"342 715 CURVE SMOOTH",
"439.33 715 OFFCURVE",
"514.33 738 OFFCURVE",
"567 784 CURVE SMOOTH",
"619.67 830 OFFCURVE",
"646 884 OFFCURVE",
"646 946 CURVE SMOOTH",
"646 991.33 OFFCURVE",
"632 1030.83 OFFCURVE",
"604 1064.5 CURVE SMOOTH",
"576 1098.17 OFFCURVE",
"532.33 1122.33 OFFCURVE",
"473 1137 CURVE",
"517.67 1149.67 OFFCURVE",
"551.83 1170.33 OFFCURVE",
"575.5 1199 CURVE SMOOTH",
"599.17 1227.67 OFFCURVE",
"611 1260.33 OFFCURVE",
"611 1297 CURVE SMOOTH",
"611 1350.33 OFFCURVE",
"589.17 1394.83 OFFCURVE",
"545.5 1430.5 CURVE SMOOTH",
"501.83 1466.17 OFFCURVE",
"432 1484 OFFCURVE",
"336 1484 CURVE SMOOTH",
"256 1484 OFFCURVE",
"195.17 1470 OFFCURVE",
"153.5 1442 CURVE SMOOTH",
"111.83 1414 OFFCURVE",
"77.33 1364.67 OFFCURVE",
"50 1294 CURVE",
"193 1271 LINE",
"208.33 1309.67 OFFCURVE",
"226.5 1336.33 OFFCURVE",
"247.5 1351 CURVE SMOOTH",
"268.5 1365.67 OFFCURVE",
"297.67 1373 OFFCURVE",
"335 1373 CURVE SMOOTH",
"374.33 1373 OFFCURVE",
"404 1364.33 OFFCURVE",
"424 1347 CURVE SMOOTH",
"444 1329.67 OFFCURVE",
"454 1308.67 OFFCURVE",
"454 1284 CURVE SMOOTH",
"454 1255.33 OFFCURVE",
"441.5 1231 OFFCURVE",
"416.5 1211 CURVE SMOOTH",
"391.5 1191 OFFCURVE",
"352 1181.33 OFFCURVE",
"298 1182 CURVE",
"276 1072 LINE",
"281.33 1072 OFFCURVE",
"288.67 1072.33 OFFCURVE",
"298 1073 CURVE SMOOTH",
"312 1074.33 OFFCURVE",
"323 1075 OFFCURVE",
"331 1075 CURVE SMOOTH",
"389 1075 OFFCURVE",
"430 1065 OFFCURVE",
"454 1045 CURVE SMOOTH",
"478 1025 OFFCURVE",
"490 998.33 OFFCURVE",
"490 965 CURVE SMOOTH",
"490 928.33 OFFCURVE",
"475.67 897 OFFCURVE",
"447 871 CURVE SMOOTH",
"418.33 845 OFFCURVE",
"380.33 832 OFFCURVE",
"333 832 CURVE SMOOTH",
"293.67 832 OFFCURVE",
"259.67 842 OFFCURVE",
"231 862 CURVE SMOOTH",
"209.67 876.67 OFFCURVE",
"192.33 904 OFFCURVE",
"179 944 CURVE"
);
}
);
width = 682;
}
);
note = threesuperior;
unicode = 00B3;
},
{
glyphname = acute;
lastChange = "2018-11-05 04:35:17 +0000";
layers = (
{
layerId = "91004FFB-2E8A-4290-ADD0-E71DD0A9BF8D";
paths = (
{
closed = 1;
nodes = (
"222 1194 LINE",
"371 1194 LINE",
"591 1474 LINE",
"355 1474 LINE"
);
}
);
width = 682;
}
);
note = acute;
unicode = 00B4;
},
{
glyphname = mu1;
lastChange = "2018-11-05 04:35:17 +0000";
layers = (
{
layerId = "91004FFB-2E8A-4290-ADD0-E71DD0A9BF8D";
paths = (
{
closed = 1;
nodes = (
"1018 1062 LINE",
"841 1062 LINE",
"841 609 LINE SMOOTH",
"841 446.33 OFFCURVE",
"832.33 341.83 OFFCURVE",
"815 295.5 CURVE SMOOTH",
"797.67 249.17 OFFCURVE",
"768 211.33 OFFCURVE",
"726 182 CURVE SMOOTH",
"684 152.67 OFFCURVE",
"636.33 138 OFFCURVE",
"583 138 CURVE SMOOTH",
"532.33 138 OFFCURVE",
"487.5 152 OFFCURVE",
"448.5 180 CURVE SMOOTH",
"409.5 208 OFFCURVE",
"381.33 246.17 OFFCURVE",
"364 294.5 CURVE SMOOTH",
"346.67 342.83 OFFCURVE",
"338 448.67 OFFCURVE",
"338 612 CURVE SMOOTH",
"338 1062 LINE",
"160 1062 LINE",
"160 -407 LINE",
"338 -407 LINE",
"338 107 LINE",
"376.67 57.67 OFFCURVE",
"412 24.67 OFFCURVE",
"444 8 CURVE SMOOTH",
"486.67 -14 OFFCURVE",
"535.67 -25 OFFCURVE",
"591 -25 CURVE SMOOTH",
"653 -25 OFFCURVE",
"707.33 -11.33 OFFCURVE",
"754 16 CURVE SMOOTH",
"788 36 OFFCURVE",
"822.33 72.67 OFFCURVE",
"857 126 CURVE",
"857 0 LINE",
"1018 0 LINE"
);
}
);
width = 1180;
}
);
note = mu1;
unicode = 00B5;
},
{
glyphname = paragraph;
lastChange = "2018-11-05 04:35:17 +0000";
layers = (
{
layerId = "91004FFB-2E8A-4290-ADD0-E71DD0A9BF8D";
paths = (
{
closed = 1;
nodes = (
"405 -407 LINE",
"570 -407 LINE",
"570 1293 LINE",
"793 1293 LINE",
"793 -407 LINE",
"963 -407 LINE",
"963 1293 LINE",
"1107 1293 LINE",
"1107 1466 LINE",
"474 1466 LINE SMOOTH",
"319.33 1466 OFFCURVE",
"201.83 1427.83 OFFCURVE",
"121.5 1351.5 CURVE SMOOTH",
"41.17 1275.17 OFFCURVE",
"1 1172.67 OFFCURVE",
"1 1044 CURVE SMOOTH",
"1 928.67 OFFCURVE",
"37.17 833.83 OFFCURVE",
"109.5 759.5 CURVE SMOOTH",
"181.83 685.17 OFFCURVE",
"280.33 644.67 OFFCURVE",
"405 638 CURVE"
);
}
);
width = 1100;
}
);
note = paragraph;
unicode = 00B6;
},
{
glyphname = middot;
lastChange = "2018-11-05 04:35:17 +0000";
layers = (
{
layerId = "91004FFB-2E8A-4290-ADD0-E71DD0A9BF8D";
paths = (
{
closed = 1;
nodes = (
"238 637 LINE",
"443 637 LINE",
"443 842 LINE",
"238 842 LINE"
);
}
);
width = 682;
}
);
note = middot;
unicode = 00B7;
},
{
glyphname = cedilla;
lastChange = "2018-11-05 04:35:17 +0000";
layers = (
{
layerId = "91004FFB-2E8A-4290-ADD0-E71DD0A9BF8D";
paths = (
{
closed = 1;
nodes = (
"216 -154 LINE",
"264 -154.67 OFFCURVE",
"298.33 -158.33 OFFCURVE",
"319 -165 CURVE SMOOTH",
"339.67 -171.67 OFFCURVE",
"353.83 -179.67 OFFCURVE",
"361.5 -189 CURVE SMOOTH",
"369.17 -198.33 OFFCURVE",
"373 -209 OFFCURVE",
"373 -221 CURVE SMOOTH",
"373 -240.33 OFFCURVE",
"363.33 -256.67 OFFCURVE",
"344 -270 CURVE SMOOTH",
"318.67 -287.33 OFFCURVE",
"274.67 -296 OFFCURVE",
"212 -296 CURVE SMOOTH",
"192 -296 OFFCURVE",
"160.67 -294.67 OFFCURVE",
"118 -292 CURVE",
"107 -409 LINE",
"148.33 -417 OFFCURVE",
"196.33 -421 OFFCURVE",
"251 -421 CURVE SMOOTH",
"347.67 -421 OFFCURVE",
"420 -401.83 OFFCURVE",
"468 -363.5 CURVE SMOOTH",
"516 -325.17 OFFCURVE",
"540 -281 OFFCURVE",
"540 -231 CURVE SMOOTH",
"540 -196.33 OFFCURVE",
"525.67 -164.83 OFFCURVE",
"497 -136.5 CURVE SMOOTH",
"468.33 -108.17 OFFCURVE",
"425.67 -90.67 OFFCURVE",
"369 -84 CURVE",
"402 23 LINE",
"268 23 LINE"
);
}
);
width = 682;
}
);
note = cedilla;
unicode = 00B8;
},
{
glyphname = onesuperior;
lastChange = "2018-11-05 04:35:17 +0000";
layers = (
{
layerId = "91004FFB-2E8A-4290-ADD0-E71DD0A9BF8D";
paths = (
{
closed = 1;
nodes = (
"331 733 LINE",
"476 733 LINE",
"476 1484 LINE",
"368 1484 LINE",
"336.67 1443.33 OFFCURVE",
"295.67 1405.33 OFFCURVE",
"245 1370 CURVE SMOOTH",
"194.33 1334.67 OFFCURVE",
"148.33 1310.33 OFFCURVE",
"107 1297 CURVE",
"107 1174 LINE",
"188.33 1195.33 OFFCURVE",
"263 1233 OFFCURVE",
"331 1287 CURVE"
);
}
);
width = 682;
}
);
note = onesuperior;
unicode = 00B9;
},
{
glyphname = ordmasculine;
lastChange = "2018-11-05 04:35:17 +0000";
layers = (
{
layerId = "91004FFB-2E8A-4290-ADD0-E71DD0A9BF8D";
paths = (
{
closed = 1;
nodes = (
"276.33 1491 OFFCURVE",
"197.5 1457.67 OFFCURVE",
"136.5 1391 CURVE SMOOTH",
"75.5 1324.33 OFFCURVE",
"45 1231 OFFCURVE",
"45 1111 CURVE SMOOTH",
"45 994.33 OFFCURVE",
"75.67 903.33 OFFCURVE",
"137 838 CURVE SMOOTH",
"198.33 772.67 OFFCURVE",
"277.33 740 OFFCURVE",
"374 740 CURVE SMOOTH",
"469.33 740 OFFCURVE",
"547.67 773.33 OFFCURVE",
"609 840 CURVE SMOOTH",
"670.33 906.67 OFFCURVE",
"701 998.33 OFFCURVE",
"701 1115 CURVE SMOOTH",
"701 1232.33 OFFCURVE",
"670.5 1324.33 OFFCURVE",
"609.5 1391 CURVE SMOOTH",
"548.5 1457.67 OFFCURVE",
"469.67 1491 OFFCURVE",
"373 1491 CURVE SMOOTH"
);
},
{
closed = 1;
nodes = (
"425.67 1358 OFFCURVE",
"468.83 1338.67 OFFCURVE",
"502.5 1300 CURVE SMOOTH",
"536.17 1261.33 OFFCURVE",
"553 1201.33 OFFCURVE",
"553 1120 CURVE SMOOTH",
"553 1032.67 OFFCURVE",
"536.33 969.5 OFFCURVE",
"503 930.5 CURVE SMOOTH",
"469.67 891.5 OFFCURVE",
"426.33 872 OFFCURVE",
"373 872 CURVE SMOOTH",
"320.33 872 OFFCURVE",
"277.17 891.5 OFFCURVE",
"243.5 930.5 CURVE SMOOTH",
"209.83 969.5 OFFCURVE",
"193 1031 OFFCURVE",
"193 1115 CURVE SMOOTH",
"193 1201 OFFCURVE",
"209.5 1263 OFFCURVE",
"242.5 1301 CURVE SMOOTH",
"275.5 1339 OFFCURVE",
"319 1358 OFFCURVE",
"373 1358 CURVE SMOOTH"
);
}
);
width = 748;
}
);
note = ordmasculine;
unicode = 00BA;
},
{
glyphname = guillemotright;
lastChange = "2018-11-05 04:35:17 +0000";
layers = (
{
layerId = "91004FFB-2E8A-4290-ADD0-E71DD0A9BF8D";
paths = (
{
closed = 1;
nodes = (
"791 528 LINE",
"531 72 LINE",
"678 72 LINE",
"997 528 LINE",
"678 984 LINE",
"530 984 LINE"
);
},
{
closed = 1;
nodes = (
"404 528 LINE",
"140 72 LINE",
"291 72 LINE",
"605 528 LINE",
"291 984 LINE",
"140 984 LINE"
);
}
);
width = 1139;
}
);
note = guillemotright;
unicode = 00BB;
},
{
glyphname = onequarter;
lastChange = "2018-11-05 04:35:17 +0000";
layers = (
{
layerId = "91004FFB-2E8A-4290-ADD0-E71DD0A9BF8D";
paths = (
{
closed = 1;
nodes = (
"252 -57 LINE",
"409 -57 LINE",
"1510 1491 LINE",
"1354 1491 LINE"
);
},
{
closed = 1;
nodes = (
"331 733 LINE",
"476 733 LINE",
"476 1484 LINE",
"368 1484 LINE",
"336.67 1443.33 OFFCURVE",
"295.67 1405.33 OFFCURVE",
"245 1370 CURVE SMOOTH",
"194.33 1334.67 OFFCURVE",
"148.33 1310.33 OFFCURVE",
"107 1297 CURVE",
"107 1174 LINE",
"188.33 1195.33 OFFCURVE",
"263 1233 OFFCURVE",
"331 1287 CURVE"
);
},
{
closed = 1;
nodes = (
"1430 -31 LINE",
"1574 -31 LINE",
"1574 123 LINE",
"1678 123 LINE",
"1678 231 LINE",
"1574 231 LINE",
"1574 720 LINE",
"1452 720 LINE",
"1047 246 LINE",
"1047 123 LINE",
"1430 123 LINE"
);
},
{
closed = 1;
nodes = (
"1430 231 LINE",
"1200 231 LINE",
"1430 494 LINE"
);
}
);
width = 1708;
}
);
note = onequarter;
unicode = 00BC;
},
{
glyphname = onehalf;
lastChange = "2018-11-05 04:35:17 +0000";
layers = (
{
layerId = "91004FFB-2E8A-4290-ADD0-E71DD0A9BF8D";
paths = (
{
closed = 1;
nodes = (
"228 -57 LINE",
"385 -57 LINE",
"1486 1491 LINE",
"1329 1491 LINE"
);
},
{
closed = 1;
nodes = (
"331 733 LINE",
"476 733 LINE",
"476 1484 LINE",
"368 1484 LINE",
"336.67 1443.33 OFFCURVE",
"295.67 1405.33 OFFCURVE",
"245 1370 CURVE SMOOTH",
"194.33 1334.67 OFFCURVE",
"148.33 1310.33 OFFCURVE",
"107 1297 CURVE",
"107 1174 LINE",
"188.33 1195.33 OFFCURVE",
"263 1233 OFFCURVE",
"331 1287 CURVE"
);
},
{
closed = 1;
nodes = (
"1672 -31 LINE",
"1672 90 LINE",
"1286 90 LINE",
"1309.33 113.33 OFFCURVE",
"1349 145.33 OFFCURVE",
"1405 186 CURVE SMOOTH",
"1511 263.33 OFFCURVE",
"1579 320.67 OFFCURVE",
"1609 358 CURVE SMOOTH",
"1648.33 408 OFFCURVE",
"1668 461 OFFCURVE",
"1668 517 CURVE SMOOTH",
"1668 573.67 OFFCURVE",
"1644.5 621.67 OFFCURVE",
"1597.5 661 CURVE SMOOTH",
"1550.5 700.33 OFFCURVE",
"1476.67 720 OFFCURVE",
"1376 720 CURVE SMOOTH",
"1287.33 720 OFFCURVE",
"1219 702.5 OFFCURVE",
"1171 667.5 CURVE SMOOTH",
"1123 632.5 OFFCURVE",
"1089.33 577.67 OFFCURVE",
"1070 503 CURVE",
"1221 488 LINE",
"1235 532 OFFCURVE",
"1252.83 561.83 OFFCURVE",
"1274.5 577.5 CURVE SMOOTH",
"1296.17 593.17 OFFCURVE",
"1329 601 OFFCURVE",
"1373 601 CURVE SMOOTH",
"1419 601 OFFCURVE",
"1453.5 590.83 OFFCURVE",
"1476.5 570.5 CURVE SMOOTH",
"1499.5 550.17 OFFCURVE",
"1511 524 OFFCURVE",
"1511 492 CURVE SMOOTH",
"1511 463.33 OFFCURVE",
"1498.67 435.33 OFFCURVE",
"1474 408 CURVE SMOOTH",
"1456 387.33 OFFCURVE",
"1399 342.33 OFFCURVE",
"1303 273 CURVE SMOOTH",
"1207 203.67 OFFCURVE",
"1138.33 140 OFFCURVE",
"1097 82 CURVE SMOOTH",
"1069 44 OFFCURVE",
"1053 6.33 OFFCURVE",
"1049 -31 CURVE"
);
}
);
width = 1708;
}
);
note = onehalf;
unicode = 00BD;
},
{
glyphname = threequarters;
lastChange = "2018-11-05 04:35:17 +0000";
layers = (
{
layerId = "91004FFB-2E8A-4290-ADD0-E71DD0A9BF8D";
paths = (
{
closed = 1;
nodes = (
"252 -57 LINE",
"409 -57 LINE",
"1510 1491 LINE",
"1353 1491 LINE"
);
},
{
closed = 1;
nodes = (
"33 929 LINE",
"47 860.33 OFFCURVE",
"78.67 807.5 OFFCURVE",
"128 770.5 CURVE SMOOTH",
"177.33 733.5 OFFCURVE",
"248.67 715 OFFCURVE",
"342 715 CURVE SMOOTH",
"439.33 715 OFFCURVE",
"514.33 738 OFFCURVE",
"567 784 CURVE SMOOTH",
"619.67 830 OFFCURVE",
"646 884 OFFCURVE",
"646 946 CURVE SMOOTH",
"646 991.33 OFFCURVE",
"632 1030.83 OFFCURVE",
"604 1064.5 CURVE SMOOTH",
"576 1098.17 OFFCURVE",
"532.33 1122.33 OFFCURVE",
"473 1137 CURVE",
"517.67 1149.67 OFFCURVE",
"551.83 1170.33 OFFCURVE",
"575.5 1199 CURVE SMOOTH",
"599.17 1227.67 OFFCURVE",
"611 1260.33 OFFCURVE",
"611 1297 CURVE SMOOTH",
"611 1350.33 OFFCURVE",
"589.17 1394.83 OFFCURVE",
"545.5 1430.5 CURVE SMOOTH",
"501.83 1466.17 OFFCURVE",
"432 1484 OFFCURVE",
"336 1484 CURVE SMOOTH",
"256 1484 OFFCURVE",
"195.17 1470 OFFCURVE",
"153.5 1442 CURVE SMOOTH",
"111.83 1414 OFFCURVE",
"77.33 1364.67 OFFCURVE",
"50 1294 CURVE",
"193 1271 LINE",
"208.33 1309.67 OFFCURVE",
"226.5 1336.33 OFFCURVE",
"247.5 1351 CURVE SMOOTH",
"268.5 1365.67 OFFCURVE",
"297.67 1373 OFFCURVE",
"335 1373 CURVE SMOOTH",
"374.33 1373 OFFCURVE",
"404 1364.33 OFFCURVE",
"424 1347 CURVE SMOOTH",
"444 1329.67 OFFCURVE",
"454 1308.67 OFFCURVE",
"454 1284 CURVE SMOOTH",
"454 1255.33 OFFCURVE",
"441.5 1231 OFFCURVE",
"416.5 1211 CURVE SMOOTH",
"391.5 1191 OFFCURVE",
"352 1181.33 OFFCURVE",
"298 1182 CURVE",
"276 1072 LINE",
"281.33 1072 OFFCURVE",
"300.67 1073 OFFCURVE",
"334 1075 CURVE",
"390 1075 OFFCURVE",
"430 1065 OFFCURVE",
"454 1045 CURVE SMOOTH",
"478 1025 OFFCURVE",
"490 998.33 OFFCURVE",
"490 965 CURVE SMOOTH",
"490 928.33 OFFCURVE",
"475.67 897 OFFCURVE",
"447 871 CURVE SMOOTH",
"418.33 845 OFFCURVE",
"380.33 832 OFFCURVE",
"333 832 CURVE SMOOTH",
"293.67 832 OFFCURVE",
"259.67 842 OFFCURVE",
"231 862 CURVE SMOOTH",
"209.67 876.67 OFFCURVE",
"192.33 904 OFFCURVE",
"179 944 CURVE"
);
},
{
closed = 1;
nodes = (
"1429 -31 LINE",
"1574 -31 LINE",
"1574 123 LINE",
"1678 123 LINE",
"1678 231 LINE",
"1574 231 LINE",
"1574 720 LINE",
"1451 720 LINE",
"1047 246 LINE",
"1047 123 LINE",
"1429 123 LINE"
);
},
{
closed = 1;
nodes = (
"1429 231 LINE",
"1200 231 LINE",
"1429 494 LINE"
);
}
);
width = 1708;
}
);
note = threequarters;
unicode = 00BE;
},
{
glyphname = uni01AA;
lastChange = "2018-11-05 04:35:17 +0000";
layers = (
{
layerId = "91004FFB-2E8A-4290-ADD0-E71DD0A9BF8D";
paths = (
{
closed = 1;
nodes = (
"730 -259 LINE",
"694 -268.33 OFFCURVE",
"665.67 -273 OFFCURVE",
"645 -273 CURVE SMOOTH",
"593.67 -273 OFFCURVE",
"560.67 -247.33 OFFCURVE",
"546 -196 CURVE SMOOTH",
"539.33 -172 OFFCURVE",
"536 -124.67 OFFCURVE",
"536 -54 CURVE SMOOTH",
"536 1165 LINE SMOOTH",
"536 1268.33 OFFCURVE",
"510.5 1348.5 OFFCURVE",
"459.5 1405.5 CURVE SMOOTH",
"408.5 1462.5 OFFCURVE",
"338 1491 OFFCURVE",
"248 1491 CURVE SMOOTH",
"197.33 1491 OFFCURVE",
"154.67 1473.5 OFFCURVE",
"120 1438.5 CURVE SMOOTH",
"85.33 1403.5 OFFCURVE",
"68 1360 OFFCURVE",
"68 1308 CURVE SMOOTH",
"68 1255.33 OFFCURVE",
"84.83 1211 OFFCURVE",
"118.5 1175 CURVE SMOOTH",
"152.17 1139 OFFCURVE",
"195.67 1121 OFFCURVE",
"249 1121 CURVE SMOOTH",
"295.67 1121 OFFCURVE",
"331.33 1133.33 OFFCURVE",
"356 1158 CURVE",
"356 -58 LINE SMOOTH",
"356 -188 OFFCURVE",
"373 -279 OFFCURVE",
"407 -331 CURVE SMOOTH",
"451 -397.67 OFFCURVE",
"523 -431 OFFCURVE",
"623 -431 CURVE SMOOTH",
"671.67 -431 OFFCURVE",
"718.67 -424.67 OFFCURVE",
"764 -412 CURVE"
);
},
{
closed = 1;
nodes = (
"356 1275.33 OFFCURVE",
"346.67 1250 OFFCURVE",
"328 1230 CURVE SMOOTH",
"308 1208 OFFCURVE",
"282 1197 OFFCURVE",
"250 1197 CURVE SMOOTH",
"217.33 1197 OFFCURVE",
"191.5 1207.67 OFFCURVE",
"172.5 1229 CURVE SMOOTH",
"153.5 1250.33 OFFCURVE",
"144 1276.67 OFFCURVE",
"144 1308 CURVE SMOOTH",
"144 1338 OFFCURVE",
"153.67 1363.33 OFFCURVE",
"173 1384 CURVE SMOOTH",
"192.33 1404.67 OFFCURVE",
"218 1415 OFFCURVE",
"250 1415 CURVE SMOOTH",
"282 1415 OFFCURVE",
"307.67 1404.5 OFFCURVE",
"327 1383.5 CURVE SMOOTH",
"346.33 1362.5 OFFCURVE",
"356 1336.67 OFFCURVE",
"356 1306 CURVE SMOOTH"
);
}
);
width = 779;
}
);
note = uni01AA;
unicode = 01AA;
},
{
glyphname = uni01AB;
lastChange = "2018-11-05 05:21:31 +0000";
layers = (
{
layerId = "91004FFB-2E8A-4290-ADD0-E71DD0A9BF8D";
paths = (
{
closed = 1;
nodes = (
"168 479 LINE",
"168 311 LINE SMOOTH",
"168 203.67 OFFCURVE",
"175.33 133 OFFCURVE",
"190 99 CURVE SMOOTH",
"216 39 OFFCURVE",
"268.33 3 OFFCURVE",
"347 -9 CURVE",
"347 -54 LINE SMOOTH",
"347 -125.33 OFFCURVE",
"344 -172.67 OFFCURVE",
"338 -196 CURVE SMOOTH",
"323.33 -247.33 OFFCURVE",
"290.33 -273 OFFCURVE",
"239 -273 CURVE SMOOTH",
"218.33 -273 OFFCURVE",
"190 -268.33 OFFCURVE",
"154 -259 CURVE",
"120 -412 LINE",
"165.33 -424.67 OFFCURVE",
"212.33 -431 OFFCURVE",
"261 -431 CURVE SMOOTH",
"361 -431 OFFCURVE",
"433 -397.67 OFFCURVE",
"477 -331 CURVE SMOOTH",
"511 -279 OFFCURVE",
"528 -188 OFFCURVE",
"528 -58 CURVE SMOOTH",
"528 161 LINE",
"495.33 156.33 OFFCURVE",
"469 154 OFFCURVE",
"449 154 CURVE SMOOTH",
"404.33 154 OFFCURVE",
"375 168 OFFCURVE",
"361 196 CURVE SMOOTH",
"351.67 214 OFFCURVE",
"347 249 OFFCURVE",
"347 301 CURVE SMOOTH",
"347 490 LINE"
);
},
{
closed = 1;
nodes = (
"347 490 LINE",
"347 922 LINE",
"528 922 LINE",
"528 1062 LINE",
"347 1062 LINE",
"347 1433 LINE",
"168 1325 LINE",
"168 1062 LINE",
"36 1062 LINE",
"36 922 LINE",
"168 922 LINE",
"168 479 LINE"
);
}
);
width = 569;
}
);
note = uni01AB;
unicode = 01AB;
},
{
glyphname = uni01AC;
lastChange = "2018-11-05 04:35:17 +0000";
layers = (
{
layerId = "91004FFB-2E8A-4290-ADD0-E71DD0A9BF8D";
paths = (
{
closed = 1;
nodes = (
"1210 1293 LINE",
"1210 1466 LINE",
"338 1466 LINE SMOOTH",
"126 1466 OFFCURVE",
"20 1377 OFFCURVE",
"20 1199 CURVE SMOOTH",
"20 1150.33 OFFCURVE",
"26.33 1103.33 OFFCURVE",
"39 1058 CURVE",
"192 1099 LINE",
"182.67 1135 OFFCURVE",
"178 1163.33 OFFCURVE",
"178 1184 CURVE SMOOTH",
"178 1235.33 OFFCURVE",
"198 1268.33 OFFCURVE",
"238 1283 CURVE SMOOTH",
"255.33 1289.67 OFFCURVE",
"288.33 1293 OFFCURVE",
"337 1293 CURVE SMOOTH",
"531 1293 LINE",
"531 0 LINE",
"725 0 LINE",
"725 1293 LINE"
);
}
);
width = 1251;
}
);
note = uni01AC;
unicode = 01AC;
},
{
glyphname = fi;
lastChange = "2018-11-05 04:35:17 +0000";
layers = (
{
layerId = "91004FFB-2E8A-4290-ADD0-E71DD0A9BF8D";
paths = (
{
closed = 1;
nodes = (
"183 0 LINE",
"363 0 LINE",
"363 923 LINE",
"569 923 LINE",
"569 1062 LINE",
"363 1062 LINE",
"363 1131 LINE SMOOTH",
"363 1211 OFFCURVE",
"374.33 1263.33 OFFCURVE",
"397 1288 CURVE SMOOTH",
"419.67 1312.67 OFFCURVE",
"462 1325 OFFCURVE",
"524 1325 CURVE SMOOTH",
"553.33 1325 OFFCURVE",
"585.67 1322 OFFCURVE",
"621 1316 CURVE",
"649 1468 LINE",
"593 1483.33 OFFCURVE",
"532 1491 OFFCURVE",
"466 1491 CURVE SMOOTH",
"368 1491 OFFCURVE",
"296.33 1463 OFFCURVE",
"251 1407 CURVE SMOOTH",
"205.67 1351 OFFCURVE",
"183 1270.33 OFFCURVE",
"183 1165 CURVE SMOOTH",
"183 1062 LINE",
"23 1062 LINE",
"23 923 LINE",
"183 923 LINE"
);
},
{
closed = 1;
nodes = (
"705 1259 LINE",
"885 1259 LINE",
"885 1466 LINE",
"705 1466 LINE"
);
},
{
closed = 1;
nodes = (
"705 0 LINE",
"885 0 LINE",
"885 1062 LINE",
"705 1062 LINE"
);
}
);
width = 1024;
}
);
note = fi;
unicode = FB01;
},
{
glyphname = fl;
lastChange = "2018-11-05 04:35:17 +0000";
layers = (
{
layerId = "91004FFB-2E8A-4290-ADD0-E71DD0A9BF8D";
paths = (
{
closed = 1;
nodes = (
"183 0 LINE",
"363 0 LINE",
"363 923 LINE",
"569 923 LINE",
"569 1062 LINE",
"363 1062 LINE",
"363 1131 LINE SMOOTH",
"363 1211 OFFCURVE",
"374.33 1263.33 OFFCURVE",
"397 1288 CURVE SMOOTH",
"419.67 1312.67 OFFCURVE",
"462 1325 OFFCURVE",
"524 1325 CURVE SMOOTH",
"553.33 1325 OFFCURVE",
"585.67 1322 OFFCURVE",
"621 1316 CURVE",
"649 1468 LINE",
"593 1483.33 OFFCURVE",
"532 1491 OFFCURVE",
"466 1491 CURVE SMOOTH",
"368 1491 OFFCURVE",
"296.33 1463 OFFCURVE",
"251 1407 CURVE SMOOTH",
"205.67 1351 OFFCURVE",
"183 1270.33 OFFCURVE",
"183 1165 CURVE SMOOTH",
"183 1062 LINE",
"23 1062 LINE",
"23 923 LINE",
"183 923 LINE"
);
},
{
closed = 1;
nodes = (
"703 0 LINE",
"883 0 LINE",
"883 1466 LINE",
"703 1466 LINE"
);
}
);
width = 1024;
}
);
note = fl;
unicode = FB02;
},
{
glyphname = uniFB1D;
lastChange = "2018-11-05 04:35:17 +0000";
layers = (
{
layerId = "91004FFB-2E8A-4290-ADD0-E71DD0A9BF8D";
paths = (
{
closed = 1;
nodes = (
"350 1061 LINE",
"155 1061 LINE",
"155 512 LINE",
"350 512 LINE"
);
},
{
closed = 1;
nodes = (
"225.67 391 OFFCURVE",
"204.83 382.17 OFFCURVE",
"190.5 364.5 CURVE SMOOTH",
"176.17 346.83 OFFCURVE",
"169 327.67 OFFCURVE",
"169 307 CURVE SMOOTH",
"169 290.33 OFFCURVE",
"172.67 275.83 OFFCURVE",
"180 263.5 CURVE SMOOTH",
"187.33 251.17 OFFCURVE",
"197.33 241.33 OFFCURVE",
"210 234 CURVE SMOOTH",
"222.67 226.67 OFFCURVE",
"237 223 OFFCURVE",
"253 223 CURVE SMOOTH",
"276.33 223 OFFCURVE",
"296.17 231 OFFCURVE",
"312.5 247 CURVE SMOOTH",
"328.83 263 OFFCURVE",
"337 283 OFFCURVE",
"337 307 CURVE SMOOTH",
"337 333.67 OFFCURVE",
"328 354.33 OFFCURVE",
"310 369 CURVE SMOOTH",
"292 383.67 OFFCURVE",
"273 391 OFFCURVE",
"253 391 CURVE SMOOTH"
);
}
);
width = 505;
}
);
note = uniFB1D;
unicode = FB1D;
},
{
glyphname = uniFB1E;
lastChange = "2018-11-05 04:35:17 +0000";
layers = (
{
layerId = "91004FFB-2E8A-4290-ADD0-E71DD0A9BF8D";
paths = (
{
closed = 1;
nodes = (
"173 1510 LINE",
"163.67 1463.33 OFFCURVE",
"145.17 1429.17 OFFCURVE",
"117.5 1407.5 CURVE SMOOTH",
"89.83 1385.83 OFFCURVE",
"49 1375 OFFCURVE",
"-5 1375 CURVE SMOOTH",
"-51.67 1375 OFFCURVE",
"-88.83 1386.17 OFFCURVE",
"-116.5 1408.5 CURVE SMOOTH",
"-144.17 1430.83 OFFCURVE",
"-162.67 1464.67 OFFCURVE",
"-172 1510 CURVE",
"-295 1510 LINE",
"-285 1426 OFFCURVE",
"-254.5 1361.83 OFFCURVE",
"-203.5 1317.5 CURVE SMOOTH",
"-152.5 1273.17 OFFCURVE",
"-84.33 1251 OFFCURVE",
"1 1251 CURVE SMOOTH",
"85.67 1251 OFFCURVE",
"153.5 1273.33 OFFCURVE",
"204.5 1318 CURVE SMOOTH",
"255.5 1362.67 OFFCURVE",
"286 1426.67 OFFCURVE",
"296 1510 CURVE"
);
}
);
width = 0;
}
);
note = uniFB1E;
unicode = FB1E;
},
{
glyphname = uniFB1F;
lastChange = "2018-11-05 04:35:17 +0000";
layers = (
{
layerId = "91004FFB-2E8A-4290-ADD0-E71DD0A9BF8D";
paths = (
{
closed = 1;
nodes = (
"855 1061 LINE",
"660 1061 LINE",
"660 512 LINE",
"855 512 LINE"
);
},
{
closed = 1;
nodes = (
"350 1061 LINE",
"155 1061 LINE",
"155 512 LINE",
"350 512 LINE"
);
},
{
closed = 1;
nodes = (
"155 287 LINE",
"855 287 LINE",
"855 391 LINE",
"155 391 LINE"
);
}
);
width = 1010;
}
);
note = uniFB1F;
unicode = FB1F;
},
{
glyphname = "ra-ethiopic_ga-ethiopic.liga";
lastChange = "2018-11-07 21:46:10 +0000";
layers = (
{
layerId = "91004FFB-2E8A-4290-ADD0-E71DD0A9BF8D";
paths = (
{
closed = 1;
nodes = (
"148 1072 LINE",
"145 102 LINE SMOOTH",
"145 42 OFFCURVE",
"188 0 OFFCURVE",
"247 0 CURVE SMOOTH",
"1040 0 LINE",
"1040 155 LINE",
"440 155 LINE SMOOTH",
"381 155 OFFCURVE",
"337 153 OFFCURVE",
"338 258 CURVE SMOOTH",
"343 1072 LINE"
);
},
{
closed = 1;
nodes = (
"1572 0 LINE",
"1575 970 LINE SMOOTH",
"1575 1030 OFFCURVE",
"1532 1072 OFFCURVE",
"1473 1072 CURVE SMOOTH",
"680 1072 LINE",
"680 917 LINE",
"1280 917 LINE SMOOTH",
"1339 917 OFFCURVE",
"1383 919 OFFCURVE",
"1382 814 CURVE SMOOTH",
"1377 0 LINE"
);
}
);
width = 1725;
}
);
rightMetricsKey = "ga-ethiopic";
},
{
glyphname = "ra-ethiopic_gu-ethiopic.liga";
lastChange = "2018-11-07 21:45:48 +0000";
layers = (
{
layerId = "91004FFB-2E8A-4290-ADD0-E71DD0A9BF8D";
paths = (
{
closed = 1;
nodes = (
"148 1072 LINE",
"145 102 LINE SMOOTH",
"145 42 OFFCURVE",
"188 0 OFFCURVE",
"247 0 CURVE SMOOTH",
"1040 0 LINE",
"1040 155 LINE",
"440 155 LINE SMOOTH",
"381 155 OFFCURVE",
"337 153 OFFCURVE",
"338 258 CURVE SMOOTH",
"343 1072 LINE"
);
},
{
closed = 1;
nodes = (
"1640 751 OFFCURVE",
"1600 717 OFFCURVE",
"1574 650 CURVE",
"1575 970 LINE SMOOTH",
"1575 1030 OFFCURVE",
"1532 1072 OFFCURVE",
"1473 1072 CURVE SMOOTH",
"680 1072 LINE",
"680 917 LINE",
"1280 917 LINE SMOOTH",
"1339 917 OFFCURVE",
"1383 919 OFFCURVE",
"1382 814 CURVE SMOOTH",
"1377 0 LINE",
"1572 0 LINE",
"1573 474 LINE",
"1575 509 OFFCURVE",
"1580 541 OFFCURVE",
"1590 571 CURVE SMOOTH",
"1607 621 OFFCURVE",
"1638 646 OFFCURVE",
"1687 646 CURVE SMOOTH",
"1712 646 OFFCURVE",
"1737 639 OFFCURVE",
"1762 624 CURVE",
"1797 718 LINE",
"1761 740 OFFCURVE",
"1727 751 OFFCURVE",
"1692 751 CURVE SMOOTH"
);
}
);
width = 1887;
}
);
rightMetricsKey = "gu-ethiopic";
},
{
glyphname = "ra-ethiopic_gi-ethiopic.liga";
lastChange = "2018-11-07 21:45:25 +0000";
layers = (
{
layerId = "91004FFB-2E8A-4290-ADD0-E71DD0A9BF8D";
paths = (
{
closed = 1;
nodes = (
"148 1072 LINE",
"145 102 LINE SMOOTH",
"145 42 OFFCURVE",
"188 0 OFFCURVE",
"247 0 CURVE SMOOTH",
"1040 0 LINE",
"1040 155 LINE",
"440 155 LINE SMOOTH",
"381 155 OFFCURVE",
"337 153 OFFCURVE",
"338 258 CURVE SMOOTH",
"343 1072 LINE"
);
},
{
closed = 1;
nodes = (
"1757 -172 LINE",
"1722 -181 OFFCURVE",
"1694 -185 OFFCURVE",
"1673 -185 CURVE SMOOTH",
"1622 -185 OFFCURVE",
"1587 -157 OFFCURVE",
"1574 -105 CURVE SMOOTH",
"1568 -81 OFFCURVE",
"1570 -35 OFFCURVE",
"1570 37 CURVE SMOOTH",
"1568 620 LINE",
"1393 627 LINE",
"1390 35 LINE SMOOTH",
"1389 -84 OFFCURVE",
"1399 -169 OFFCURVE",
"1426 -225 CURVE SMOOTH",
"1464 -303 OFFCURVE",
"1539 -342 OFFCURVE",
"1647 -342 CURVE SMOOTH",
"1696 -342 OFFCURVE",
"1743 -337 OFFCURVE",
"1789 -326 CURVE"
);
},
{
closed = 1;
nodes = (
"1570 0 LINE",
"1575 970 LINE SMOOTH",
"1575 1030 OFFCURVE",
"1532 1072 OFFCURVE",
"1473 1072 CURVE SMOOTH",
"680 1072 LINE",
"680 917 LINE",
"1280 917 LINE SMOOTH",
"1339 917 OFFCURVE",
"1390 919 OFFCURVE",
"1391 814 CURVE SMOOTH",
"1397 0 LINE"
);
}
);
width = 1819;
}
);
rightMetricsKey = "gi-ethiopic";
},
{
glyphname = "ra-ethiopic_gee-ethiopic.liga";
lastChange = "2018-11-07 21:44:55 +0000";
layers = (
{
layerId = "91004FFB-2E8A-4290-ADD0-E71DD0A9BF8D";
paths = (
{
closed = 1;
nodes = (
"148 1072 LINE",
"145 102 LINE SMOOTH",
"145 42 OFFCURVE",
"188 0 OFFCURVE",
"247 0 CURVE SMOOTH",
"1040 0 LINE",
"1040 155 LINE",
"440 155 LINE SMOOTH",
"381 155 OFFCURVE",
"337 153 OFFCURVE",
"338 258 CURVE SMOOTH",
"343 1072 LINE"
);
},
{
closed = 1;
nodes = (
"1761 -214 OFFCURVE",
"1717 -197 OFFCURVE",
"1664 -197 CURVE SMOOTH",
"1617 -197 OFFCURVE",
"1582 -209 OFFCURVE",
"1557 -234 CURVE",
"1557 0 LINE",
"1558 0 LINE",
"1561 970 LINE SMOOTH",
"1561 1030 OFFCURVE",
"1518 1072 OFFCURVE",
"1459 1072 CURVE SMOOTH",
"679 1072 LINE",
"679 917 LINE",
"1279 917 LINE SMOOTH",
"1338 917 OFFCURVE",
"1382 919 OFFCURVE",
"1381 814 CURVE SMOOTH",
"1378 293 LINE",
"1377 293 LINE",
"1377 163 LINE",
"1376 0 LINE",
"1377 0 LINE",
"1377 -241 LINE SMOOTH",
"1377 -344 OFFCURVE",
"1403 -425 OFFCURVE",
"1454 -482 CURVE SMOOTH",
"1505 -539 OFFCURVE",
"1575 -567 OFFCURVE",
"1665 -567 CURVE SMOOTH",
"1716 -567 OFFCURVE",
"1758 -550 OFFCURVE",
"1793 -515 CURVE SMOOTH",
"1828 -480 OFFCURVE",
"1845 -436 OFFCURVE",
"1845 -384 CURVE SMOOTH",
"1845 -331 OFFCURVE",
"1828 -287 OFFCURVE",
"1795 -251 CURVE SMOOTH"
);
},
{
closed = 1;
nodes = (
"1721 -481 OFFCURVE",
"1695 -491 OFFCURVE",
"1663 -491 CURVE SMOOTH",
"1631 -491 OFFCURVE",
"1605 -481 OFFCURVE",
"1586 -460 CURVE SMOOTH",
"1567 -439 OFFCURVE",
"1557 -413 OFFCURVE",
"1557 -382 CURVE SMOOTH",
"1557 -351 OFFCURVE",
"1566 -326 OFFCURVE",
"1585 -306 CURVE SMOOTH",
"1605 -284 OFFCURVE",
"1631 -273 OFFCURVE",
"1663 -273 CURVE SMOOTH",
"1696 -273 OFFCURVE",
"1722 -284 OFFCURVE",
"1741 -305 CURVE SMOOTH",
"1760 -326 OFFCURVE",
"1769 -353 OFFCURVE",
"1769 -384 CURVE SMOOTH",
"1769 -414 OFFCURVE",
"1759 -439 OFFCURVE",
"1740 -460 CURVE SMOOTH"
);
}
);
width = 1875;
}
);
rightMetricsKey = "gee-ethiopic";
},
{
glyphname = "ra-ethiopic_ge-ethiopic.liga";
lastChange = "2018-11-07 21:47:13 +0000";
layers = (
{
layerId = "91004FFB-2E8A-4290-ADD0-E71DD0A9BF8D";
paths = (
{
closed = 1;
nodes = (
"148 1072 LINE",
"145 102 LINE SMOOTH",
"145 42 OFFCURVE",
"188 0 OFFCURVE",
"247 0 CURVE SMOOTH",
"1040 0 LINE",
"1040 155 LINE",
"440 155 LINE SMOOTH",
"381 155 OFFCURVE",
"337 153 OFFCURVE",
"338 258 CURVE SMOOTH",
"343 1072 LINE"
);
},
{
closed = 1;
nodes = (
"1506 1071 LINE",
"996 1073 LINE SMOOTH",
"893 1073 OFFCURVE",
"812 1049 OFFCURVE",
"755 998 CURVE SMOOTH",
"698 947 OFFCURVE",
"670 877 OFFCURVE",
"670 787 CURVE SMOOTH",
"670 736 OFFCURVE",
"687 694 OFFCURVE",
"722 659 CURVE SMOOTH",
"757 624 OFFCURVE",
"801 607 OFFCURVE",
"853 607 CURVE SMOOTH",
"906 607 OFFCURVE",
"950 624 OFFCURVE",
"986 657 CURVE SMOOTH",
"1023 691 OFFCURVE",
"1040 735 OFFCURVE",
"1040 788 CURVE SMOOTH",
"1040 835 OFFCURVE",
"1028 870 OFFCURVE",
"1003 895 CURVE",
"1526 895 LINE"
);
},
{
closed = 1;
nodes = (
"886 895 OFFCURVE",
"911 886 OFFCURVE",
"931 867 CURVE",
"953 847 OFFCURVE",
"964 821 OFFCURVE",
"964 789 CURVE SMOOTH",
"964 756 OFFCURVE",
"953 730 OFFCURVE",
"932 711 CURVE SMOOTH",
"911 692 OFFCURVE",
"884 683 OFFCURVE",
"853 683 CURVE SMOOTH",
"823 683 OFFCURVE",
"798 693 OFFCURVE",
"777 712 CURVE SMOOTH",
"756 731 OFFCURVE",
"746 757 OFFCURVE",
"746 789 CURVE SMOOTH",
"746 821 OFFCURVE",
"756 847 OFFCURVE",
"777 866 CURVE SMOOTH",
"798 885 OFFCURVE",
"824 895 OFFCURVE",
"855 895 CURVE SMOOTH"
);
},
{
closed = 1;
nodes = (
"1572 0 LINE",
"1575 970 LINE SMOOTH",
"1575 1030 OFFCURVE",
"1532 1072 OFFCURVE",
"1473 1072 CURVE SMOOTH",
"1010 1072 LINE",
"1010 917 LINE",
"1280 917 LINE SMOOTH",
"1339 917 OFFCURVE",
"1383 919 OFFCURVE",
"1382 814 CURVE SMOOTH",
"1377 0 LINE"
);
}
);
width = 1725;
}
);
rightMetricsKey = "ge-ethiopic";
},
{
glyphname = "ra-ethiopic_go-ethiopic.liga";
lastChange = "2018-11-16 04:25:47 +0000";
layers = (
{
layerId = "91004FFB-2E8A-4290-ADD0-E71DD0A9BF8D";
paths = (
{
closed = 1;
nodes = (
"148 1072 LINE",
"145 102 LINE SMOOTH",
"145 42 OFFCURVE",
"188 0 OFFCURVE",
"247 0 CURVE SMOOTH",
"1040 0 LINE",
"1040 155 LINE",
"440 155 LINE SMOOTH",
"381 155 OFFCURVE",
"337 153 OFFCURVE",
"338 258 CURVE SMOOTH",
"343 1072 LINE"
);
},
{
closed = 1;
nodes = (
"1017 1062 LINE",
"1167 1062 LINE",
"1167 1397 LINE",
"1017 1397 LINE"
);
},
{
closed = 1;
nodes = (
"1572 0 LINE",
"1575 970 LINE SMOOTH",
"1575 1030 OFFCURVE",
"1532 1072 OFFCURVE",
"1473 1072 CURVE SMOOTH",
"680 1072 LINE",
"680 917 LINE",
"1280 917 LINE SMOOTH",
"1339 917 OFFCURVE",
"1383 919 OFFCURVE",
"1382 814 CURVE SMOOTH",
"1377 0 LINE"
);
}
);
width = 1725;
}
);
rightMetricsKey = "go-ethiopic";
},
{
glyphname = "ra-ethiopic_goa-ethiopic.liga";
lastChange = "2018-11-16 04:25:56 +0000";
layers = (
{
layerId = "91004FFB-2E8A-4290-ADD0-E71DD0A9BF8D";
paths = (
{
closed = 1;
nodes = (
"148 1072 LINE",
"145 102 LINE SMOOTH",
"145 42 OFFCURVE",
"188 0 OFFCURVE",
"247 0 CURVE SMOOTH",
"1040 0 LINE",
"1040 155 LINE",
"440 155 LINE SMOOTH",
"381 155 OFFCURVE",
"337 153 OFFCURVE",
"338 258 CURVE SMOOTH",
"343 1072 LINE"
);
},
{
closed = 1;
nodes = (
"1173 1062 LINE",
"1325 1062 LINE",
"1325 1397 LINE",
"1173 1397 LINE"
);
},
{
closed = 1;
nodes = (
"1744 -212 LINE",
"1208 -206 LINE SMOOTH",
"1125 -205 OFFCURVE",
"1062 -219 OFFCURVE",
"1022 -247 CURVE SMOOTH",
"989 -270 OFFCURVE",
"973 -300 OFFCURVE",
"971 -338 CURVE SMOOTH",
"970 -361 OFFCURVE",
"979 -384 OFFCURVE",
"998 -407 CURVE",
"1085 -386 LINE",
"1072 -370 OFFCURVE",
"1066 -354 OFFCURVE",
"1066 -336 CURVE SMOOTH",
"1066 -306 OFFCURVE",
"1089 -286 OFFCURVE",
"1131 -277 CURVE SMOOTH",
"1155 -272 OFFCURVE",
"1192 -269 OFFCURVE",
"1245 -270 CURVE SMOOTH",
"1742 -275 LINE"
);
},
{
closed = 1;
nodes = (
"1562 -220 LINE",
"1565 970 LINE SMOOTH",
"1565 1030 OFFCURVE",
"1522 1072 OFFCURVE",
"1463 1072 CURVE SMOOTH",
"670 1072 LINE",
"670 917 LINE",
"1270 917 LINE SMOOTH",
"1329 917 OFFCURVE",
"1373 919 OFFCURVE",
"1372 814 CURVE SMOOTH",
"1367 -220 LINE"
);
}
);
width = 1824;
}
);
rightMetricsKey = "goa-ethiopic";
},
{
glyphname = "ru-ethiopic_ga-ethiopic.liga";
lastChange = "2018-11-07 21:51:45 +0000";
layers = (
{
layerId = "91004FFB-2E8A-4290-ADD0-E71DD0A9BF8D";
paths = (
{
closed = 1;
nodes = (
"1572 0 LINE",
"1575 970 LINE SMOOTH",
"1575 1030 OFFCURVE",
"1532 1072 OFFCURVE",
"1473 1072 CURVE SMOOTH",
"680 1072 LINE",
"680 917 LINE",
"1280 917 LINE SMOOTH",
"1339 917 OFFCURVE",
"1383 919 OFFCURVE",
"1382 814 CURVE SMOOTH",
"1377 0 LINE"
);
},
{
closed = 1;
nodes = (
"526 -381 LINE",
"710 -381 LINE",
"710 0 LINE",
"526 0 LINE"
);
},
{
closed = 1;
nodes = (
"148 1072 LINE",
"145 102 LINE SMOOTH",
"145 42 OFFCURVE",
"188 0 OFFCURVE",
"247 0 CURVE SMOOTH",
"1040 0 LINE",
"1040 155 LINE",
"440 155 LINE SMOOTH",
"381 155 OFFCURVE",
"337 140 OFFCURVE",
"338 258 CURVE SMOOTH",
"343 1072 LINE"
);
}
);
width = 1725;
}
);
rightMetricsKey = "ga-ethiopic";
},
{
glyphname = "ru-ethiopic_gu-ethiopic.liga";
lastChange = "2018-11-07 21:52:27 +0000";
layers = (
{
layerId = "91004FFB-2E8A-4290-ADD0-E71DD0A9BF8D";
paths = (
{
closed = 1;
nodes = (
"1640 751 OFFCURVE",
"1600 717 OFFCURVE",
"1574 650 CURVE",
"1575 970 LINE SMOOTH",
"1575 1030 OFFCURVE",
"1532 1072 OFFCURVE",
"1473 1072 CURVE SMOOTH",
"680 1072 LINE",
"680 917 LINE",
"1280 917 LINE SMOOTH",
"1339 917 OFFCURVE",
"1383 919 OFFCURVE",
"1382 814 CURVE SMOOTH",
"1377 0 LINE",
"1572 0 LINE",
"1573 474 LINE",
"1575 509 OFFCURVE",
"1580 541 OFFCURVE",
"1590 571 CURVE SMOOTH",
"1607 621 OFFCURVE",
"1638 646 OFFCURVE",
"1687 646 CURVE SMOOTH",
"1712 646 OFFCURVE",
"1737 639 OFFCURVE",
"1762 624 CURVE",
"1797 718 LINE",
"1761 740 OFFCURVE",
"1727 751 OFFCURVE",
"1692 751 CURVE SMOOTH"
);
},
{
closed = 1;
nodes = (
"526 -381 LINE",
"710 -381 LINE",
"710 0 LINE",
"526 0 LINE"
);
},
{
closed = 1;
nodes = (
"148 1072 LINE",
"145 102 LINE SMOOTH",
"145 42 OFFCURVE",
"188 0 OFFCURVE",
"247 0 CURVE SMOOTH",
"1040 0 LINE",
"1040 155 LINE",
"440 155 LINE SMOOTH",
"381 155 OFFCURVE",
"337 140 OFFCURVE",
"338 258 CURVE SMOOTH",
"343 1072 LINE"
);
}
);
width = 1887;
}
);
rightMetricsKey = "gu-ethiopic";
},
{
glyphname = "ru-ethiopic_gi-ethiopic.liga";
lastChange = "2018-11-07 21:52:54 +0000";
layers = (
{
layerId = "91004FFB-2E8A-4290-ADD0-E71DD0A9BF8D";
paths = (
{
closed = 1;
nodes = (
"1757 -172 LINE",
"1722 -181 OFFCURVE",
"1694 -185 OFFCURVE",
"1673 -185 CURVE SMOOTH",
"1622 -185 OFFCURVE",
"1587 -157 OFFCURVE",
"1574 -105 CURVE SMOOTH",
"1568 -81 OFFCURVE",
"1570 -35 OFFCURVE",
"1570 37 CURVE SMOOTH",
"1568 620 LINE",
"1393 627 LINE",
"1390 35 LINE SMOOTH",
"1389 -84 OFFCURVE",
"1399 -169 OFFCURVE",
"1426 -225 CURVE SMOOTH",
"1464 -303 OFFCURVE",
"1539 -342 OFFCURVE",
"1647 -342 CURVE SMOOTH",
"1696 -342 OFFCURVE",
"1743 -337 OFFCURVE",
"1789 -326 CURVE"
);
},
{
closed = 1;
nodes = (
"1570 0 LINE",
"1575 970 LINE SMOOTH",
"1575 1030 OFFCURVE",
"1532 1072 OFFCURVE",
"1473 1072 CURVE SMOOTH",
"680 1072 LINE",
"680 917 LINE",
"1280 917 LINE SMOOTH",
"1339 917 OFFCURVE",
"1390 919 OFFCURVE",
"1391 814 CURVE SMOOTH",
"1397 0 LINE"
);
},
{
closed = 1;
nodes = (
"526 -381 LINE",
"710 -381 LINE",
"710 0 LINE",
"526 0 LINE"
);
},
{
closed = 1;
nodes = (
"148 1072 LINE",
"145 102 LINE SMOOTH",
"145 42 OFFCURVE",
"188 0 OFFCURVE",
"247 0 CURVE SMOOTH",
"1040 0 LINE",
"1040 155 LINE",
"440 155 LINE SMOOTH",
"381 155 OFFCURVE",
"337 140 OFFCURVE",
"338 258 CURVE SMOOTH",
"343 1072 LINE"
);
}
);
width = 1819;
}
);
rightMetricsKey = "gi-ethiopic";
},
{
glyphname = "ru-ethiopic_gee-ethiopic.liga";
lastChange = "2018-11-07 21:53:18 +0000";
layers = (
{
layerId = "91004FFB-2E8A-4290-ADD0-E71DD0A9BF8D";
paths = (
{
closed = 1;
nodes = (
"1761 -214 OFFCURVE",
"1717 -197 OFFCURVE",
"1664 -197 CURVE SMOOTH",
"1617 -197 OFFCURVE",
"1582 -209 OFFCURVE",
"1557 -234 CURVE",
"1557 0 LINE",
"1558 0 LINE",
"1561 970 LINE SMOOTH",
"1561 1030 OFFCURVE",
"1518 1072 OFFCURVE",
"1459 1072 CURVE SMOOTH",
"679 1072 LINE",
"679 917 LINE",
"1279 917 LINE SMOOTH",
"1338 917 OFFCURVE",
"1382 919 OFFCURVE",
"1381 814 CURVE SMOOTH",
"1378 293 LINE",
"1377 293 LINE",
"1377 163 LINE",
"1376 0 LINE",
"1377 0 LINE",
"1377 -241 LINE SMOOTH",
"1377 -344 OFFCURVE",
"1403 -425 OFFCURVE",
"1454 -482 CURVE SMOOTH",
"1505 -539 OFFCURVE",
"1575 -567 OFFCURVE",
"1665 -567 CURVE SMOOTH",
"1716 -567 OFFCURVE",
"1758 -550 OFFCURVE",
"1793 -515 CURVE SMOOTH",
"1828 -480 OFFCURVE",
"1845 -436 OFFCURVE",
"1845 -384 CURVE SMOOTH",
"1845 -331 OFFCURVE",
"1828 -287 OFFCURVE",
"1795 -251 CURVE SMOOTH"
);
},
{
closed = 1;
nodes = (
"1721 -481 OFFCURVE",
"1695 -491 OFFCURVE",
"1663 -491 CURVE SMOOTH",
"1631 -491 OFFCURVE",
"1605 -481 OFFCURVE",
"1586 -460 CURVE SMOOTH",
"1567 -439 OFFCURVE",
"1557 -413 OFFCURVE",
"1557 -382 CURVE SMOOTH",
"1557 -351 OFFCURVE",
"1566 -326 OFFCURVE",
"1585 -306 CURVE SMOOTH",
"1605 -284 OFFCURVE",
"1631 -273 OFFCURVE",
"1663 -273 CURVE SMOOTH",
"1696 -273 OFFCURVE",
"1722 -284 OFFCURVE",
"1741 -305 CURVE SMOOTH",
"1760 -326 OFFCURVE",
"1769 -353 OFFCURVE",
"1769 -384 CURVE SMOOTH",
"1769 -414 OFFCURVE",
"1759 -439 OFFCURVE",
"1740 -460 CURVE SMOOTH"
);
},
{
closed = 1;
nodes = (
"526 -381 LINE",
"710 -381 LINE",
"710 0 LINE",
"526 0 LINE"
);
},
{
closed = 1;
nodes = (
"148 1072 LINE",
"145 102 LINE SMOOTH",
"145 42 OFFCURVE",
"188 0 OFFCURVE",
"247 0 CURVE SMOOTH",
"1040 0 LINE",
"1040 155 LINE",
"440 155 LINE SMOOTH",
"381 155 OFFCURVE",
"337 140 OFFCURVE",
"338 258 CURVE SMOOTH",
"343 1072 LINE"
);
}
);
width = 1875;
}
);
rightMetricsKey = "gee-ethiopic";
},
{
glyphname = "ru-ethiopic_ge-ethiopic.liga";
lastChange = "2018-11-07 21:53:36 +0000";
layers = (
{
layerId = "91004FFB-2E8A-4290-ADD0-E71DD0A9BF8D";
paths = (
{
closed = 1;
nodes = (
"1506 1071 LINE",
"996 1073 LINE SMOOTH",
"893 1073 OFFCURVE",
"812 1049 OFFCURVE",
"755 998 CURVE SMOOTH",
"698 947 OFFCURVE",
"670 877 OFFCURVE",
"670 787 CURVE SMOOTH",
"670 736 OFFCURVE",
"687 694 OFFCURVE",
"722 659 CURVE SMOOTH",
"757 624 OFFCURVE",
"801 607 OFFCURVE",
"853 607 CURVE SMOOTH",
"906 607 OFFCURVE",
"950 624 OFFCURVE",
"986 657 CURVE SMOOTH",
"1023 691 OFFCURVE",
"1040 735 OFFCURVE",
"1040 788 CURVE SMOOTH",
"1040 835 OFFCURVE",
"1028 870 OFFCURVE",
"1003 895 CURVE",
"1526 895 LINE"
);
},
{
closed = 1;
nodes = (
"886 895 OFFCURVE",
"911 886 OFFCURVE",
"931 867 CURVE",
"953 847 OFFCURVE",
"964 821 OFFCURVE",
"964 789 CURVE SMOOTH",
"964 756 OFFCURVE",
"953 730 OFFCURVE",
"932 711 CURVE SMOOTH",
"911 692 OFFCURVE",
"884 683 OFFCURVE",
"853 683 CURVE SMOOTH",
"823 683 OFFCURVE",
"798 693 OFFCURVE",
"777 712 CURVE SMOOTH",
"756 731 OFFCURVE",
"746 757 OFFCURVE",
"746 789 CURVE SMOOTH",
"746 821 OFFCURVE",
"756 847 OFFCURVE",
"777 866 CURVE SMOOTH",
"798 885 OFFCURVE",
"824 895 OFFCURVE",
"855 895 CURVE SMOOTH"
);
},
{
closed = 1;
nodes = (
"1572 0 LINE",
"1575 970 LINE SMOOTH",
"1575 1030 OFFCURVE",
"1532 1072 OFFCURVE",
"1473 1072 CURVE SMOOTH",
"1010 1072 LINE",
"1010 917 LINE",
"1280 917 LINE SMOOTH",
"1339 917 OFFCURVE",
"1383 919 OFFCURVE",
"1382 814 CURVE SMOOTH",
"1377 0 LINE"
);
},
{
closed = 1;
nodes = (
"526 -381 LINE",
"710 -381 LINE",
"710 0 LINE",
"526 0 LINE"
);
},
{
closed = 1;
nodes = (
"148 1072 LINE",
"145 102 LINE SMOOTH",
"145 42 OFFCURVE",
"188 0 OFFCURVE",
"247 0 CURVE SMOOTH",
"1040 0 LINE",
"1040 155 LINE",
"440 155 LINE SMOOTH",
"381 155 OFFCURVE",
"337 140 OFFCURVE",
"338 258 CURVE SMOOTH",
"343 1072 LINE"
);
}
);
width = 1725;
}
);
rightMetricsKey = "ge-ethiopic";
},
{
glyphname = "ru-ethiopic_go-ethiopic.liga";
lastChange = "2018-11-16 04:26:04 +0000";
layers = (
{
layerId = "91004FFB-2E8A-4290-ADD0-E71DD0A9BF8D";
paths = (
{
closed = 1;
nodes = (
"1017 1062 LINE",
"1167 1062 LINE",
"1167 1407 LINE",
"1017 1407 LINE"
);
},
{
closed = 1;
nodes = (
"1572 0 LINE",
"1575 970 LINE SMOOTH",
"1575 1030 OFFCURVE",
"1532 1072 OFFCURVE",
"1473 1072 CURVE SMOOTH",
"680 1072 LINE",
"680 917 LINE",
"1280 917 LINE SMOOTH",
"1339 917 OFFCURVE",
"1383 919 OFFCURVE",
"1382 814 CURVE SMOOTH",
"1377 0 LINE"
);
},
{
closed = 1;
nodes = (
"526 -381 LINE",
"710 -381 LINE",
"710 0 LINE",
"526 0 LINE"
);
},
{
closed = 1;
nodes = (
"148 1072 LINE",
"145 102 LINE SMOOTH",
"145 42 OFFCURVE",
"188 0 OFFCURVE",
"247 0 CURVE SMOOTH",
"1040 0 LINE",
"1040 155 LINE",
"440 155 LINE SMOOTH",
"381 155 OFFCURVE",
"337 140 OFFCURVE",
"338 258 CURVE SMOOTH",
"343 1072 LINE"
);
}
);
width = 1725;
}
);
rightMetricsKey = "go-ethiopic";
},
{
glyphname = "ru-ethiopic_goa-ethiopic.liga";
lastChange = "2018-11-16 04:26:11 +0000";
layers = (
{
layerId = "91004FFB-2E8A-4290-ADD0-E71DD0A9BF8D";
paths = (
{
closed = 1;
nodes = (
"1173 1062 LINE",
"1325 1062 LINE",
"1325 1397 LINE",
"1173 1397 LINE"
);
},
{
closed = 1;
nodes = (
"1744 -212 LINE",
"1208 -206 LINE SMOOTH",
"1125 -205 OFFCURVE",
"1062 -219 OFFCURVE",
"1022 -247 CURVE SMOOTH",
"989 -270 OFFCURVE",
"973 -300 OFFCURVE",
"971 -338 CURVE SMOOTH",
"970 -361 OFFCURVE",
"979 -384 OFFCURVE",
"998 -407 CURVE",
"1085 -386 LINE",
"1072 -370 OFFCURVE",
"1066 -354 OFFCURVE",
"1066 -336 CURVE SMOOTH",
"1066 -306 OFFCURVE",
"1089 -286 OFFCURVE",
"1131 -277 CURVE SMOOTH",
"1155 -272 OFFCURVE",
"1192 -269 OFFCURVE",
"1245 -270 CURVE SMOOTH",
"1742 -275 LINE"
);
},
{
closed = 1;
nodes = (
"1562 -220 LINE",
"1565 970 LINE SMOOTH",
"1565 1030 OFFCURVE",
"1522 1072 OFFCURVE",
"1463 1072 CURVE SMOOTH",
"670 1072 LINE",
"670 917 LINE",
"1270 917 LINE SMOOTH",
"1329 917 OFFCURVE",
"1373 919 OFFCURVE",
"1372 814 CURVE SMOOTH",
"1367 -220 LINE"
);
},
{
closed = 1;
nodes = (
"526 -381 LINE",
"710 -381 LINE",
"710 0 LINE",
"526 0 LINE"
);
},
{
closed = 1;
nodes = (
"148 1072 LINE",
"145 102 LINE SMOOTH",
"145 42 OFFCURVE",
"188 0 OFFCURVE",
"247 0 CURVE SMOOTH",
"1040 0 LINE",
"1040 155 LINE",
"440 155 LINE SMOOTH",
"381 155 OFFCURVE",
"337 140 OFFCURVE",
"338 258 CURVE SMOOTH",
"343 1072 LINE"
);
}
);
width = 1824;
}
);
rightMetricsKey = "goa-ethiopic";
},
{
glyphname = "ri-ethiopic_ga-ethiopic.liga";
lastChange = "2018-11-07 21:56:16 +0000";
layers = (
{
layerId = "91004FFB-2E8A-4290-ADD0-E71DD0A9BF8D";
paths = (
{
closed = 1;
nodes = (
"1572 0 LINE",
"1575 970 LINE SMOOTH",
"1575 1030 OFFCURVE",
"1532 1072 OFFCURVE",
"1473 1072 CURVE SMOOTH",
"680 1072 LINE",
"680 917 LINE",
"1280 917 LINE SMOOTH",
"1339 917 OFFCURVE",
"1383 919 OFFCURVE",
"1382 814 CURVE SMOOTH",
"1377 0 LINE"
);
},
{
closed = 1;
nodes = (
"689 555 LINE",
"689 406 LINE",
"841 406 LINE SMOOTH",
"904 406 OFFCURVE",
"895 363 OFFCURVE",
"895 304 CURVE SMOOTH",
"895 223 LINE SMOOTH",
"895 149 OFFCURVE",
"846 155 OFFCURVE",
"700 155 CURVE SMOOTH",
"441 155 LINE",
"440 155 LINE SMOOTH",
"381 155 OFFCURVE",
"337 153 OFFCURVE",
"338 258 CURVE SMOOTH",
"343 1072 LINE",
"148 1072 LINE",
"145 102 LINE SMOOTH",
"145 42 OFFCURVE",
"188 0 OFFCURVE",
"247 0 CURVE SMOOTH",
"696 0 LINE SMOOTH",
"845 -1 OFFCURVE",
"1045 12 OFFCURVE",
"1045 147 CURVE SMOOTH",
"1045 453 LINE SMOOTH",
"1045 512 OFFCURVE",
"1002 555 OFFCURVE",
"943 555 CURVE SMOOTH"
);
}
);
width = 1725;
}
);
rightMetricsKey = "ga-ethiopic";
},
{
glyphname = "ri-ethiopic_gu-ethiopic.liga";
lastChange = "2018-11-07 21:56:33 +0000";
layers = (
{
layerId = "91004FFB-2E8A-4290-ADD0-E71DD0A9BF8D";
paths = (
{
closed = 1;
nodes = (
"1640 751 OFFCURVE",
"1600 717 OFFCURVE",
"1574 650 CURVE",
"1575 970 LINE SMOOTH",
"1575 1030 OFFCURVE",
"1532 1072 OFFCURVE",
"1473 1072 CURVE SMOOTH",
"680 1072 LINE",
"680 917 LINE",
"1280 917 LINE SMOOTH",
"1339 917 OFFCURVE",
"1383 919 OFFCURVE",
"1382 814 CURVE SMOOTH",
"1377 0 LINE",
"1572 0 LINE",
"1573 474 LINE",
"1575 509 OFFCURVE",
"1580 541 OFFCURVE",
"1590 571 CURVE SMOOTH",
"1607 621 OFFCURVE",
"1638 646 OFFCURVE",
"1687 646 CURVE SMOOTH",
"1712 646 OFFCURVE",
"1737 639 OFFCURVE",
"1762 624 CURVE",
"1797 718 LINE",
"1761 740 OFFCURVE",
"1727 751 OFFCURVE",
"1692 751 CURVE SMOOTH"
);
},
{
closed = 1;
nodes = (
"689 555 LINE",
"689 406 LINE",
"841 406 LINE SMOOTH",
"904 406 OFFCURVE",
"895 363 OFFCURVE",
"895 304 CURVE SMOOTH",
"895 223 LINE SMOOTH",
"895 149 OFFCURVE",
"846 155 OFFCURVE",
"700 155 CURVE SMOOTH",
"441 155 LINE",
"440 155 LINE SMOOTH",
"381 155 OFFCURVE",
"337 153 OFFCURVE",
"338 258 CURVE SMOOTH",
"343 1072 LINE",
"148 1072 LINE",
"145 102 LINE SMOOTH",
"145 42 OFFCURVE",
"188 0 OFFCURVE",
"247 0 CURVE SMOOTH",
"696 0 LINE SMOOTH",
"845 -1 OFFCURVE",
"1045 12 OFFCURVE",
"1045 147 CURVE SMOOTH",
"1045 453 LINE SMOOTH",
"1045 512 OFFCURVE",
"1002 555 OFFCURVE",
"943 555 CURVE SMOOTH"
);
}
);
width = 1887;
}
);
rightMetricsKey = "gu-ethiopic";
},
{
glyphname = "ri-ethiopic_gi-ethiopic.liga";
lastChange = "2018-11-07 21:56:50 +0000";
layers = (
{
layerId = "91004FFB-2E8A-4290-ADD0-E71DD0A9BF8D";
paths = (
{
closed = 1;
nodes = (
"1757 -172 LINE",
"1722 -181 OFFCURVE",
"1694 -185 OFFCURVE",
"1673 -185 CURVE SMOOTH",
"1622 -185 OFFCURVE",
"1587 -157 OFFCURVE",
"1574 -105 CURVE SMOOTH",
"1568 -81 OFFCURVE",
"1570 -35 OFFCURVE",
"1570 37 CURVE SMOOTH",
"1568 620 LINE",
"1393 627 LINE",
"1390 35 LINE SMOOTH",
"1389 -84 OFFCURVE",
"1399 -169 OFFCURVE",
"1426 -225 CURVE SMOOTH",
"1464 -303 OFFCURVE",
"1539 -342 OFFCURVE",
"1647 -342 CURVE SMOOTH",
"1696 -342 OFFCURVE",
"1743 -337 OFFCURVE",
"1789 -326 CURVE"
);
},
{
closed = 1;
nodes = (
"1570 0 LINE",
"1575 970 LINE SMOOTH",
"1575 1030 OFFCURVE",
"1532 1072 OFFCURVE",
"1473 1072 CURVE SMOOTH",
"680 1072 LINE",
"680 917 LINE",
"1280 917 LINE SMOOTH",
"1339 917 OFFCURVE",
"1390 919 OFFCURVE",
"1391 814 CURVE SMOOTH",
"1397 0 LINE"
);
},
{
closed = 1;
nodes = (
"689 555 LINE",
"689 406 LINE",
"841 406 LINE SMOOTH",
"904 406 OFFCURVE",
"895 363 OFFCURVE",
"895 304 CURVE SMOOTH",
"895 223 LINE SMOOTH",
"895 149 OFFCURVE",
"846 155 OFFCURVE",
"700 155 CURVE SMOOTH",
"441 155 LINE",
"440 155 LINE SMOOTH",
"381 155 OFFCURVE",
"337 153 OFFCURVE",
"338 258 CURVE SMOOTH",
"343 1072 LINE",
"148 1072 LINE",
"145 102 LINE SMOOTH",
"145 42 OFFCURVE",
"188 0 OFFCURVE",
"247 0 CURVE SMOOTH",
"696 0 LINE SMOOTH",
"845 -1 OFFCURVE",
"1045 12 OFFCURVE",
"1045 147 CURVE SMOOTH",
"1045 453 LINE SMOOTH",
"1045 512 OFFCURVE",
"1002 555 OFFCURVE",
"943 555 CURVE SMOOTH"
);
}
);
width = 1819;
}
);
rightMetricsKey = "gi-ethiopic";
},
{
glyphname = "ri-ethiopic_gee-ethiopic.liga";
lastChange = "2018-11-07 21:57:05 +0000";
layers = (
{
layerId = "91004FFB-2E8A-4290-ADD0-E71DD0A9BF8D";
paths = (
{
closed = 1;
nodes = (
"1761 -214 OFFCURVE",
"1717 -197 OFFCURVE",
"1664 -197 CURVE SMOOTH",
"1617 -197 OFFCURVE",
"1582 -209 OFFCURVE",
"1557 -234 CURVE",
"1557 0 LINE",
"1558 0 LINE",
"1561 970 LINE SMOOTH",
"1561 1030 OFFCURVE",
"1518 1072 OFFCURVE",
"1459 1072 CURVE SMOOTH",
"679 1072 LINE",
"679 917 LINE",
"1279 917 LINE SMOOTH",
"1338 917 OFFCURVE",
"1382 919 OFFCURVE",
"1381 814 CURVE SMOOTH",
"1378 293 LINE",
"1377 293 LINE",
"1377 163 LINE",
"1376 0 LINE",
"1377 0 LINE",
"1377 -241 LINE SMOOTH",
"1377 -344 OFFCURVE",
"1403 -425 OFFCURVE",
"1454 -482 CURVE SMOOTH",
"1505 -539 OFFCURVE",
"1575 -567 OFFCURVE",
"1665 -567 CURVE SMOOTH",
"1716 -567 OFFCURVE",
"1758 -550 OFFCURVE",
"1793 -515 CURVE SMOOTH",
"1828 -480 OFFCURVE",
"1845 -436 OFFCURVE",
"1845 -384 CURVE SMOOTH",
"1845 -331 OFFCURVE",
"1828 -287 OFFCURVE",
"1795 -251 CURVE SMOOTH"
);
},
{
closed = 1;
nodes = (
"1721 -481 OFFCURVE",
"1695 -491 OFFCURVE",
"1663 -491 CURVE SMOOTH",
"1631 -491 OFFCURVE",
"1605 -481 OFFCURVE",
"1586 -460 CURVE SMOOTH",
"1567 -439 OFFCURVE",
"1557 -413 OFFCURVE",
"1557 -382 CURVE SMOOTH",
"1557 -351 OFFCURVE",
"1566 -326 OFFCURVE",
"1585 -306 CURVE SMOOTH",
"1605 -284 OFFCURVE",
"1631 -273 OFFCURVE",
"1663 -273 CURVE SMOOTH",
"1696 -273 OFFCURVE",
"1722 -284 OFFCURVE",
"1741 -305 CURVE SMOOTH",
"1760 -326 OFFCURVE",
"1769 -353 OFFCURVE",
"1769 -384 CURVE SMOOTH",
"1769 -414 OFFCURVE",
"1759 -439 OFFCURVE",
"1740 -460 CURVE SMOOTH"
);
},
{
closed = 1;
nodes = (
"689 555 LINE",
"689 406 LINE",
"841 406 LINE SMOOTH",
"904 406 OFFCURVE",
"895 363 OFFCURVE",
"895 304 CURVE SMOOTH",
"895 223 LINE SMOOTH",
"895 149 OFFCURVE",
"846 155 OFFCURVE",
"700 155 CURVE SMOOTH",
"441 155 LINE",
"440 155 LINE SMOOTH",
"381 155 OFFCURVE",
"337 153 OFFCURVE",
"338 258 CURVE SMOOTH",
"343 1072 LINE",
"148 1072 LINE",
"145 102 LINE SMOOTH",
"145 42 OFFCURVE",
"188 0 OFFCURVE",
"247 0 CURVE SMOOTH",
"696 0 LINE SMOOTH",
"845 -1 OFFCURVE",
"1045 12 OFFCURVE",
"1045 147 CURVE SMOOTH",
"1045 453 LINE SMOOTH",
"1045 512 OFFCURVE",
"1002 555 OFFCURVE",
"943 555 CURVE SMOOTH"
);
}
);
width = 1875;
}
);
rightMetricsKey = "gee-ethiopic";
},
{
glyphname = "ri-ethiopic_ge-ethiopic.liga";
lastChange = "2018-11-07 21:58:54 +0000";
layers = (
{
layerId = "91004FFB-2E8A-4290-ADD0-E71DD0A9BF8D";
paths = (
{
closed = 1;
nodes = (
"689 555 LINE",
"689 406 LINE",
"841 406 LINE SMOOTH",
"904 406 OFFCURVE",
"895 363 OFFCURVE",
"895 304 CURVE SMOOTH",
"895 223 LINE SMOOTH",
"895 149 OFFCURVE",
"846 155 OFFCURVE",
"700 155 CURVE SMOOTH",
"441 155 LINE",
"440 155 LINE SMOOTH",
"381 155 OFFCURVE",
"337 153 OFFCURVE",
"338 258 CURVE SMOOTH",
"343 1072 LINE",
"148 1072 LINE",
"145 102 LINE SMOOTH",
"145 42 OFFCURVE",
"188 0 OFFCURVE",
"247 0 CURVE SMOOTH",
"696 0 LINE SMOOTH",
"845 -1 OFFCURVE",
"1045 12 OFFCURVE",
"1045 147 CURVE SMOOTH",
"1045 453 LINE SMOOTH",
"1045 512 OFFCURVE",
"1002 555 OFFCURVE",
"943 555 CURVE SMOOTH"
);
},
{
closed = 1;
nodes = (
"1836 1071 LINE",
"1326 1073 LINE SMOOTH",
"1223 1073 OFFCURVE",
"1142 1049 OFFCURVE",
"1085 998 CURVE SMOOTH",
"1028 947 OFFCURVE",
"1000 877 OFFCURVE",
"1000 787 CURVE SMOOTH",
"1000 736 OFFCURVE",
"1017 694 OFFCURVE",
"1052 659 CURVE SMOOTH",
"1087 624 OFFCURVE",
"1131 607 OFFCURVE",
"1183 607 CURVE SMOOTH",
"1236 607 OFFCURVE",
"1280 624 OFFCURVE",
"1316 657 CURVE SMOOTH",
"1353 691 OFFCURVE",
"1370 735 OFFCURVE",
"1370 788 CURVE SMOOTH",
"1370 835 OFFCURVE",
"1358 870 OFFCURVE",
"1333 895 CURVE",
"1856 895 LINE"
);
},
{
closed = 1;
nodes = (
"1216 895 OFFCURVE",
"1241 886 OFFCURVE",
"1261 867 CURVE",
"1283 847 OFFCURVE",
"1294 821 OFFCURVE",
"1294 789 CURVE SMOOTH",
"1294 756 OFFCURVE",
"1283 730 OFFCURVE",
"1262 711 CURVE SMOOTH",
"1241 692 OFFCURVE",
"1214 683 OFFCURVE",
"1183 683 CURVE SMOOTH",
"1153 683 OFFCURVE",
"1128 693 OFFCURVE",
"1107 712 CURVE SMOOTH",
"1086 731 OFFCURVE",
"1076 757 OFFCURVE",
"1076 789 CURVE SMOOTH",
"1076 821 OFFCURVE",
"1086 847 OFFCURVE",
"1107 866 CURVE SMOOTH",
"1128 885 OFFCURVE",
"1154 895 OFFCURVE",
"1185 895 CURVE SMOOTH"
);
},
{
closed = 1;
nodes = (
"1902 0 LINE",
"1905 970 LINE SMOOTH",
"1905 1030 OFFCURVE",
"1862 1072 OFFCURVE",
"1803 1072 CURVE SMOOTH",
"1340 1072 LINE",
"1340 917 LINE",
"1610 917 LINE SMOOTH",
"1669 917 OFFCURVE",
"1713 919 OFFCURVE",
"1712 814 CURVE SMOOTH",
"1707 0 LINE"
);
}
);
width = 2055;
}
);
rightMetricsKey = "ge-ethiopic";
},
{
glyphname = "ri-ethiopic_go-ethiopic.liga";
lastChange = "2018-11-16 04:26:19 +0000";
layers = (
{
layerId = "91004FFB-2E8A-4290-ADD0-E71DD0A9BF8D";
paths = (
{
closed = 1;
nodes = (
"1017 1062 LINE",
"1167 1062 LINE",
"1167 1397 LINE",
"1017 1397 LINE"
);
},
{
closed = 1;
nodes = (
"1572 0 LINE",
"1575 970 LINE SMOOTH",
"1575 1030 OFFCURVE",
"1532 1072 OFFCURVE",
"1473 1072 CURVE SMOOTH",
"680 1072 LINE",
"680 917 LINE",
"1280 917 LINE SMOOTH",
"1339 917 OFFCURVE",
"1383 919 OFFCURVE",
"1382 814 CURVE SMOOTH",
"1377 0 LINE"
);
},
{
closed = 1;
nodes = (
"689 555 LINE",
"689 406 LINE",
"841 406 LINE SMOOTH",
"904 406 OFFCURVE",
"895 363 OFFCURVE",
"895 304 CURVE SMOOTH",
"895 223 LINE SMOOTH",
"895 149 OFFCURVE",
"846 155 OFFCURVE",
"700 155 CURVE SMOOTH",
"441 155 LINE",
"440 155 LINE SMOOTH",
"381 155 OFFCURVE",
"337 153 OFFCURVE",
"338 258 CURVE SMOOTH",
"343 1072 LINE",
"148 1072 LINE",
"145 102 LINE SMOOTH",
"145 42 OFFCURVE",
"188 0 OFFCURVE",
"247 0 CURVE SMOOTH",
"696 0 LINE SMOOTH",
"845 -1 OFFCURVE",
"1045 12 OFFCURVE",
"1045 147 CURVE SMOOTH",
"1045 453 LINE SMOOTH",
"1045 512 OFFCURVE",
"1002 555 OFFCURVE",
"943 555 CURVE SMOOTH"
);
}
);
width = 1725;
}
);
rightMetricsKey = "go-ethiopic";
},
{
glyphname = "ri-ethiopic_goa-ethiopic.liga";
lastChange = "2018-11-16 04:26:26 +0000";
layers = (
{
layerId = "91004FFB-2E8A-4290-ADD0-E71DD0A9BF8D";
paths = (
{
closed = 1;
nodes = (
"1173 1062 LINE",
"1325 1062 LINE",
"1325 1397 LINE",
"1173 1397 LINE"
);
},
{
closed = 1;
nodes = (
"1744 -212 LINE",
"1208 -206 LINE SMOOTH",
"1125 -205 OFFCURVE",
"1062 -219 OFFCURVE",
"1022 -247 CURVE SMOOTH",
"989 -270 OFFCURVE",
"973 -300 OFFCURVE",
"971 -338 CURVE SMOOTH",
"970 -361 OFFCURVE",
"979 -384 OFFCURVE",
"998 -407 CURVE",
"1085 -386 LINE",
"1072 -370 OFFCURVE",
"1066 -354 OFFCURVE",
"1066 -336 CURVE SMOOTH",
"1066 -306 OFFCURVE",
"1089 -286 OFFCURVE",
"1131 -277 CURVE SMOOTH",
"1155 -272 OFFCURVE",
"1192 -269 OFFCURVE",
"1245 -270 CURVE SMOOTH",
"1742 -275 LINE"
);
},
{
closed = 1;
nodes = (
"1562 -220 LINE",
"1565 970 LINE SMOOTH",
"1565 1030 OFFCURVE",
"1522 1072 OFFCURVE",
"1463 1072 CURVE SMOOTH",
"670 1072 LINE",
"670 917 LINE",
"1270 917 LINE SMOOTH",
"1329 917 OFFCURVE",
"1373 919 OFFCURVE",
"1372 814 CURVE SMOOTH",
"1367 -220 LINE"
);
},
{
closed = 1;
nodes = (
"689 555 LINE",
"689 406 LINE",
"841 406 LINE SMOOTH",
"904 406 OFFCURVE",
"895 363 OFFCURVE",
"895 304 CURVE SMOOTH",
"895 223 LINE SMOOTH",
"895 149 OFFCURVE",
"846 155 OFFCURVE",
"700 155 CURVE SMOOTH",
"441 155 LINE",
"440 155 LINE SMOOTH",
"381 155 OFFCURVE",
"337 153 OFFCURVE",
"338 258 CURVE SMOOTH",
"343 1072 LINE",
"148 1072 LINE",
"145 102 LINE SMOOTH",
"145 42 OFFCURVE",
"188 0 OFFCURVE",
"247 0 CURVE SMOOTH",
"696 0 LINE SMOOTH",
"845 -1 OFFCURVE",
"1045 12 OFFCURVE",
"1045 147 CURVE SMOOTH",
"1045 453 LINE SMOOTH",
"1045 512 OFFCURVE",
"1002 555 OFFCURVE",
"943 555 CURVE SMOOTH"
);
}
);
width = 1824;
}
);
rightMetricsKey = "goa-ethiopic";
},
{
glyphname = "raa-ethiopic_ga-ethiopic.liga";
lastChange = "2018-11-10 05:36:24 +0000";
layers = (
{
layerId = "91004FFB-2E8A-4290-ADD0-E71DD0A9BF8D";
paths = (
{
closed = 1;
nodes = (
"1692 0 LINE",
"1695 970 LINE SMOOTH",
"1695 1030 OFFCURVE",
"1652 1072 OFFCURVE",
"1593 1072 CURVE SMOOTH",
"800 1072 LINE",
"800 917 LINE",
"1400 917 LINE SMOOTH",
"1459 917 OFFCURVE",
"1503 919 OFFCURVE",
"1502 814 CURVE SMOOTH",
"1497 0 LINE"
);
},
{
closed = 1;
nodes = (
"1122 563 OFFCURVE",
"867 558 OFFCURVE",
"771 512 CURVE SMOOTH",
"681 469 OFFCURVE",
"668 399 OFFCURVE",
"668 306 CURVE SMOOTH",
"668 291 OFFCURVE",
"669 276 OFFCURVE",
"669 260 CURVE SMOOTH",
"669 190 OFFCURVE",
"647 155 OFFCURVE",
"563 155 CURVE SMOOTH",
"490 155 OFFCURVE",
"339 153 OFFCURVE",
"338 258 CURVE SMOOTH",
"334 1072 LINE",
"139 1072 LINE",
"145 102 LINE SMOOTH",
"145 42 OFFCURVE",
"188 0 OFFCURVE",
"247 0 CURVE SMOOTH",
"696 0 LINE SMOOTH",
"798 0 OFFCURVE",
"837 60 OFFCURVE",
"837 117 CURVE SMOOTH",
"837 149 OFFCURVE",
"824 255 OFFCURVE",
"824 308 CURVE SMOOTH",
"824 351 OFFCURVE",
"833 392 OFFCURVE",
"863 412 CURVE SMOOTH",
"875 420 OFFCURVE",
"896 423 OFFCURVE",
"922 423 CURVE SMOOTH",
"962 423 OFFCURVE",
"1025 415 OFFCURVE",
"1149 414 CURVE",
"1213 563 LINE"
);
}
);
width = 1845;
}
);
rightMetricsKey = "ga-ethiopic";
},
{
glyphname = "raa-ethiopic_gu-ethiopic.liga";
lastChange = "2018-11-10 05:36:36 +0000";
layers = (
{
layerId = "91004FFB-2E8A-4290-ADD0-E71DD0A9BF8D";
paths = (
{
closed = 1;
nodes = (
"1750 751 OFFCURVE",
"1710 717 OFFCURVE",
"1684 650 CURVE",
"1685 970 LINE SMOOTH",
"1685 1030 OFFCURVE",
"1642 1072 OFFCURVE",
"1583 1072 CURVE SMOOTH",
"790 1072 LINE",
"790 917 LINE",
"1390 917 LINE SMOOTH",
"1449 917 OFFCURVE",
"1493 919 OFFCURVE",
"1492 814 CURVE SMOOTH",
"1487 0 LINE",
"1682 0 LINE",
"1683 474 LINE",
"1685 509 OFFCURVE",
"1690 541 OFFCURVE",
"1700 571 CURVE SMOOTH",
"1717 621 OFFCURVE",
"1748 646 OFFCURVE",
"1797 646 CURVE SMOOTH",
"1822 646 OFFCURVE",
"1847 639 OFFCURVE",
"1872 624 CURVE",
"1907 718 LINE",
"1871 740 OFFCURVE",
"1837 751 OFFCURVE",
"1802 751 CURVE SMOOTH"
);
},
{
closed = 1;
nodes = (
"1122 563 OFFCURVE",
"867 558 OFFCURVE",
"771 512 CURVE SMOOTH",
"681 469 OFFCURVE",
"668 399 OFFCURVE",
"668 306 CURVE SMOOTH",
"668 291 OFFCURVE",
"669 276 OFFCURVE",
"669 260 CURVE SMOOTH",
"669 190 OFFCURVE",
"647 155 OFFCURVE",
"563 155 CURVE SMOOTH",
"490 155 OFFCURVE",
"339 153 OFFCURVE",
"338 258 CURVE SMOOTH",
"334 1072 LINE",
"139 1072 LINE",
"145 102 LINE SMOOTH",
"145 42 OFFCURVE",
"188 0 OFFCURVE",
"247 0 CURVE SMOOTH",
"696 0 LINE SMOOTH",
"798 0 OFFCURVE",
"837 60 OFFCURVE",
"837 117 CURVE SMOOTH",
"837 149 OFFCURVE",
"824 255 OFFCURVE",
"824 308 CURVE SMOOTH",
"824 351 OFFCURVE",
"833 392 OFFCURVE",
"863 412 CURVE SMOOTH",
"875 420 OFFCURVE",
"896 423 OFFCURVE",
"922 423 CURVE SMOOTH",
"962 423 OFFCURVE",
"1025 415 OFFCURVE",
"1149 414 CURVE",
"1213 563 LINE"
);
}
);
width = 1997;
}
);
rightMetricsKey = "gu-ethiopic";
},
{
glyphname = "raa-ethiopic_gi-ethiopic.liga";
lastChange = "2018-11-10 05:36:42 +0000";
layers = (
{
layerId = "91004FFB-2E8A-4290-ADD0-E71DD0A9BF8D";
paths = (
{
closed = 1;
nodes = (
"1927 -172 LINE",
"1892 -181 OFFCURVE",
"1864 -185 OFFCURVE",
"1843 -185 CURVE SMOOTH",
"1792 -185 OFFCURVE",
"1757 -157 OFFCURVE",
"1744 -105 CURVE SMOOTH",
"1738 -81 OFFCURVE",
"1740 -35 OFFCURVE",
"1740 37 CURVE SMOOTH",
"1738 620 LINE",
"1563 627 LINE",
"1560 35 LINE SMOOTH",
"1559 -84 OFFCURVE",
"1569 -169 OFFCURVE",
"1596 -225 CURVE",
"1634 -303 OFFCURVE",
"1709 -342 OFFCURVE",
"1817 -342 CURVE SMOOTH",
"1866 -342 OFFCURVE",
"1913 -337 OFFCURVE",
"1959 -326 CURVE"
);
},
{
closed = 1;
nodes = (
"1740 0 LINE",
"1745 970 LINE SMOOTH",
"1745 1030 OFFCURVE",
"1702 1072 OFFCURVE",
"1643 1072 CURVE SMOOTH",
"850 1072 LINE",
"850 917 LINE",
"1450 917 LINE SMOOTH",
"1509 917 OFFCURVE",
"1560 919 OFFCURVE",
"1561 814 CURVE SMOOTH",
"1567 0 LINE"
);
},
{
closed = 1;
nodes = (
"1122 563 OFFCURVE",
"867 558 OFFCURVE",
"771 512 CURVE SMOOTH",
"681 469 OFFCURVE",
"668 399 OFFCURVE",
"668 306 CURVE SMOOTH",
"668 291 OFFCURVE",
"669 276 OFFCURVE",
"669 260 CURVE SMOOTH",
"669 190 OFFCURVE",
"647 155 OFFCURVE",
"563 155 CURVE SMOOTH",
"490 155 OFFCURVE",
"339 153 OFFCURVE",
"338 258 CURVE SMOOTH",
"334 1072 LINE",
"139 1072 LINE",
"145 102 LINE SMOOTH",
"145 42 OFFCURVE",
"188 0 OFFCURVE",
"247 0 CURVE SMOOTH",
"696 0 LINE SMOOTH",
"798 0 OFFCURVE",
"837 60 OFFCURVE",
"837 117 CURVE SMOOTH",
"837 149 OFFCURVE",
"824 255 OFFCURVE",
"824 308 CURVE SMOOTH",
"824 351 OFFCURVE",
"833 392 OFFCURVE",
"863 412 CURVE SMOOTH",
"875 420 OFFCURVE",
"896 423 OFFCURVE",
"922 423 CURVE SMOOTH",
"962 423 OFFCURVE",
"1025 415 OFFCURVE",
"1149 414 CURVE",
"1213 563 LINE"
);
}
);
width = 1989;
}
);
rightMetricsKey = "gi-ethiopic";
},
{
glyphname = "raa-ethiopic_gee-ethiopic.liga";
lastChange = "2018-11-10 05:36:48 +0000";
layers = (
{
layerId = "91004FFB-2E8A-4290-ADD0-E71DD0A9BF8D";
paths = (
{
closed = 1;
nodes = (
"1901 -214 OFFCURVE",
"1857 -197 OFFCURVE",
"1804 -197 CURVE SMOOTH",
"1757 -197 OFFCURVE",
"1722 -209 OFFCURVE",
"1697 -234 CURVE",
"1697 0 LINE",
"1698 0 LINE",
"1701 970 LINE SMOOTH",
"1701 1030 OFFCURVE",
"1658 1072 OFFCURVE",
"1599 1072 CURVE SMOOTH",
"819 1072 LINE",
"819 917 LINE",
"1419 917 LINE SMOOTH",
"1478 917 OFFCURVE",
"1522 919 OFFCURVE",
"1521 814 CURVE SMOOTH",
"1518 293 LINE",
"1517 293 LINE",
"1517 163 LINE",
"1516 0 LINE",
"1517 0 LINE",
"1517 -241 LINE SMOOTH",
"1517 -344 OFFCURVE",
"1543 -425 OFFCURVE",
"1594 -482 CURVE SMOOTH",
"1645 -539 OFFCURVE",
"1715 -567 OFFCURVE",
"1805 -567 CURVE SMOOTH",
"1856 -567 OFFCURVE",
"1898 -550 OFFCURVE",
"1933 -515 CURVE SMOOTH",
"1968 -480 OFFCURVE",
"1985 -436 OFFCURVE",
"1985 -384 CURVE SMOOTH",
"1985 -331 OFFCURVE",
"1968 -287 OFFCURVE",
"1935 -251 CURVE SMOOTH"
);
},
{
closed = 1;
nodes = (
"1861 -481 OFFCURVE",
"1835 -491 OFFCURVE",
"1803 -491 CURVE SMOOTH",
"1771 -491 OFFCURVE",
"1745 -481 OFFCURVE",
"1726 -460 CURVE SMOOTH",
"1707 -439 OFFCURVE",
"1697 -413 OFFCURVE",
"1697 -382 CURVE SMOOTH",
"1697 -351 OFFCURVE",
"1706 -326 OFFCURVE",
"1725 -306 CURVE SMOOTH",
"1745 -284 OFFCURVE",
"1771 -273 OFFCURVE",
"1803 -273 CURVE SMOOTH",
"1836 -273 OFFCURVE",
"1862 -284 OFFCURVE",
"1881 -305 CURVE SMOOTH",
"1900 -326 OFFCURVE",
"1909 -353 OFFCURVE",
"1909 -384 CURVE SMOOTH",
"1909 -414 OFFCURVE",
"1899 -439 OFFCURVE",
"1880 -460 CURVE SMOOTH"
);
},
{
closed = 1;
nodes = (
"1122 563 OFFCURVE",
"867 558 OFFCURVE",
"771 512 CURVE SMOOTH",
"681 469 OFFCURVE",
"668 399 OFFCURVE",
"668 306 CURVE SMOOTH",
"668 291 OFFCURVE",
"669 276 OFFCURVE",
"669 260 CURVE SMOOTH",
"669 190 OFFCURVE",
"647 155 OFFCURVE",
"563 155 CURVE SMOOTH",
"490 155 OFFCURVE",
"339 153 OFFCURVE",
"338 258 CURVE SMOOTH",
"334 1072 LINE",
"139 1072 LINE",
"145 102 LINE SMOOTH",
"145 42 OFFCURVE",
"188 0 OFFCURVE",
"247 0 CURVE SMOOTH",
"696 0 LINE SMOOTH",
"798 0 OFFCURVE",
"837 60 OFFCURVE",
"837 117 CURVE SMOOTH",
"837 149 OFFCURVE",
"824 255 OFFCURVE",
"824 308 CURVE SMOOTH",
"824 351 OFFCURVE",
"833 392 OFFCURVE",
"863 412 CURVE SMOOTH",
"875 420 OFFCURVE",
"896 423 OFFCURVE",
"922 423 CURVE SMOOTH",
"962 423 OFFCURVE",
"1025 415 OFFCURVE",
"1149 414 CURVE",
"1213 563 LINE"
);
}
);
width = 2015;
}
);
rightMetricsKey = "gee-ethiopic";
},
{
glyphname = "raa-ethiopic_go-ethiopic.liga";
lastChange = "2018-11-16 04:26:34 +0000";
layers = (
{
layerId = "91004FFB-2E8A-4290-ADD0-E71DD0A9BF8D";
paths = (
{
closed = 1;
nodes = (
"1117 1062 LINE",
"1267 1062 LINE",
"1267 1397 LINE",
"1117 1397 LINE"
);
},
{
closed = 1;
nodes = (
"1672 0 LINE",
"1675 970 LINE SMOOTH",
"1675 1030 OFFCURVE",
"1632 1072 OFFCURVE",
"1573 1072 CURVE SMOOTH",
"780 1072 LINE",
"780 917 LINE",
"1380 917 LINE SMOOTH",
"1439 917 OFFCURVE",
"1483 919 OFFCURVE",
"1482 814 CURVE SMOOTH",
"1477 0 LINE"
);
},
{
closed = 1;
nodes = (
"1122 563 OFFCURVE",
"867 558 OFFCURVE",
"771 512 CURVE SMOOTH",
"681 469 OFFCURVE",
"668 399 OFFCURVE",
"668 306 CURVE SMOOTH",
"668 291 OFFCURVE",
"669 276 OFFCURVE",
"669 260 CURVE SMOOTH",
"669 190 OFFCURVE",
"647 155 OFFCURVE",
"563 155 CURVE SMOOTH",
"490 155 OFFCURVE",
"339 153 OFFCURVE",
"338 258 CURVE SMOOTH",
"334 1072 LINE",
"139 1072 LINE",
"145 102 LINE SMOOTH",
"145 42 OFFCURVE",
"188 0 OFFCURVE",
"247 0 CURVE SMOOTH",
"696 0 LINE SMOOTH",
"798 0 OFFCURVE",
"837 60 OFFCURVE",
"837 117 CURVE SMOOTH",
"837 149 OFFCURVE",
"824 255 OFFCURVE",
"824 308 CURVE SMOOTH",
"824 351 OFFCURVE",
"833 392 OFFCURVE",
"863 412 CURVE SMOOTH",
"875 420 OFFCURVE",
"896 423 OFFCURVE",
"922 423 CURVE SMOOTH",
"962 423 OFFCURVE",
"1025 415 OFFCURVE",
"1149 414 CURVE",
"1213 563 LINE"
);
}
);
width = 1825;
}
);
rightMetricsKey = "go-ethiopic";
},
{
glyphname = "raa-ethiopic_goa-ethiopic.liga";
lastChange = "2018-11-16 04:26:41 +0000";
layers = (
{
layerId = "91004FFB-2E8A-4290-ADD0-E71DD0A9BF8D";
paths = (
{
closed = 1;
nodes = (
"1343 1062 LINE",
"1495 1062 LINE",
"1495 1397 LINE",
"1343 1397 LINE"
);
},
{
closed = 1;
nodes = (
"1914 -212 LINE",
"1378 -206 LINE SMOOTH",
"1295 -205 OFFCURVE",
"1232 -219 OFFCURVE",
"1192 -247 CURVE SMOOTH",
"1159 -270 OFFCURVE",
"1143 -300 OFFCURVE",
"1141 -338 CURVE SMOOTH",
"1140 -361 OFFCURVE",
"1149 -384 OFFCURVE",
"1168 -407 CURVE",
"1255 -386 LINE",
"1242 -370 OFFCURVE",
"1236 -354 OFFCURVE",
"1236 -336 CURVE SMOOTH",
"1236 -306 OFFCURVE",
"1259 -286 OFFCURVE",
"1301 -277 CURVE SMOOTH",
"1325 -272 OFFCURVE",
"1362 -269 OFFCURVE",
"1415 -270 CURVE SMOOTH",
"1912 -275 LINE"
);
},
{
closed = 1;
nodes = (
"1732 -220 LINE",
"1735 970 LINE SMOOTH",
"1735 1030 OFFCURVE",
"1692 1072 OFFCURVE",
"1633 1072 CURVE SMOOTH",
"840 1072 LINE",
"840 917 LINE",
"1440 917 LINE SMOOTH",
"1499 917 OFFCURVE",
"1543 919 OFFCURVE",
"1542 814 CURVE SMOOTH",
"1537 -220 LINE"
);
},
{
closed = 1;
nodes = (
"1122 563 OFFCURVE",
"867 558 OFFCURVE",
"771 512 CURVE SMOOTH",
"681 469 OFFCURVE",
"668 399 OFFCURVE",
"668 306 CURVE SMOOTH",
"668 291 OFFCURVE",
"669 276 OFFCURVE",
"669 260 CURVE SMOOTH",
"669 190 OFFCURVE",
"647 155 OFFCURVE",
"563 155 CURVE SMOOTH",
"490 155 OFFCURVE",
"339 153 OFFCURVE",
"338 258 CURVE SMOOTH",
"334 1072 LINE",
"139 1072 LINE",
"145 102 LINE SMOOTH",
"145 42 OFFCURVE",
"188 0 OFFCURVE",
"247 0 CURVE SMOOTH",
"696 0 LINE SMOOTH",
"798 0 OFFCURVE",
"837 60 OFFCURVE",
"837 117 CURVE SMOOTH",
"837 149 OFFCURVE",
"824 255 OFFCURVE",
"824 308 CURVE SMOOTH",
"824 351 OFFCURVE",
"833 392 OFFCURVE",
"863 412 CURVE SMOOTH",
"875 420 OFFCURVE",
"896 423 OFFCURVE",
"922 423 CURVE SMOOTH",
"962 423 OFFCURVE",
"1025 415 OFFCURVE",
"1149 414 CURVE",
"1213 563 LINE"
);
}
);
width = 1994;
}
);
rightMetricsKey = "goa-ethiopic";
},
{
glyphname = "ree-ethiopic_ga-ethiopic.liga";
lastChange = "2018-11-07 22:08:08 +0000";
layers = (
{
layerId = "91004FFB-2E8A-4290-ADD0-E71DD0A9BF8D";
paths = (
{
closed = 1;
nodes = (
"1572 0 LINE",
"1575 970 LINE SMOOTH",
"1575 1030 OFFCURVE",
"1532 1072 OFFCURVE",
"1473 1072 CURVE SMOOTH",
"680 1072 LINE",
"680 917 LINE",
"1280 917 LINE SMOOTH",
"1339 917 OFFCURVE",
"1383 919 OFFCURVE",
"1382 814 CURVE SMOOTH",
"1377 0 LINE"
);
},
{
closed = 1;
nodes = (
"264 1 LINE",
"798 1 LINE SMOOTH",
"901 1 OFFCURVE",
"982 27 OFFCURVE",
"1039 78 CURVE SMOOTH",
"1096 129 OFFCURVE",
"1124 199 OFFCURVE",
"1124 289 CURVE SMOOTH",
"1124 340 OFFCURVE",
"1107 382 OFFCURVE",
"1072 417 CURVE SMOOTH",
"1037 452 OFFCURVE",
"993 469 OFFCURVE",
"941 469 CURVE SMOOTH",
"888 469 OFFCURVE",
"844 452 OFFCURVE",
"808 419 CURVE SMOOTH",
"771 385 OFFCURVE",
"754 341 OFFCURVE",
"754 288 CURVE SMOOTH",
"754 241 OFFCURVE",
"766 206 OFFCURVE",
"791 181 CURVE",
"268 181 LINE"
);
},
{
closed = 1;
nodes = (
"908 181 OFFCURVE",
"883 190 OFFCURVE",
"863 209 CURVE",
"841 229 OFFCURVE",
"830 255 OFFCURVE",
"830 287 CURVE SMOOTH",
"830 320 OFFCURVE",
"841 346 OFFCURVE",
"862 365 CURVE SMOOTH",
"883 384 OFFCURVE",
"910 393 OFFCURVE",
"941 393 CURVE SMOOTH",
"971 393 OFFCURVE",
"996 383 OFFCURVE",
"1017 364 CURVE SMOOTH",
"1038 345 OFFCURVE",
"1048 319 OFFCURVE",
"1048 287 CURVE SMOOTH",
"1048 255 OFFCURVE",
"1038 229 OFFCURVE",
"1017 210 CURVE SMOOTH",
"996 191 OFFCURVE",
"970 181 OFFCURVE",
"939 181 CURVE SMOOTH"
);
},
{
closed = 1;
nodes = (
"138 1072 LINE",
"135 102 LINE SMOOTH",
"135 42 OFFCURVE",
"178 0 OFFCURVE",
"237 0 CURVE SMOOTH",
"700 0 LINE",
"700 155 LINE",
"430 155 LINE SMOOTH",
"371 155 OFFCURVE",
"327 153 OFFCURVE",
"328 258 CURVE SMOOTH",
"333 1072 LINE"
);
}
);
width = 1725;
}
);
rightMetricsKey = "ga-ethiopic";
},
{
glyphname = "ree-ethiopic_gu-ethiopic.liga";
lastChange = "2018-11-07 22:08:38 +0000";
layers = (
{
layerId = "91004FFB-2E8A-4290-ADD0-E71DD0A9BF8D";
paths = (
{
closed = 1;
nodes = (
"1640 751 OFFCURVE",
"1600 717 OFFCURVE",
"1574 650 CURVE",
"1575 970 LINE SMOOTH",
"1575 1030 OFFCURVE",
"1532 1072 OFFCURVE",
"1473 1072 CURVE SMOOTH",
"680 1072 LINE",
"680 917 LINE",
"1280 917 LINE SMOOTH",
"1339 917 OFFCURVE",
"1383 919 OFFCURVE",
"1382 814 CURVE SMOOTH",
"1377 0 LINE",
"1572 0 LINE",
"1573 474 LINE",
"1575 509 OFFCURVE",
"1580 541 OFFCURVE",
"1590 571 CURVE SMOOTH",
"1607 621 OFFCURVE",
"1638 646 OFFCURVE",
"1687 646 CURVE SMOOTH",
"1712 646 OFFCURVE",
"1737 639 OFFCURVE",
"1762 624 CURVE",
"1797 718 LINE",
"1761 740 OFFCURVE",
"1727 751 OFFCURVE",
"1692 751 CURVE SMOOTH"
);
},
{
closed = 1;
nodes = (
"264 1 LINE",
"798 1 LINE SMOOTH",
"901 1 OFFCURVE",
"982 27 OFFCURVE",
"1039 78 CURVE SMOOTH",
"1096 129 OFFCURVE",
"1124 199 OFFCURVE",
"1124 289 CURVE SMOOTH",
"1124 340 OFFCURVE",
"1107 382 OFFCURVE",
"1072 417 CURVE SMOOTH",
"1037 452 OFFCURVE",
"993 469 OFFCURVE",
"941 469 CURVE SMOOTH",
"888 469 OFFCURVE",
"844 452 OFFCURVE",
"808 419 CURVE SMOOTH",
"771 385 OFFCURVE",
"754 341 OFFCURVE",
"754 288 CURVE SMOOTH",
"754 241 OFFCURVE",
"766 206 OFFCURVE",
"791 181 CURVE",
"268 181 LINE"
);
},
{
closed = 1;
nodes = (
"908 181 OFFCURVE",
"883 190 OFFCURVE",
"863 209 CURVE",
"841 229 OFFCURVE",
"830 255 OFFCURVE",
"830 287 CURVE SMOOTH",
"830 320 OFFCURVE",
"841 346 OFFCURVE",
"862 365 CURVE SMOOTH",
"883 384 OFFCURVE",
"910 393 OFFCURVE",
"941 393 CURVE SMOOTH",
"971 393 OFFCURVE",
"996 383 OFFCURVE",
"1017 364 CURVE SMOOTH",
"1038 345 OFFCURVE",
"1048 319 OFFCURVE",
"1048 287 CURVE SMOOTH",
"1048 255 OFFCURVE",
"1038 229 OFFCURVE",
"1017 210 CURVE SMOOTH",
"996 191 OFFCURVE",
"970 181 OFFCURVE",
"939 181 CURVE SMOOTH"
);
},
{
closed = 1;
nodes = (
"138 1072 LINE",
"135 102 LINE SMOOTH",
"135 42 OFFCURVE",
"178 0 OFFCURVE",
"237 0 CURVE SMOOTH",
"700 0 LINE",
"700 155 LINE",
"430 155 LINE SMOOTH",
"371 155 OFFCURVE",
"327 153 OFFCURVE",
"328 258 CURVE SMOOTH",
"333 1072 LINE"
);
}
);
width = 1887;
}
);
rightMetricsKey = "gu-ethiopic";
},
{
glyphname = "ree-ethiopic_gi-ethiopic.liga";
lastChange = "2018-11-07 22:09:20 +0000";
layers = (
{
layerId = "91004FFB-2E8A-4290-ADD0-E71DD0A9BF8D";
paths = (
{
closed = 1;
nodes = (
"1757 -172 LINE",
"1722 -181 OFFCURVE",
"1694 -185 OFFCURVE",
"1673 -185 CURVE SMOOTH",
"1622 -185 OFFCURVE",
"1587 -157 OFFCURVE",
"1574 -105 CURVE SMOOTH",
"1568 -81 OFFCURVE",
"1570 -35 OFFCURVE",
"1570 37 CURVE SMOOTH",
"1568 620 LINE",
"1393 627 LINE",
"1390 35 LINE SMOOTH",
"1389 -84 OFFCURVE",
"1399 -169 OFFCURVE",
"1426 -225 CURVE SMOOTH",
"1464 -303 OFFCURVE",
"1539 -342 OFFCURVE",
"1647 -342 CURVE SMOOTH",
"1696 -342 OFFCURVE",
"1743 -337 OFFCURVE",
"1789 -326 CURVE"
);
},
{
closed = 1;
nodes = (
"1570 0 LINE",
"1575 970 LINE SMOOTH",
"1575 1030 OFFCURVE",
"1532 1072 OFFCURVE",
"1473 1072 CURVE SMOOTH",
"680 1072 LINE",
"680 917 LINE",
"1280 917 LINE SMOOTH",
"1339 917 OFFCURVE",
"1390 919 OFFCURVE",
"1391 814 CURVE SMOOTH",
"1397 0 LINE"
);
},
{
closed = 1;
nodes = (
"264 1 LINE",
"798 1 LINE SMOOTH",
"901 1 OFFCURVE",
"982 27 OFFCURVE",
"1039 78 CURVE SMOOTH",
"1096 129 OFFCURVE",
"1124 199 OFFCURVE",
"1124 289 CURVE SMOOTH",
"1124 340 OFFCURVE",
"1107 382 OFFCURVE",
"1072 417 CURVE SMOOTH",
"1037 452 OFFCURVE",
"993 469 OFFCURVE",
"941 469 CURVE SMOOTH",
"888 469 OFFCURVE",
"844 452 OFFCURVE",
"808 419 CURVE SMOOTH",
"771 385 OFFCURVE",
"754 341 OFFCURVE",
"754 288 CURVE SMOOTH",
"754 241 OFFCURVE",
"766 206 OFFCURVE",
"791 181 CURVE",
"268 181 LINE"
);
},
{
closed = 1;
nodes = (
"908 181 OFFCURVE",
"883 190 OFFCURVE",
"863 209 CURVE",
"841 229 OFFCURVE",
"830 255 OFFCURVE",
"830 287 CURVE SMOOTH",
"830 320 OFFCURVE",
"841 346 OFFCURVE",
"862 365 CURVE SMOOTH",
"883 384 OFFCURVE",
"910 393 OFFCURVE",
"941 393 CURVE SMOOTH",
"971 393 OFFCURVE",
"996 383 OFFCURVE",
"1017 364 CURVE SMOOTH",
"1038 345 OFFCURVE",
"1048 319 OFFCURVE",
"1048 287 CURVE SMOOTH",
"1048 255 OFFCURVE",
"1038 229 OFFCURVE",
"1017 210 CURVE SMOOTH",
"996 191 OFFCURVE",
"970 181 OFFCURVE",
"939 181 CURVE SMOOTH"
);
},
{
closed = 1;
nodes = (
"138 1072 LINE",
"135 102 LINE SMOOTH",
"135 42 OFFCURVE",
"178 0 OFFCURVE",
"237 0 CURVE SMOOTH",
"700 0 LINE",
"700 155 LINE",
"430 155 LINE SMOOTH",
"371 155 OFFCURVE",
"327 153 OFFCURVE",
"328 258 CURVE SMOOTH",
"333 1072 LINE"
);
}
);
width = 1819;
}
);
rightMetricsKey = "gi-ethiopic";
},
